<svg width="54" height="57" viewBox="0 0 54 57" fill="none" xmlns="http://www.w3.org/2000/svg">
<path d="M52.2492 26.918H22.9575C22.9019 26.918 22.8555 26.9272 22.806 26.9334C22.07 22.873 18.5229 19.793 14.2489 19.793C9.97482 19.793 6.42807 22.873 5.69174 26.9334C5.64535 26.9334 5.59588 26.918 5.54948 26.918H1.59115C0.719046 26.918 0.0078125 27.6292 0.0078125 28.5013C0.0078125 29.3734 0.719078 30.0846 1.59115 30.0846H5.54948C5.59587 30.0846 5.64535 30.0753 5.69174 30.0692C6.43702 34.1295 9.98408 37.2096 14.2489 37.2096C18.5164 37.2096 22.0697 34.1295 22.806 30.0692C22.8524 30.0692 22.9081 30.0846 22.9575 30.0846H52.2492C53.1213 30.0846 53.8326 29.3734 53.8326 28.5013C53.8326 27.6292 53.1213 26.918 52.2492 26.918ZM14.2492 34.043C11.1938 34.043 8.70752 31.5566 8.70752 28.5013C8.70752 25.4459 11.1938 22.9596 14.2492 22.9596C17.3046 22.9596 19.7909 25.4459 19.7909 28.5013C19.7909 31.5566 17.3046 34.043 14.2492 34.043Z" fill="white"/>
<path d="M52.2509 7.12498H44.3342C44.2786 7.12498 44.2322 7.13426 44.1827 7.14044C43.4467 3.08006 39.8996 0 35.6256 0C31.3515 0 27.8048 3.08006 27.0684 7.14044C27.0221 7.14044 26.9726 7.12498 26.9262 7.12498H1.58333C0.711233 7.12498 0 7.83625 0 8.70832C0 9.58039 0.711265 10.2917 1.58333 10.2917H26.9167C26.9631 10.2917 27.0126 10.2824 27.0589 10.2762C27.8042 14.3366 31.3513 17.4166 35.6161 17.4166C39.8836 17.4166 43.4369 14.3366 44.1732 10.2762C44.2196 10.2762 44.2753 10.2917 44.3247 10.2917H52.2414C53.1135 10.2917 53.8247 9.58039 53.8247 8.70832C53.8247 7.83625 53.1135 7.12498 52.2414 7.12498H52.2509ZM35.6259 14.25C32.5705 14.25 30.0842 11.7637 30.0842 8.70832C30.0842 5.65296 32.5705 3.16664 35.6259 3.16664C38.6813 3.16664 41.1676 5.65296 41.1676 8.70832C41.1676 11.7637 38.6813 14.25 35.6259 14.25Z" fill="white"/>
<path d="M52.2509 46.707H48.2926C48.2369 46.707 48.1905 46.7163 48.141 46.7225C47.405 42.6621 43.858 39.582 39.5839 39.582C35.3099 39.582 31.7631 42.6621 31.0268 46.7225C30.9804 46.7225 30.9309 46.707 30.8845 46.707H1.58333C0.711233 46.707 0 47.4183 0 48.2903C0 49.1624 0.711265 49.8737 1.58333 49.8737H30.875C30.9214 49.8737 30.9709 49.8644 31.0173 49.8582C31.7626 53.9186 35.3096 56.9987 39.5744 56.9987C43.842 56.9987 47.3952 53.9186 48.1315 49.8582C48.1779 49.8582 48.2336 49.8737 48.2831 49.8737H52.2414C53.1135 49.8737 53.8247 49.1624 53.8247 48.2903C53.8247 47.4183 53.1135 46.707 52.2414 46.707H52.2509ZM39.5842 53.832C36.5289 53.832 34.0426 51.3457 34.0426 48.2903C34.0426 45.235 36.5289 42.7487 39.5842 42.7487C42.6396 42.7487 45.1259 45.235 45.1259 48.2903C45.1259 51.3457 42.6396 53.832 39.5842 53.832Z" fill="white"/>
</svg>
