<svg width="65" height="66" viewBox="0 0 65 66" fill="none" xmlns="http://www.w3.org/2000/svg">
<path fill-rule="evenodd" clip-rule="evenodd" d="M21.6104 14.5589C22.6484 14.5589 23.4901 15.4098 23.4901 16.4591C23.4901 17.5085 22.6484 18.3594 21.6104 18.3594C20.5724 18.3594 19.7307 17.5085 19.7307 16.4591C19.7307 15.4098 20.5724 14.5589 21.6104 14.5589ZM2.3085 44.2024H3.43584V39.4633C3.43584 35.7633 6.43011 32.7366 10.0898 32.7366H15.8719C19.5318 32.7366 22.5259 35.7636 22.5259 39.4633V44.2024H23.6557C24.9233 44.2024 25.9614 45.2518 25.9614 46.5359V63.6665C25.9614 64.9506 24.9233 66 23.6557 66H2.30823C1.03809 66 0 64.9506 0 63.6665V46.5359C0 45.2518 1.03829 44.2024 2.3085 44.2024ZM12.9826 47.678C17.372 47.678 20.9326 51.2774 20.9326 55.715C20.9326 60.1524 17.3747 63.7519 12.9826 63.7519C8.59313 63.7519 5.03252 60.1551 5.03252 55.715C5.03252 51.2776 8.593 47.678 12.9826 47.678ZM7.97847 54.5084C8.31514 54.1681 8.86606 54.1681 9.20525 54.5084L11.7098 57.0403C11.7787 57.11 11.8909 57.11 11.9598 57.0403L16.7598 52.1878C17.0965 51.8475 17.6474 51.8475 17.9866 52.1878C18.3233 52.5281 18.3233 53.0851 17.9866 53.428L12.0847 59.3944C11.947 59.5336 11.7226 59.5336 11.5874 59.3944L7.981 55.7512C7.64434 55.4108 7.64434 54.8539 7.981 54.511L7.97847 54.5084ZM6.38695 44.2028H19.5781V39.7551C19.5781 37.5402 18.0631 35.7199 15.8722 35.7199H10.0902C7.89927 35.7199 6.38682 37.5402 6.38682 39.7551L6.38695 44.2028ZM64.9899 6.17709L64.9925 19.8787L64.9976 19.969V51.0541C64.9976 53.3463 61.9319 55.28 56.9764 56.5563C52.4186 57.7269 46.139 58.4514 39.2173 58.4514C37.33 58.4514 35.463 58.3947 33.6419 58.289C31.7724 58.1807 29.9998 58.0183 28.3496 57.8146C27.791 57.745 27.3932 57.2319 27.462 56.6672C27.5309 56.1025 28.0384 55.7003 28.597 55.7699C30.2446 55.9736 31.9713 56.1334 33.7541 56.2366C35.4833 56.3371 37.312 56.3913 39.2173 56.3913C45.9712 56.3913 52.0721 55.69 56.4742 54.5607C60.4785 53.5319 62.9576 52.2814 62.9576 51.0566V38.4382C61.5676 39.3999 59.5221 40.2275 56.9766 40.8825C52.4188 42.0556 46.1393 42.7801 39.2176 42.7801C36.6084 42.7801 34.0809 42.677 31.7011 42.4836C29.2373 42.2851 26.9342 41.9912 24.863 41.6173C24.3095 41.5193 23.9371 40.9856 24.0341 40.4261C24.131 39.8666 24.6615 39.4901 25.215 39.5881C27.2273 39.9517 29.4666 40.2379 31.8618 40.4312C34.1751 40.6169 36.6465 40.72 39.2177 40.72C45.9716 40.72 52.0725 40.0187 56.4746 38.8868C60.4789 37.858 62.958 36.6101 62.958 35.3854V22.924C61.5679 23.8522 59.5148 24.6489 56.9643 25.278C52.404 26.3996 46.127 27.0932 39.2177 27.0932C32.3084 27.0932 26.0344 26.3996 21.4711 25.278C18.9206 24.6515 16.8699 23.8522 15.4799 22.924V30.2025C15.4799 30.7723 15.0234 31.2339 14.4597 31.2339C13.8961 31.2339 13.4395 30.7723 13.4395 30.2025V20.2322C13.4395 20.1961 13.4421 20.16 13.4446 20.1265C13.4421 20.075 13.4395 20.026 13.4395 19.9744V6.29124C13.4395 6.25772 13.4421 6.22678 13.4446 6.19326C13.4395 6.14943 13.4395 6.10817 13.4395 6.0695C13.4395 4.11769 16.5256 2.5165 21.5117 1.50059C26.0669 0.572409 32.3281 0 39.2198 0C46.1114 0 52.373 0.572402 56.9278 1.50059C61.9141 2.51392 65 4.11762 65 6.0695C65 6.1056 64.9975 6.13912 64.9949 6.17005L64.9923 6.18294L64.9899 6.17709ZM62.9623 19.8787L62.9597 8.62923C61.5493 9.44144 59.4604 10.1247 56.8538 10.6507C52.319 11.566 46.0857 12.1333 39.2169 12.1333C32.5191 12.1333 26.4208 11.5918 21.909 10.7152C19.1545 10.1789 16.9457 9.4724 15.4766 8.6396V19.969C15.4766 21.1112 17.9506 22.2921 21.9473 23.2744C26.3469 24.3548 32.4503 25.0251 39.2166 25.0251C45.9803 25.0251 52.0865 24.3573 56.4859 23.2744C60.4851 22.2895 62.9566 21.1112 62.9566 19.969L62.9623 19.8787ZM56.5273 3.50845C52.1201 2.61115 46.0015 2.05683 39.2169 2.05683C32.4323 2.05683 26.3137 2.61118 21.909 3.50845C17.9354 4.31808 15.4792 5.23339 15.4792 6.06362L15.4766 6.05331L15.4792 6.07136C15.6705 6.96865 18.2414 7.90198 22.2945 8.6936C26.6762 9.54707 32.6368 10.0704 39.2171 10.0704C45.9527 10.0704 52.0412 9.52124 56.4557 8.62911C60.4013 7.83241 62.8702 6.9274 62.9569 6.09717L62.9595 6.06365C62.9569 5.23342 60.4982 4.31811 56.5296 3.51104L56.5273 3.50845ZM21.6133 29.7282C22.6513 29.7282 23.493 30.5791 23.493 31.6285C23.493 32.2963 23.1512 32.8841 22.636 33.2219L22.6309 33.2142C22.5952 33.1755 22.562 33.1394 22.5263 33.1008L22.4779 33.0492C22.4422 33.0105 22.4039 32.9718 22.3656 32.9332L22.335 32.9022C22.2968 32.8635 22.2534 32.8223 22.2126 32.7836L22.1642 32.7372C22.1259 32.7011 22.0876 32.665 22.0494 32.6289L22.0111 32.5928C21.9678 32.5541 21.927 32.518 21.8861 32.4794L21.8479 32.4433C21.8045 32.4072 21.7612 32.3685 21.7178 32.3324L21.6796 32.3015C21.6362 32.2654 21.5928 32.2293 21.5495 32.1932L21.5061 32.1596C21.4628 32.1261 21.4194 32.0926 21.3786 32.0591L21.3225 32.0153C21.2842 31.9869 21.246 31.956 21.2052 31.9276L21.1389 31.8812L21.0343 31.809L20.9501 31.7523L20.8455 31.6801L20.7716 31.6337L20.6619 31.564L20.5752 31.5125L20.4808 31.4557L20.3992 31.4068L20.3023 31.35L20.2844 31.3397L20.1875 31.2882L20.0855 31.2314L20.0064 31.1902L19.8075 31.0896C20.0345 30.2981 20.7563 29.7179 21.6132 29.7179L21.6133 29.7282Z" fill="white"/>
</svg>
