<svg width="70" height="70" viewBox="0 0 70 70" fill="none" xmlns="http://www.w3.org/2000/svg">
<path d="M22.4941 14.491L22.265 14.631L34.9994 11.4832L35.0003 10.9832C35.0002 10.9832 35 10.9832 34.9999 10.9832C30.5873 10.9752 26.2588 12.1894 22.4941 14.491Z" fill="white" stroke="black"/>
<path d="M10.9844 34.9997C10.9822 39.1721 12.0672 43.2731 14.1323 46.8986C16.1974 50.5241 19.1715 53.549 22.7614 55.6753C26.3514 57.8016 30.4333 58.9559 34.6052 59.0245C38.777 59.0931 42.8947 58.0736 46.5526 56.0665L46.7898 55.9363L46.8106 55.6666C46.8685 54.9156 47.1441 54.1977 47.6035 53.6009C48.0629 53.004 48.6864 52.554 49.3975 52.3058C50.1087 52.0577 50.8768 52.0221 51.6078 52.2036C52.3388 52.3851 53.0011 52.7757 53.5137 53.3277C54.0262 53.8796 54.3668 54.569 54.4937 55.3114C54.6207 56.0539 54.5285 56.8172 54.2284 57.5081C53.9284 58.199 53.4335 58.7874 52.8043 59.2015C52.1754 59.6153 51.4395 59.837 50.6866 59.8395C50.309 59.839 49.9335 59.7842 49.5714 59.6769L49.3661 59.616L49.1804 59.7226C44.8479 62.2096 39.9375 63.5134 34.9419 63.5032C29.9463 63.493 25.0413 62.1692 20.7189 59.6645C16.3966 57.1599 12.8089 53.5626 10.316 49.2336C7.823 44.9045 6.51238 39.9959 6.51563 35.0003V35V33.7969C6.51563 33.5234 6.62428 33.2611 6.81768 33.0677C7.01107 32.8743 7.27338 32.7656 7.54688 32.7656H9.95313C10.2266 32.7656 10.4889 32.8743 10.6823 33.0677C10.8757 33.2611 10.9844 33.5234 10.9844 33.7969V34.9997ZM10.9844 34.9997L11.4844 35M10.9844 34.9997V35H11.4844M11.4844 35V33.7969C11.4844 33.3908 11.3231 33.0013 11.0359 32.7141C10.7487 32.427 10.3592 32.2656 9.95313 32.2656H7.54688C7.14077 32.2656 6.75129 32.427 6.46412 32.7141C6.17696 33.0013 6.01563 33.3908 6.01563 33.7969V35L49.4293 60.1562C49.8376 60.2773 50.2612 60.339 50.6871 60.3395C51.5375 60.3369 52.3688 60.0866 53.0792 59.6191C53.7895 59.1517 54.3483 58.4873 54.6871 57.7073C55.0258 56.9272 55.1299 56.0654 54.9866 55.2271C54.8433 54.3889 54.4587 53.6106 53.8801 52.9874C53.3014 52.3643 52.5536 51.9233 51.7283 51.7184C50.9029 51.5135 50.0357 51.5535 49.2328 51.8337C48.4299 52.1139 47.726 52.622 47.2073 53.2959C46.6886 53.9698 46.3775 54.7802 46.3121 55.6281C42.7304 57.5935 38.6984 58.5917 34.6134 58.5245C30.5284 58.4574 26.5314 57.3271 23.0162 55.2451C19.501 53.163 16.5889 50.2011 14.5668 46.6511C12.5446 43.1011 11.4823 39.0855 11.4844 35Z" fill="white" stroke="black"/>
<path d="M37.4595 50.3594H37.4601C37.7171 50.3597 37.9658 50.2686 38.1619 50.1024C38.3579 49.9362 38.4884 49.7057 38.5302 49.4521C38.5302 49.4521 38.5302 49.452 38.5302 49.452L38.85 47.4974L38.8515 47.4884L38.8516 47.4884C38.9159 47.1357 39.0649 46.804 39.2858 46.5216C39.5058 46.2403 39.7906 46.0163 40.1159 45.8689C40.7256 45.5829 41.3098 45.2453 41.8621 44.86C42.152 44.6508 42.4884 44.5152 42.8424 44.4649C43.1979 44.4144 43.5604 44.4514 43.8984 44.5728L43.9058 44.5754L43.9058 44.5755L45.7621 45.2754C46.0026 45.3659 46.2674 45.3681 46.5095 45.2817C46.7514 45.1954 46.9549 45.026 47.0838 44.8038L37.4595 50.3594ZM37.4595 50.3594H32.5385C32.2826 50.3589 32.0352 50.268 31.84 50.1026C31.6451 49.9374 31.5148 49.7086 31.4722 49.4566C31.4722 49.4564 31.4721 49.4561 31.4721 49.4558L31.1525 47.5028L31.1526 47.5028L31.151 47.4938C31.0866 47.1412 30.9376 46.8094 30.7168 46.5271C30.4967 46.2457 30.2119 46.0218 29.8866 45.8744C29.277 45.5883 28.6928 45.2508 28.1405 44.8654C27.8506 44.6563 27.5141 44.5207 27.1602 44.4704C26.8046 44.4199 26.4422 44.4569 26.1042 44.5782L26.1042 44.5782M37.4595 50.3594L26.1042 44.5782M20.4581 40.5577C20.3292 40.3346 20.2839 40.0729 20.3302 39.8195C20.3765 39.566 20.5114 39.3373 20.7108 39.1741L20.7109 39.1741L22.2449 37.919L22.2449 37.9191L22.2514 37.9136C22.5251 37.6817 22.7381 37.3866 22.8719 37.0537C23.0048 36.723 23.0555 36.3649 23.0196 36.0104C22.9934 35.6757 22.9778 35.3382 22.9778 35C22.9778 34.6618 22.9934 34.3243 23.0196 33.9896C23.0555 33.6351 23.0048 33.277 22.8719 32.9463C22.7381 32.6134 22.5251 32.3183 22.2514 32.0864L22.2514 32.0864L22.2453 32.0813L20.7113 30.8235L20.7106 30.823C20.5115 30.6603 20.3767 30.432 20.3305 30.1791C20.2842 29.9263 20.3294 29.6652 20.4579 29.4427C20.4579 29.4425 20.458 29.4424 20.4581 29.4423L22.9188 25.1907L22.919 25.1903C23.0475 24.9679 23.2509 24.7984 23.4928 24.712L23.3247 24.2411L23.4928 24.712C23.7347 24.6257 23.9993 24.6281 24.2396 24.7188C24.2396 24.7188 24.2397 24.7189 24.2398 24.7189L26.0956 25.424L26.0955 25.4241L26.1042 25.4272C26.4422 25.5486 26.8046 25.5856 27.1602 25.5351C27.5141 25.4848 27.8505 25.3492 28.1405 25.1401C28.6928 24.7547 29.2769 24.4171 29.8866 24.1311C30.2119 23.9837 30.4967 23.7598 30.7168 23.4784C30.9376 23.196 31.0866 22.8643 31.151 22.5116L31.1511 22.5116L31.1527 22.5014L31.4669 20.5506C31.467 20.5504 31.467 20.5502 31.467 20.55C31.5089 20.2962 31.6394 20.0655 31.8354 19.899C32.0315 19.7324 32.2803 19.6408 32.5376 19.6406L20.4581 40.5577ZM20.4581 40.5577L22.9186 44.809L20.4581 40.5577ZM49.6083 38.7816L48.0743 37.5266L49.6083 38.7816ZM49.6083 38.7816C49.8996 39.0199 50.0966 39.354 50.1642 39.7242M49.6083 38.7816L50.1642 39.7242M26.1042 44.5782L26.0968 44.581M26.1042 44.5782L26.0968 44.581M26.0968 44.581L24.2405 45.2808C23.9999 45.3713 23.7351 45.3736 23.4931 45.2872C23.2512 45.2008 23.0477 45.0315 22.9188 44.8093L26.0968 44.581ZM34.9982 42.5437C36.4904 42.5449 37.9495 42.1035 39.1908 41.2752C40.4322 40.447 41.4 39.2693 41.9718 37.8909C42.5437 36.5126 42.6939 34.9956 42.4035 33.5319C42.1131 32.0682 41.3951 30.7234 40.3403 29.6678C39.2855 28.6122 37.9414 27.8932 36.4779 27.6016C35.0144 27.3101 33.4973 27.4591 32.1185 28.0299C30.7397 28.6007 29.5612 29.5676 28.732 30.8083C27.9957 31.91 27.5643 33.1836 27.4768 34.5H27.4548V35C27.4548 37.0007 28.2496 38.9195 29.6643 40.3342C31.0789 41.7489 32.9976 42.5436 34.9982 42.5437ZM34.9982 42.5437L34.9985 42.0437V42.5437C34.9984 42.5437 34.9983 42.5437 34.9982 42.5437ZM50.1642 39.7242C50.2319 40.0943 50.1657 40.4765 49.9775 40.8023L50.1642 39.7242ZM49.5445 40.5523L47.0839 44.8036L49.5445 40.5523ZM32.5379 19.6406L37.4585 19.6406C37.7146 19.6418 37.9622 19.7335 38.1573 19.8995C38.3526 20.0656 38.4827 20.2955 38.5248 20.5484C38.5248 20.5485 38.5248 20.5486 38.5248 20.5487L38.8446 22.5026L38.8444 22.5026L38.8469 22.5159C38.9141 22.8667 39.0651 23.1961 39.2871 23.4759L39.6656 23.1756L39.2871 23.4759C39.508 23.7543 39.7927 23.9755 40.1171 24.1207C40.7264 24.4066 41.3102 24.744 41.8622 25.1292C42.1521 25.3383 42.4885 25.4738 42.8424 25.5241C43.1979 25.5747 43.5604 25.5376 43.8984 25.4163L43.8984 25.4163L43.9058 25.4136L45.7624 24.7136L45.7628 24.7134C46.0031 24.6226 46.2678 24.6202 46.5098 24.7066C46.7517 24.7929 46.9551 24.9624 47.0836 25.1849L47.0838 25.1852L49.5445 29.4368C49.6731 29.6595 49.7184 29.9207 49.6721 30.1736C49.6258 30.4266 49.4911 30.6548 49.2919 30.8175L49.2913 30.818L47.7573 32.0759L47.7573 32.0758L47.7512 32.081C47.4775 32.3128 47.2645 32.608 47.1307 32.9408C46.9978 33.2716 46.9471 33.6296 46.983 33.9842C47.0092 34.3188 47.0247 34.6563 47.0247 34.9945C47.0247 35.3328 47.0092 35.6702 46.983 36.0049C46.9471 36.3595 46.9978 36.7175 47.1307 37.0483C47.2645 37.3811 47.4775 37.6763 47.7512 37.9081L47.7511 37.9082L47.7577 37.9135L49.2917 39.1686L49.2917 39.1686C49.4911 39.3318 49.6261 39.5605 49.6724 39.814C49.7187 40.0673 49.6734 40.3288 49.5447 40.5519L32.5379 19.6406ZM48.0743 32.4625L49.6083 31.2047L47.5247 34.9945C47.5247 34.6391 47.5083 34.2863 47.481 33.9391C47.4522 33.6632 47.4912 33.3846 47.5946 33.1272C47.698 32.8699 47.8627 32.6417 48.0743 32.4625Z" fill="white" stroke="black"/>
<path d="M0.5 69.5V0.5H69.5V69.5H0.5Z" stroke="black"/>
</svg>
