<svg width="57" height="58" viewBox="0 0 57 58" fill="none" xmlns="http://www.w3.org/2000/svg">
<path fill-rule="evenodd" clip-rule="evenodd" d="M39.1349 46.1997C38.8248 45.838 38.8671 45.2953 39.2289 44.9852C39.5906 44.6751 40.1333 44.7174 40.4434 45.0792L43.8215 49.0117L50.3898 41.1702C50.6952 40.8061 51.2379 40.7568 51.6043 41.0622C51.9684 41.3676 52.0178 41.9103 51.7124 42.2767L44.4933 50.8982C44.1527 51.3046 43.5255 51.3093 43.1778 50.9052L39.1349 46.1997ZM34.7513 50.5292C36.532 54.7507 40.6877 57.6094 45.4211 57.6094C51.8133 57.6094 56.9954 52.4271 56.9954 46.0351C56.9954 41.3015 54.1365 37.146 49.9153 35.3653L50.1009 34.7709L54.125 33.8689C54.5479 33.8125 54.8744 33.4507 54.8744 33.0114L54.8767 23.0861H54.8744C54.8744 22.6914 54.6019 22.3344 54.2002 22.2451L50.1079 21.3266C49.6404 19.7527 49.0015 18.2116 48.2192 16.7739L50.4485 13.2572C50.6835 12.9213 50.6506 12.4538 50.3499 12.1531L43.3305 5.13855C43.0509 4.859 42.607 4.80027 42.2593 5.02109L38.7097 7.2716C37.2697 6.48932 35.7334 5.85035 34.1594 5.38289L33.2573 1.36111C33.2009 0.938265 32.8392 0.611724 32.3999 0.611724L22.4746 0.609375V0.611724C22.0799 0.611724 21.7228 0.884224 21.6336 1.28594L20.7151 5.38054C19.1411 5.84802 17.6024 6.48697 16.1648 7.26926L12.6457 5.03757C12.3098 4.80266 11.8423 4.83554 11.5416 5.13624L4.52461 12.1556C4.24506 12.4352 4.18633 12.8792 4.40716 13.2268L6.65767 16.7764C5.87538 18.2164 5.23641 19.7528 4.76895 21.3291L0.68842 22.2429C0.296111 22.3227 0.000132442 22.6704 0.000132442 23.0862V32.9953C-0.00691521 33.397 0.267936 33.7611 0.674347 33.8504L4.76661 34.7665C5.23409 36.3428 5.87304 37.8792 6.65532 39.3192L4.42598 42.8383C4.19107 43.1742 4.22395 43.6417 4.52464 43.9424L11.5416 50.9593C11.8212 51.2389 12.2652 51.2976 12.6128 51.0768L16.1624 48.8263C17.6024 49.6086 19.1388 50.2475 20.7127 50.715L21.6148 54.7368C21.6712 55.1596 22.0329 55.4862 22.4723 55.4862H32.3975V55.4838C32.7922 55.4838 33.1493 55.2113 33.2385 54.8096L34.157 50.715L34.7513 50.5292ZM48.2849 34.8156L48.5786 33.8148H48.5809C48.6632 33.5165 48.9028 33.2722 49.2246 33.1994L53.1453 32.3208L53.1477 23.7745L49.2998 22.9124C48.9662 22.8677 48.6749 22.6281 48.5809 22.2828C48.1158 20.5702 47.3641 18.7144 46.4737 17.1921C46.3116 16.922 46.3046 16.5696 46.4855 16.2854L48.6397 12.8885L42.5975 6.84636L39.2077 8.99349C38.9446 9.16498 38.5969 9.18612 38.3079 9.01933C36.6964 8.09849 35.0074 7.39372 33.2055 6.90275V6.9004C32.9072 6.81818 32.6629 6.57856 32.5901 6.25673L31.7115 2.33599H23.1628L22.3006 6.18625C22.256 6.51983 22.0164 6.81115 21.6711 6.90509C19.9585 7.37023 18.105 8.12194 16.5828 9.01229C16.3126 9.17438 15.9602 9.18143 15.676 9.00054L12.2768 6.84638L6.23465 12.8885L8.38179 16.2783C8.55328 16.5415 8.57442 16.8891 8.40763 17.1781C7.48438 18.7896 6.78202 20.4787 6.29105 22.2828H6.2887C6.20647 22.5812 5.96686 22.8255 5.64503 22.8983L1.7196 23.7792V32.3255L5.5722 33.19C5.90579 33.2346 6.1971 33.4743 6.29104 33.8196C6.75618 35.5322 7.50789 37.388 8.39824 38.9102C8.56033 39.1804 8.56738 39.5328 8.38649 39.817L6.23233 43.2139L12.2721 49.256L15.6619 47.1065C15.925 46.935 16.2727 46.9139 16.5616 47.0807C18.1732 48.0015 19.8646 48.7063 21.664 49.1973V49.1996C21.9624 49.2818 22.2067 49.5215 22.2795 49.8433L23.1581 53.764H31.7068L32.5689 49.9161C32.6136 49.5825 32.8532 49.2912 33.1985 49.1973L34.1993 48.9036C33.7365 47.0901 33.7224 45.1685 34.157 43.3478C26.4262 46.7542 17.4499 43.8177 13.1415 36.7091C9.14796 30.1173 10.1957 21.6696 15.6199 16.2433C22.1438 9.71948 32.7197 9.71948 39.243 16.2433C44.0964 21.0967 45.5058 28.4611 42.7245 34.7805C44.5522 34.3412 46.4714 34.3552 48.2849 34.8156ZM40.3635 35.619C43.8027 29.7578 42.8442 22.2778 38.0261 17.4577C32.1766 11.6083 22.6955 11.6083 16.8458 17.4577C12.279 22.0245 11.1303 29.0506 14.0879 34.8462L17.4895 31.4447C18.2412 30.6929 18.5631 29.7579 18.4338 28.7032C17.8042 23.5797 21.3421 18.8506 26.4678 18.0496C28.434 17.7419 30.4778 18.0472 32.2914 18.9634C32.8998 19.2453 32.9726 19.9642 32.5662 20.3705L26.7732 26.1636L29.322 28.7124L35.1127 22.9217L35.1151 22.9241C35.5238 22.5153 36.2215 22.614 36.4894 23.1379C37.429 24.9655 37.7461 27.0328 37.4337 29.0178C36.6303 34.146 31.9038 37.6814 26.7801 37.0517C25.7254 36.9225 24.7904 37.2444 24.0387 37.9961L20.6371 41.3976C23.9541 43.0891 27.8537 43.4908 31.4855 42.4736C32.7329 42.1236 33.9122 41.6185 35.0046 40.9772C35.5707 39.812 36.3272 38.7549 37.2339 37.8504C38.1431 36.9437 39.1983 36.1875 40.3635 35.619ZM14.9904 36.3848L18.7091 32.6661C19.832 31.5432 20.3394 30.0726 20.1444 28.4963C19.442 22.7761 24.9461 18.2372 30.436 20.0582L24.9389 25.5553C24.6006 25.8935 24.6006 26.4386 24.9389 26.7768L28.7093 30.5472C29.0476 30.8855 29.5926 30.8855 29.9309 30.5472L35.4279 25.0502C37.2461 30.5402 32.7099 36.0441 26.9898 35.3417C25.4112 35.1491 23.943 35.6541 22.8177 36.777L19.099 40.4958C17.4781 39.4034 16.0804 38.0081 14.9904 36.3848ZM52.3846 39.0699C48.539 35.2243 42.3017 35.2243 38.4565 39.0699C34.6109 42.9154 34.6109 49.1503 38.4565 52.9956C42.302 56.8412 48.5393 56.8412 52.3846 52.9956C56.2302 49.1524 56.2302 42.9176 52.3846 39.0699Z" fill="white"/>
</svg>
