<svg width="62" height="56" viewBox="0 0 62 56" fill="none" xmlns="http://www.w3.org/2000/svg">
<path fill-rule="evenodd" clip-rule="evenodd" d="M46.1154 53.8138H44.1272V28.388C44.1272 27.7841 43.6568 27.2949 43.0582 27.2949H33.0739C32.4753 27.2949 32.0049 27.7841 32.0049 28.388V53.8138H30.0167V26.213C30.0167 25.6118 29.525 25.1199 28.9477 25.1199H18.9422C18.365 25.1199 17.8732 25.6118 17.8732 26.213V53.8138H15.885V34.3919C15.885 33.7879 15.4147 33.2988 14.816 33.2988H4.83172C4.2331 33.2988 3.76276 33.7879 3.76276 34.3919V53.8138H1.06897C0.491724 53.8138 0 54.303 0 54.9069C0 55.5081 0.491724 56 1.06897 56H60.931C61.5297 56 62 55.5081 62 54.9069C62 54.303 61.5297 53.8138 60.931 53.8138H58.2587V20.4169C58.2587 19.813 57.7883 19.3238 57.1897 19.3238H47.1842C46.6069 19.3238 46.1152 19.813 46.1152 20.4169L46.1154 53.8138ZM56.1209 53.8138V21.5097H48.2533V53.8138H56.1209ZM5.9011 53.8138H13.7475V35.4853H5.9011V53.8138ZM20.0114 53.8138H27.879V27.3057H20.0114V53.8138ZM41.9894 53.8138V29.4815H34.143V53.8138H41.9894ZM48.1894 6.32654L38.5259 16.211C37.8845 15.782 37.1149 15.5305 36.2811 15.5305C35.4474 15.5305 34.6777 15.7847 34.0149 16.2219L27.1949 9.24789C27.1735 9.23696 27.1735 9.22602 27.1521 9.21509C27.3873 8.69587 27.5156 8.12199 27.5156 7.52076C27.5156 5.19247 25.6555 3.30142 23.3894 3.30142C21.1018 3.30142 19.2632 5.19247 19.2632 7.52076C19.2632 8.1575 19.3915 8.76141 19.6481 9.30254L10.1769 18.9764C10.1127 19.0557 10.0486 19.1486 9.98445 19.247C9.36445 18.8699 8.65893 18.654 7.88927 18.654C5.60165 18.654 3.7631 20.545 3.7631 22.8733C3.7631 25.1989 5.60172 27.0899 7.88927 27.0899C10.1555 27.0899 12.0154 25.1989 12.0154 22.8733C12.0154 22.0863 11.8017 21.3484 11.4382 20.7199V20.7172C11.5237 20.668 11.6092 20.5997 11.6948 20.5204L21.0161 10.983C21.7003 11.4585 22.5127 11.7399 23.3893 11.7399C24.2872 11.7399 25.1424 11.4366 25.8051 10.9282L32.6037 17.8613C32.3044 18.4297 32.1548 19.0692 32.1548 19.7469C32.1548 22.0752 34.0148 23.9662 36.2809 23.9662C38.5686 23.9662 40.4071 22.0752 40.4071 19.7469C40.4071 19.061 40.2574 18.4133 39.9581 17.8394L49.7071 7.87028C50.3271 8.23101 51.0112 8.4387 51.7809 8.4387C54.0471 8.4387 55.907 6.54764 55.907 4.21935C55.907 1.89105 54.047 0 51.7809 0C49.4932 0 47.6547 1.89105 47.6547 4.21935C47.6547 4.98456 47.8473 5.70621 48.1894 6.32654ZM7.88955 20.8402C8.97993 20.8402 9.87779 21.7529 9.87779 22.8733C9.87779 23.9937 8.97986 24.9037 7.88955 24.9037C6.77782 24.9037 5.90131 23.9937 5.90131 22.8733C5.90131 21.7529 6.77782 20.8402 7.88955 20.8402ZM36.2813 17.7167C37.3717 17.7167 38.2695 18.6267 38.2695 19.7471C38.2695 20.8674 37.3716 21.7802 36.2813 21.7802C35.191 21.7802 34.293 20.8674 34.293 19.7471C34.293 18.6267 35.191 17.7167 36.2813 17.7167ZM23.3894 5.48787C24.4798 5.48787 25.3776 6.40062 25.3776 7.52101C25.3776 8.6442 24.4797 9.55415 23.3894 9.55415C22.2777 9.55415 21.4011 8.64413 21.4011 7.52101C21.4011 6.40055 22.2777 5.48787 23.3894 5.48787ZM51.7811 2.18666C52.8715 2.18666 53.7693 3.09669 53.7693 4.2198C53.7693 5.34026 52.8714 6.25294 51.7811 6.25294C50.6694 6.25294 49.7929 5.34019 49.7929 4.2198C49.7929 3.09662 50.6694 2.18666 51.7811 2.18666Z" fill="white"/>
</svg>
