<svg width="121" height="84" viewBox="0 0 121 84" fill="none" xmlns="http://www.w3.org/2000/svg">
<path fill-rule="evenodd" clip-rule="evenodd" d="M72 77C61.9872 77 50.6665 78.7121 41.0929 81.645C38.2174 82.526 35.1641 83 32 83C14.8792 83 1 69.1208 1 52C1 34.8792 14.8792 21 32 21C32.5997 21 33.1422 20.6377 33.3728 20.0842C38.0428 8.87764 49.1014 1 62 1C72.4708 1 81.7291 6.19126 87.3416 14.1404C87.7217 14.6789 88.3409 15 89 15C106.121 15 120 28.8792 120 46C120 63.1208 106.121 77 89 77C88.4025 77 87.8089 76.9831 87.2197 76.9497C82.7635 76.6974 78.2365 76.6974 73.7803 76.9497C73.1911 76.9831 72.5975 77 72 77Z" fill="black"/>
<path d="M87.3416 14.1404L86.7289 14.573L87.3416 14.1404ZM33.3728 20.0842L34.0651 20.3727L33.3728 20.0842ZM40.8733 80.9279C38.0682 81.7873 35.0888 82.25 32 82.25V83.75C35.2394 83.75 38.3667 83.2646 41.3126 82.3621L40.8733 80.9279ZM32 82.25C15.2934 82.25 1.75 68.7066 1.75 52H0.25C0.25 69.535 14.465 83.75 32 83.75V82.25ZM1.75 52C1.75 35.2934 15.2934 21.75 32 21.75V20.25C14.465 20.25 0.25 34.465 0.25 52H1.75ZM34.0651 20.3727C38.6227 9.43581 49.4147 1.75 62 1.75V0.25C48.7882 0.25 37.4629 8.31948 32.6805 19.7957L34.0651 20.3727ZM62 1.75C72.2169 1.75 81.2509 6.81435 86.7289 14.573L87.9542 13.7079C82.2073 5.56818 72.7247 0.25 62 0.25V1.75ZM89 15.75C105.707 15.75 119.25 29.2934 119.25 46H120.75C120.75 28.465 106.535 14.25 89 14.25V15.75ZM119.25 46C119.25 62.7066 105.707 76.25 89 76.25V77.75C106.535 77.75 120.75 63.535 120.75 46H119.25ZM89 76.25C88.4166 76.25 87.8372 76.2335 87.2621 76.2009L87.1773 77.6985C87.7806 77.7327 88.3883 77.75 89 77.75V76.25ZM73.7379 76.2009C73.1628 76.2335 72.5834 76.25 72 76.25V77.75C72.6117 77.75 73.2194 77.7327 73.8227 77.6985L73.7379 76.2009ZM86.7289 14.573C87.2494 15.3103 88.097 15.75 89 15.75V14.25C88.5848 14.25 88.194 14.0475 87.9542 13.7079L86.7289 14.573ZM32 21.75C32.903 21.75 33.7182 21.2052 34.0651 20.3727L32.6805 19.7957C32.5661 20.0703 32.2964 20.25 32 20.25V21.75ZM87.2621 76.2009C82.7776 75.947 78.2224 75.947 73.7379 76.2009L73.8227 77.6985C78.2507 77.4478 82.7493 77.4478 87.1773 77.6985L87.2621 76.2009ZM41.3126 82.3621C50.8158 79.4508 62.0625 77.75 72 77.75V76.25C61.912 76.25 50.5173 77.9734 40.8733 80.9279L41.3126 82.3621Z" fill="url(#paint0_linear_191_39)"/>
<path d="M54.4868 36.192C53.6014 36.192 52.7801 36.048 52.0228 35.76C51.2761 35.472 50.6254 35.0667 50.0707 34.544C49.5268 34.0213 49.1001 33.408 48.7908 32.704C48.4921 32 48.3428 31.232 48.3428 30.4C48.3428 29.568 48.4921 28.8 48.7908 28.096C49.1001 27.392 49.5321 26.7787 50.0868 26.256C50.6414 25.7333 51.2921 25.328 52.0388 25.04C52.7854 24.752 53.5961 24.608 54.4708 24.608C55.3561 24.608 56.1667 24.752 56.9028 25.04C57.6494 25.328 58.2948 25.7333 58.8388 26.256C59.3934 26.7787 59.8254 27.392 60.1348 28.096C60.4441 28.7893 60.5988 29.5573 60.5988 30.4C60.5988 31.232 60.4441 32.0053 60.1348 32.72C59.8254 33.424 59.3934 34.0373 58.8388 34.56C58.2948 35.072 57.6494 35.472 56.9028 35.76C56.1667 36.048 55.3614 36.192 54.4868 36.192ZM54.4708 33.984C54.9721 33.984 55.4308 33.8987 55.8468 33.728C56.2734 33.5573 56.6468 33.312 56.9668 32.992C57.2868 32.672 57.5321 32.2933 57.7028 31.856C57.8841 31.4187 57.9748 30.9333 57.9748 30.4C57.9748 29.8667 57.8841 29.3813 57.7028 28.944C57.5321 28.5067 57.2868 28.128 56.9668 27.808C56.6574 27.488 56.2894 27.2427 55.8628 27.072C55.4361 26.9013 54.9721 26.816 54.4708 26.816C53.9694 26.816 53.5054 26.9013 53.0788 27.072C52.6628 27.2427 52.2948 27.488 51.9748 27.808C51.6548 28.128 51.4041 28.5067 51.2228 28.944C51.0521 29.3813 50.9668 29.8667 50.9668 30.4C50.9668 30.9227 51.0521 31.408 51.2228 31.856C51.4041 32.2933 51.6494 32.672 51.9588 32.992C52.2788 33.312 52.6521 33.5573 53.0788 33.728C53.5054 33.8987 53.9694 33.984 54.4708 33.984ZM67.6028 27.264C68.2854 27.264 68.8934 27.4027 69.4268 27.68C69.9708 27.9467 70.3974 28.3627 70.7068 28.928C71.0161 29.4827 71.1708 30.1973 71.1708 31.072V36H68.6748V31.456C68.6748 30.7627 68.5201 30.2507 68.2108 29.92C67.9121 29.5893 67.4854 29.424 66.9308 29.424C66.5361 29.424 66.1788 29.5093 65.8588 29.68C65.5494 29.84 65.3041 30.0907 65.1228 30.432C64.9521 30.7733 64.8668 31.2107 64.8668 31.744V36H62.3708V27.392H64.7548V29.776L64.3068 29.056C64.6161 28.48 65.0588 28.0373 65.6348 27.728C66.2108 27.4187 66.8668 27.264 67.6028 27.264ZM42.1411 56.192C41.2771 56.192 40.4718 56.0533 39.7251 55.776C38.9891 55.488 38.3491 55.0827 37.8051 54.56C37.2611 54.0373 36.8345 53.424 36.5251 52.72C36.2265 52.016 36.0771 51.2427 36.0771 50.4C36.0771 49.5573 36.2265 48.784 36.5251 48.08C36.8345 47.376 37.2611 46.7627 37.8051 46.24C38.3598 45.7173 39.0051 45.3173 39.7411 45.04C40.4771 44.752 41.2825 44.608 42.1571 44.608C43.1278 44.608 44.0025 44.7787 44.7811 45.12C45.5705 45.4507 46.2318 45.9413 46.7651 46.592L45.1011 48.128C44.7171 47.6907 44.2905 47.3653 43.8211 47.152C43.3518 46.928 42.8398 46.816 42.2851 46.816C41.7625 46.816 41.2825 46.9013 40.8451 47.072C40.4078 47.2427 40.0291 47.488 39.7091 47.808C39.3891 48.128 39.1385 48.5067 38.9571 48.944C38.7865 49.3813 38.7011 49.8667 38.7011 50.4C38.7011 50.9333 38.7865 51.4187 38.9571 51.856C39.1385 52.2933 39.3891 52.672 39.7091 52.992C40.0291 53.312 40.4078 53.5573 40.8451 53.728C41.2825 53.8987 41.7625 53.984 42.2851 53.984C42.8398 53.984 43.3518 53.8773 43.8211 53.664C44.2905 53.44 44.7171 53.104 45.1011 52.656L46.7651 54.192C46.2318 54.8427 45.5705 55.3387 44.7811 55.68C44.0025 56.0213 43.1225 56.192 42.1411 56.192ZM48.3395 56V44.128H50.8355V56H48.3395ZM57.248 56.128C56.3307 56.128 55.5147 55.936 54.8 55.552C54.096 55.168 53.536 54.6453 53.12 53.984C52.7147 53.312 52.512 52.5493 52.512 51.696C52.512 50.832 52.7147 50.0693 53.12 49.408C53.536 48.736 54.096 48.2133 54.8 47.84C55.5147 47.456 56.3307 47.264 57.248 47.264C58.1547 47.264 58.9653 47.456 59.68 47.84C60.3947 48.2133 60.9547 48.7307 61.36 49.392C61.7653 50.0533 61.968 50.8213 61.968 51.696C61.968 52.5493 61.7653 53.312 61.36 53.984C60.9547 54.6453 60.3947 55.168 59.68 55.552C58.9653 55.936 58.1547 56.128 57.248 56.128ZM57.248 54.08C57.664 54.08 58.0373 53.984 58.368 53.792C58.6987 53.6 58.96 53.328 59.152 52.976C59.344 52.6133 59.44 52.1867 59.44 51.696C59.44 51.1947 59.344 50.768 59.152 50.416C58.96 50.064 58.6987 49.792 58.368 49.6C58.0373 49.408 57.664 49.312 57.248 49.312C56.832 49.312 56.4587 49.408 56.128 49.6C55.7973 49.792 55.5307 50.064 55.328 50.416C55.136 50.768 55.04 51.1947 55.04 51.696C55.04 52.1867 55.136 52.6133 55.328 52.976C55.5307 53.328 55.7973 53.6 56.128 53.792C56.4587 53.984 56.832 54.08 57.248 54.08ZM67.2684 56.128C66.5537 56.128 65.9137 55.9893 65.3484 55.712C64.7937 55.4347 64.3617 55.0133 64.0524 54.448C63.743 53.872 63.5884 53.1413 63.5884 52.256V47.392H66.0844V51.888C66.0844 52.6027 66.2337 53.1307 66.5324 53.472C66.8417 53.8027 67.2737 53.968 67.8284 53.968C68.2124 53.968 68.5537 53.888 68.8524 53.728C69.151 53.5573 69.3857 53.3013 69.5564 52.96C69.727 52.608 69.8124 52.1707 69.8124 51.648V47.392H72.3084V56H69.9404V53.632L70.3724 54.32C70.0844 54.9173 69.6577 55.3707 69.0924 55.68C68.5377 55.9787 67.9297 56.128 67.2684 56.128ZM78.3168 56.128C77.5061 56.128 76.7754 55.9467 76.1248 55.584C75.4741 55.2107 74.9568 54.6933 74.5728 54.032C74.1994 53.3707 74.0128 52.592 74.0128 51.696C74.0128 50.7893 74.1994 50.0053 74.5728 49.344C74.9568 48.6827 75.4741 48.1707 76.1248 47.808C76.7754 47.4453 77.5061 47.264 78.3168 47.264C79.0421 47.264 79.6768 47.424 80.2208 47.744C80.7648 48.064 81.1861 48.5493 81.4848 49.2C81.7834 49.8507 81.9328 50.6827 81.9328 51.696C81.9328 52.6987 81.7888 53.5307 81.5008 54.192C81.2128 54.8427 80.7968 55.328 80.2528 55.648C79.7194 55.968 79.0741 56.128 78.3168 56.128ZM78.7488 54.08C79.1541 54.08 79.5221 53.984 79.8528 53.792C80.1834 53.6 80.4448 53.328 80.6368 52.976C80.8394 52.6133 80.9408 52.1867 80.9408 51.696C80.9408 51.1947 80.8394 50.768 80.6368 50.416C80.4448 50.064 80.1834 49.792 79.8528 49.6C79.5221 49.408 79.1541 49.312 78.7488 49.312C78.3328 49.312 77.9594 49.408 77.6288 49.6C77.2981 49.792 77.0314 50.064 76.8288 50.416C76.6368 50.768 76.5408 51.1947 76.5408 51.696C76.5408 52.1867 76.6368 52.6133 76.8288 52.976C77.0314 53.328 77.2981 53.6 77.6288 53.792C77.9594 53.984 78.3328 54.08 78.7488 54.08ZM81.0048 56V54.24L81.0528 51.68L80.8928 49.136V44.128H83.3888V56H81.0048Z" fill="white"/>
<defs>
<linearGradient id="paint0_linear_191_39" x1="5.31343" y1="16.8563" x2="110.082" y2="29.1479" gradientUnits="userSpaceOnUse">
<stop stop-color="#F5841F"/>
<stop offset="0.364047" stop-color="#EBC554"/>
<stop offset="0.585816" stop-color="#00B3A6"/>
<stop offset="1" stop-color="#5B5FD1"/>
</linearGradient>
</defs>
</svg>
