<svg width="145" height="188" viewBox="0 0 145 188" fill="none" xmlns="http://www.w3.org/2000/svg">
<path d="M25.2306 80.9574V83.4574H22.7306H14.5793C7.70891 83.4574 2.52344 88.5775 2.52344 94.9156V173.081C2.52344 179.419 7.70891 184.54 14.5793 184.54H130.444C137.315 184.54 142.5 179.419 142.5 173.081V94.9156C142.5 88.5775 137.315 83.4574 130.444 83.4574H122.293H119.793V80.9574V47.4578C119.793 22.7135 98.3243 2.5 72.8028 2.5C46.6798 2.5 25.2306 22.7319 25.2306 47.4578V80.9574ZM116.059 80.9574V83.4574H113.559H31.4641H28.9641V80.9574V47.4578C28.9641 24.1596 48.8621 5.87491 72.8028 5.87491C96.2087 5.87491 116.059 24.7629 116.059 47.4578V80.9574ZM130.444 86.274C135.529 86.274 138.766 90.4054 138.766 94.9156V173.081C138.766 175.357 137.962 177.432 136.396 178.934C134.839 180.426 132.728 181.165 130.444 181.165H14.5793C12.2952 181.165 10.1843 180.426 8.62778 178.934C7.06178 177.432 6.25696 175.357 6.25696 173.081V94.9156C6.25696 90.4054 9.4946 86.274 14.5793 86.274H14.8045H15.0297H15.2549H15.4801H15.7053H15.9305H16.1558H16.381H16.6063H16.8316H17.0569H17.2822H17.5075H17.7329H17.9582H18.1836H18.4089H18.6343H18.8597H19.0851H19.3106H19.536H19.7614H19.9869H20.2124H20.4379H20.6634H20.8889H21.1144H21.3399H21.5655H21.791H22.0166H22.2422H22.4678H22.6934H22.919H23.1446H23.3702H23.5959H23.8215H24.0472H24.2729H24.4986H24.7243H24.95H25.1757H25.4015H25.6272H25.853H26.0787H26.3045H26.5303H26.7561H26.9819H27.2077H27.4335H27.6594H27.8852H28.1111H28.337H28.5629H28.7887H29.0147H29.2406H29.4665H29.6924H29.9184H30.1443H30.3703H30.5962H30.8222H31.0482H31.2742H31.5002H31.7262H31.9523H32.1783H32.4044H32.6304H32.8565H33.0826H33.3086H33.5347H33.7608H33.9869H34.2131H34.4392H34.6653H34.8915H35.1176H35.3438H35.57H35.7961H36.0223H36.2485H36.4747H36.7009H36.9272H37.1534H37.3796H37.6059H37.8321H38.0584H38.2847H38.5109H38.7372H38.9635H39.1898H39.4161H39.6424H39.8688H40.0951H40.3214H40.5478H40.7741H41.0005H41.2269H41.4532H41.6796H41.906H42.1324H42.3588H42.5852H42.8116H43.0381H43.2645H43.4909H43.7174H43.9438H44.1703H44.3967H44.6232H44.8497H45.0762H45.3027H45.5292H45.7557H45.9822H46.2087H46.4352H46.6617H46.8883H47.1148H47.3413H47.5679H47.7944H48.021H48.2476H48.4741H48.7007H48.9273H49.1539H49.3805H49.6071H49.8337H50.0603H50.2869H50.5135H50.7402H50.9668H51.1934H51.4201H51.6467H51.8734H52.1H52.3267H52.5533H52.78H53.0067H53.2333H53.46H53.6867H53.9134H54.1401H54.3668H54.5935H54.8202H55.0469H55.2736H55.5004H55.7271H55.9538H56.1805H56.4073H56.634H56.8607H57.0875H57.3142H57.541H57.7677H57.9945H58.2213H58.448H58.6748H58.9016H59.1283H59.3551H59.5819H59.8087H60.0355H60.2623H60.4891H60.7159H60.9426H61.1694H61.3962H61.6231H61.8499H62.0767H62.3035H62.5303H62.7571H62.9839H63.2108H63.4376H63.6644H63.8912H64.1181H64.3449H64.5717H64.7986H65.0254H65.2523H65.4791H65.7059H65.9328H66.1596H66.3865H66.6133H66.8402H67.067H67.2939H67.5207H67.7476H67.9744H68.2013H68.4282H68.655H68.8819H69.1087H69.3356H69.5625H69.7893H70.0162H70.2431H70.4699H70.6968H70.9237H71.1505H71.3774H71.6042H71.8311H72.058H72.2849H72.5117H72.7386H72.9654H73.1923H73.4192H73.646H73.8729H74.0998H74.3266H74.5535H74.7804H75.0072H75.2341H75.461H75.6878H75.9147H76.1416H76.3684H76.5953H76.8221H77.049H77.2758H77.5027H77.7296H77.9564H78.1833H78.4101H78.637H78.8638H79.0906H79.3175H79.5443H79.7712H79.998H80.2249H80.4517H80.6785H80.9054H81.1322H81.359H81.5858H81.8127H82.0395H82.2663H82.4931H82.7199H82.9468H83.1736H83.4004H83.6272H83.854H84.0808H84.3076H84.5344H84.7612H84.988H85.2147H85.4415H85.6683H85.8951H86.1219H86.3486H86.5754H86.8022H87.0289H87.2557H87.4824H87.7092H87.9359H88.1627H88.3894H88.6162H88.8429H89.0696H89.2964H89.5231H89.7498H89.9765H90.2032H90.4299H90.6566H90.8833H91.11H91.3367H91.5634H91.7901H92.0168H92.2434H92.4701H92.6968H92.9234H93.1501H93.3767H93.6034H93.83H94.0566H94.2833H94.5099H94.7365H94.9631H95.1897H95.4163H95.6429H95.8695H96.0961H96.3227H96.5493H96.7759H97.0024H97.229H97.4555H97.6821H97.9086H98.1352H98.3617H98.5882H98.8148H99.0413H99.2678H99.4943H99.7208H99.9473H100.174H100.4H100.627H100.853H101.08H101.306H101.533H101.759H101.985H102.212H102.438H102.665H102.891H103.117H103.344H103.57H103.797H104.023H104.249H104.476H104.702H104.928H105.155H105.381H105.607H105.834H106.06H106.286H106.512H106.739H106.965H107.191H107.418H107.644H107.87H108.096H108.322H108.549H108.775H109.001H109.227H109.453H109.68H109.906H110.132H110.358H110.584H110.81H111.036H111.263H111.489H111.715H111.941H112.167H112.393H112.619H112.845H113.071H113.297H113.523H113.749H113.975H114.201H114.427H114.653H114.879H115.105H115.331H115.557H115.783H116.009H116.235H116.461H116.686H116.912H117.138H117.364H117.59H117.816H118.042H118.267H118.493H118.719H118.945H119.17H119.396H119.622H119.848H120.073H120.299H120.525H120.751H120.976H121.202H121.428H121.653H121.879H122.104H122.33H122.556H122.781H123.007H123.232H123.458H123.684H123.909H124.135H124.36H124.586H124.811H125.037H125.262H125.487H125.713H125.938H126.164H126.389H126.614H126.84H127.065H127.291H127.516H127.741H127.967H128.192H128.417H128.642H128.868H129.093H129.318H129.543H129.769H129.994H130.219H130.444Z" fill="white" stroke="white" stroke-width="5"/>
<rect x="-0.5" y="0.5" width="131.167" height="91.124" rx="2.5" transform="matrix(-1 0 0 1 137.592 88.2119)" stroke="white"/>
<path d="M89.4323 156.224C89.6576 157.414 89.3258 158.64 88.5313 159.567C87.7327 160.496 86.5532 161.034 85.3081 161.034H59.7112C58.4662 161.034 57.2866 160.496 56.488 159.567C55.6935 158.64 55.3618 157.414 55.587 156.224L59.6948 134.411C57.0163 131.422 55.5174 127.608 55.5174 123.641C55.5174 114.536 63.1391 107.128 72.5097 107.128C81.8802 107.128 89.502 114.536 89.502 123.641C89.502 127.608 88.003 131.422 85.3245 134.411L89.4323 156.224ZM72.5097 115.278C67.7671 115.278 63.905 119.028 63.905 123.641C63.905 126.076 64.9862 128.316 66.948 129.952C68.0783 130.895 68.6107 132.352 68.3404 133.778L64.7405 152.884H80.2789L76.6789 133.778C76.4086 132.352 76.941 130.895 78.0714 129.952C80.0331 128.316 81.1143 126.076 81.1143 123.641C81.1143 119.028 77.2523 115.278 72.5097 115.278Z" fill="white"/>
</svg>
