<svg width="140" height="188" viewBox="0 0 140 188" fill="none" xmlns="http://www.w3.org/2000/svg">
<path d="M70.6489 7.79333C93.7181 7.79333 112.483 25.9752 112.483 48.3259C112.483 50.4778 114.282 52.2226 116.505 52.2226C118.727 52.2226 120.526 50.4778 120.526 48.3259C120.526 21.679 98.1521 0 70.6489 0C43.1497 0 20.7756 21.679 20.7756 48.3259V86.6856H10.6941C4.79921 86.6856 0 91.3338 0 97.0475V176.678C0 182.392 4.79921 187.04 10.6941 187.04H128.326C134.221 187.04 139.02 182.392 139.02 176.678V97.0475C139.02 91.3338 134.221 86.6856 128.326 86.6856H28.8188V48.3259C28.8188 25.9752 47.5837 7.79333 70.6489 7.79333ZM128.326 94.4789C129.787 94.4789 130.977 95.632 130.977 97.0475V176.678C130.977 178.094 129.787 179.247 128.326 179.247H10.6941C9.23318 179.247 8.04319 178.094 8.04319 176.678V97.0475C8.04319 95.632 9.23318 94.4789 10.6941 94.4789H128.326Z" fill="white"/>
<path d="M53.0668 159.096C52.8508 160.286 53.1689 161.512 53.9308 162.439C54.6966 163.368 55.8277 163.906 57.0216 163.906H81.5675C82.7614 163.906 83.8925 163.368 84.6583 162.439C85.4202 161.512 85.7383 160.286 85.5223 159.096L81.5832 137.283C84.1517 134.295 85.5891 130.48 85.5891 126.513C85.5891 117.408 78.2803 110 69.2945 110C60.3088 110 53 117.408 53 126.513C53 130.48 54.4374 134.295 57.0059 137.283L53.0668 159.096ZM69.2945 118.15C73.8424 118.15 77.5459 121.901 77.5459 126.513C77.5459 128.948 76.5091 131.189 74.6279 132.824C73.5439 133.767 73.0334 135.224 73.2926 136.65L76.7447 155.756H61.8444L65.2965 136.65C65.5557 135.224 65.0452 133.767 63.9612 132.824C62.08 131.189 61.0432 128.948 61.0432 126.513C61.0432 121.901 64.7467 118.15 69.2945 118.15Z" fill="white"/>
<rect x="5.12109" y="93.4375" width="127.637" height="86.675" rx="1.5" stroke="black"/>
</svg>
