<svg width="64" height="64" viewBox="0 0 64 64" fill="none" xmlns="http://www.w3.org/2000/svg">
<path d="M62.7018 16.1198C62.3218 15.6498 61.7618 15.3798 61.1618 15.3798H57.5818V7.35984C57.5818 6.35984 56.7718 5.54984 55.7718 5.54984H23.8618C23.7518 5.54984 23.6518 5.49984 23.5818 5.40984L20.3318 1.06984C19.9918 0.619844 19.4518 0.339844 18.8818 0.339844H7.37179C6.37179 0.339844 5.56179 1.14984 5.56179 2.14984V15.3798H1.98179C1.38179 15.3798 0.821788 15.6498 0.441788 16.1198C0.0617876 16.5898 -0.0782124 17.1898 0.0417876 17.7798L5.37179 42.8798C5.56179 43.7898 6.38179 44.4498 7.31179 44.4498H8.24179C8.64179 44.4498 8.97179 44.1198 8.97179 43.7198C8.97179 43.3198 8.64179 42.9898 8.24179 42.9898H7.31179C7.06179 42.9898 6.85179 42.8198 6.80179 42.5698L1.47179 17.4798C1.42179 17.2598 1.51179 17.1098 1.57179 17.0398C1.63179 16.9698 1.76179 16.8498 1.98179 16.8498H61.1618C61.3818 16.8498 61.5118 16.9698 61.5718 17.0398C61.6318 17.1098 61.7218 17.2698 61.6818 17.4798L56.3518 42.5898C56.2918 42.8198 56.0718 42.9998 55.8318 42.9998C55.4318 42.9998 55.1018 43.3298 55.1018 43.7298C55.1018 44.1298 55.4318 44.4598 55.8318 44.4598C56.7618 44.4598 57.5818 43.7998 57.7718 42.8898L63.1018 17.7898C63.2318 17.1898 63.0818 16.5898 62.7018 16.1198ZM7.02179 2.14984C7.02179 1.95984 7.18179 1.79984 7.37179 1.79984H18.8818C18.9918 1.79984 19.0918 1.84984 19.1618 1.93984L22.4118 6.27984C22.7518 6.72984 23.2918 7.00984 23.8618 7.00984H55.7718C55.9618 7.00984 56.1218 7.16984 56.1218 7.35984V15.3798H51.4018V12.4898C51.4018 11.3098 50.4418 10.3398 49.2518 10.3398H13.9018C12.7218 10.3398 11.7518 11.2998 11.7518 12.4898V15.3798H7.02179V2.14984ZM49.9318 15.3798H13.2118V12.4898C13.2118 12.1098 13.5218 11.7998 13.9018 11.7998H49.2518C49.6318 11.7998 49.9418 12.1098 49.9418 12.4898V15.3798H49.9318Z" fill="white"/>
<path d="M26.7027 43C26.3027 43 25.9727 43.33 25.9727 43.73C25.9727 44.13 26.3027 44.46 26.7027 44.46H36.3527C36.7527 44.46 37.0827 44.13 37.0827 43.73C37.0827 43.33 36.7527 43 36.3527 43H26.7027Z" fill="white"/>
<path d="M22.0625 51.1797H12.0325C8.0525 51.1797 4.8125 54.4197 4.8125 58.3997V62.9397C4.8125 63.3397 5.1425 63.6697 5.5425 63.6697H28.5425C28.9425 63.6697 29.2725 63.3397 29.2725 62.9397V58.3997C29.2825 54.4097 26.0425 51.1797 22.0625 51.1797ZM19.2925 52.6397L17.0525 56.3497L14.8125 52.6397H19.2925ZM27.8225 62.1997H24.5525V59.9797C24.5525 59.5797 24.2225 59.2497 23.8225 59.2497C23.4225 59.2497 23.0925 59.5797 23.0925 59.9797V62.1997H11.0025V59.9797C11.0025 59.5797 10.6725 59.2497 10.2725 59.2497C9.8725 59.2497 9.5425 59.5797 9.5425 59.9797V62.1997H6.2825V58.3897C6.2825 55.2197 8.8625 52.6397 12.0325 52.6397H13.1025L16.4225 58.1397C16.5525 58.3597 16.7925 58.4897 17.0525 58.4897C17.3125 58.4897 17.5425 58.3597 17.6825 58.1397L21.0025 52.6397H22.0725C25.2425 52.6397 27.8225 55.2197 27.8225 58.3897V62.1997Z" fill="white"/>
<path d="M51.1094 51.1797H41.0794C37.0994 51.1797 33.8594 54.4197 33.8594 58.3997V62.9397C33.8594 63.3397 34.1894 63.6697 34.5894 63.6697H57.5894C57.9894 63.6697 58.3194 63.3397 58.3194 62.9397V58.3997C58.3194 54.4097 55.0894 51.1797 51.1094 51.1797ZM48.3294 52.6397L46.0894 56.3497L43.8494 52.6397H48.3294ZM56.8594 62.1997H53.5894V59.9797C53.5894 59.5797 53.2594 59.2497 52.8594 59.2497C52.4594 59.2497 52.1294 59.5797 52.1294 59.9797V62.1997H40.0494V59.9797C40.0494 59.5797 39.7194 59.2497 39.3194 59.2497C38.9194 59.2497 38.5894 59.5797 38.5894 59.9797V62.1997H35.3194V58.3897C35.3194 55.2197 37.8994 52.6397 41.0694 52.6397H42.1394L45.4594 58.1397C45.5894 58.3597 45.8294 58.4897 46.0894 58.4897C46.3494 58.4897 46.5794 58.3597 46.7194 58.1397L50.0394 52.6397H51.1094C54.2794 52.6397 56.8594 55.2197 56.8594 58.3897V62.1997Z" fill="white"/>
<path d="M31.9144 22.0195C31.5144 22.0195 31.1844 22.3495 31.1844 22.7495V28.2695H19.6144C18.1744 28.2695 16.9944 29.4395 16.9944 30.8895V34.8695C13.1244 34.8995 9.98438 38.0595 9.98438 41.9395C9.98438 45.8395 13.1544 49.0095 17.0544 49.0095C20.9544 49.0095 24.1244 45.8395 24.1244 41.9395C24.1244 38.5195 21.6844 35.6595 18.4544 35.0095V30.8895C18.4544 30.2495 18.9744 29.7295 19.6144 29.7295H31.9144H44.2144C44.8544 29.7295 45.3744 30.2495 45.3744 30.8895V34.9095C41.8144 35.2795 39.0344 38.2895 39.0344 41.9395C39.0344 45.8395 42.2044 49.0095 46.1044 49.0095C50.0044 49.0095 53.1744 45.8395 53.1744 41.9395C53.1744 38.2895 50.3944 35.2695 46.8344 34.9095V30.8895C46.8344 29.4495 45.6644 28.2695 44.2144 28.2695H32.6444V22.7495C32.6444 22.3495 32.3144 22.0195 31.9144 22.0195ZM22.6644 41.9395C22.6644 45.0295 20.1444 47.5495 17.0544 47.5495C13.9644 47.5495 11.4444 45.0295 11.4444 41.9395C11.4444 38.8495 13.9644 36.3295 17.0544 36.3295C20.1444 36.3295 22.6644 38.8495 22.6644 41.9395ZM51.7044 41.9395C51.7044 45.0295 49.1844 47.5495 46.0944 47.5495C43.0044 47.5495 40.4844 45.0295 40.4844 41.9395C40.4844 38.8495 43.0044 36.3295 46.0944 36.3295C49.1944 36.3295 51.7044 38.8495 51.7044 41.9395Z" fill="white"/>
</svg>
