<svg width="61" height="57" viewBox="0 0 61 57" fill="none" xmlns="http://www.w3.org/2000/svg">
<path d="M16.5101 36.9318C14.7202 37.1592 12.9949 38.2903 12.0046 40.4963C11.9485 40.6142 11.8531 40.7209 11.7241 40.777C11.4435 40.9005 11.1125 40.7714 10.9835 40.4963C9.99319 38.2903 8.26791 37.1592 6.47805 36.9318C4.6882 36.7045 2.87594 37.3753 1.64713 38.6944C0.283734 40.1595 -0.417642 42.4694 0.345426 45.4473C1.48439 49.8876 7.70679 54.4346 11.4938 56.6239C15.281 54.4346 21.5009 49.8878 22.6399 45.4473C23.403 42.4666 22.7017 40.1567 21.3382 38.6944C20.1123 37.3781 18.2999 36.7045 16.5101 36.9318ZM38.4591 27.9417H21.9438C19.9997 28.3403 18.9757 29.6538 19.3572 31.6185C19.447 32.0872 19.6209 32.5784 19.8678 33.0668C20.7655 34.835 22.2693 36.3646 24.1095 37.4453C27.8968 39.6766 32.5087 39.6766 36.3021 37.4453C38.1424 36.3619 39.6461 34.8322 40.541 33.0668C40.7935 32.5784 40.9618 32.09 41.0544 31.6185C41.4303 29.651 40.4061 28.3375 38.4591 27.9417ZM31.844 12.9089C28.9152 12.0023 25.7956 13.6442 24.8894 16.5801C23.9833 19.5103 25.6244 22.6314 28.5589 23.5379C31.4877 24.4473 34.6074 22.8026 35.5135 19.8695C36.4224 16.9337 34.7785 13.8126 31.844 12.9089ZM58.3105 47.2181H43.6689C42.7824 47.4006 41.9351 47.8384 41.562 48.7141C41.1581 49.6628 41.4302 50.7854 41.8762 51.6696C42.6674 53.2301 43.9915 54.5773 45.613 55.5316C48.957 57.4963 53.0189 57.4963 56.3664 55.5316C57.9879 54.5773 59.312 53.2301 60.1031 51.6696C60.552 50.7882 60.8269 49.6599 60.4229 48.7141C60.0442 47.8384 59.1998 47.4006 58.3105 47.2181ZM52.4304 33.881C49.8662 33.0895 47.1338 34.5265 46.337 37.0947C45.5403 39.6628 46.9823 42.3994 49.5492 43.1909C52.1162 43.988 54.8514 42.5454 55.6426 39.9772C56.4365 37.4063 54.9973 34.6753 52.4304 33.881ZM11.5723 38.9387C12.6327 37.2799 14.1252 36.306 15.7158 35.9355C11.9342 32.3597 7.08112 26.8614 5.86309 22.1098C5.31884 19.9823 5.04393 17.6949 5.27957 15.4859C5.65268 11.9775 7.34434 8.87331 10.4078 7.03182C13.5667 5.14011 17.584 5.0222 20.7259 7.03744C22.5747 8.22184 24.0335 10.0518 25.0238 12.2467C25.2483 12.6733 25.3997 13.0045 25.6242 13.3582C27.3215 11.7668 29.7958 11.1072 32.172 11.8425C33.1623 12.1485 34.0348 12.6677 34.7445 13.3245C34.9577 12.9933 35.1541 12.6368 35.3056 12.2804C36.2987 10.0743 37.7631 8.23032 39.6203 7.03744C42.7623 5.02501 46.7797 5.14012 49.9441 7.03182C53.0076 8.87303 54.6937 11.9744 55.0696 15.4859C55.5241 19.71 54.4131 23.5412 52.1632 27.0835C49.0856 31.9307 44.544 36.3287 40.0776 39.8818C37.031 42.304 33.7767 44.5156 30.4748 46.5253C30.3037 46.6319 30.0764 46.6431 29.8857 46.5309C27.9219 45.3352 25.9694 44.0666 24.0673 42.725C24.1009 43.6484 23.9999 44.6504 23.725 45.7282C23.5623 46.3653 23.2537 47.1147 22.7768 47.9511C25.0351 49.4864 27.4955 51.0301 30.1719 52.5598C36.5654 48.8998 41.7361 45.1892 45.8484 41.6189C45.0067 40.2127 44.743 38.4585 45.2649 36.7717C46.2411 33.6085 49.5964 31.8347 52.7555 32.8142C53.1651 32.9433 53.5466 33.1089 53.9085 33.3082C56.9889 29.3985 58.7002 25.9657 59.3679 23.3668C61.3877 15.4853 59.5137 9.33627 55.8667 5.41531C52.5563 1.85642 47.6694 0.0404329 42.8382 0.655125C38.0073 1.26418 33.3503 4.30664 30.6851 10.2179C30.4831 10.667 29.8604 10.6557 29.6583 10.2095C26.9904 4.30411 22.3365 1.26176 17.5053 0.655327C12.6743 0.0434653 7.78754 1.85662 4.47672 5.41551C0.829725 9.33927 -1.0443 15.4863 0.978388 23.367C1.84803 26.7799 4.53281 31.6414 9.7596 37.123C10.2365 37.4935 10.6826 37.937 11.0753 38.4646C11.2408 38.619 11.4068 38.7815 11.5723 38.9387Z" fill="white"/>
</svg>
