<svg width="63" height="62" viewBox="0 0 63 62" fill="none" xmlns="http://www.w3.org/2000/svg">
<path d="M63 40.9559C63 43.3819 62.0144 45.4288 60.4224 47.0209C60.4224 47.0209 60.4224 47.0967 60.3466 47.0967C60.0433 55.057 53.5993 61.4252 45.5632 61.4252C41.1661 61.4252 37.148 59.4541 34.4946 56.4216C27.2166 57.0281 18.9531 55.7393 15.3141 52.1003C14.935 51.7212 14.6318 51.3422 14.3285 50.9631C9.55235 50.6599 5.00361 49.3711 2.57762 47.0209C0.909747 45.353 0 43.3061 0 40.9559C0 35.9523 1.66787 30.418 4.39711 26.1725C5.76173 24.0498 7.35379 22.3819 9.09747 21.0931C9.40072 20.7898 9.47653 20.4108 9.55235 20.1075C9.62816 19.5768 9.47653 18.8945 9.09747 18.4397C7.4296 16.6202 6.29242 14.1184 6.29242 11.3133C6.29242 5.47575 10.9928 0.775391 16.8303 0.775391C19.4838 0.775391 21.9097 1.76095 23.7292 3.42882C25.7762 1.76095 28.278 0.851202 31.0072 0.851202C33.9639 0.851202 36.6173 1.98839 38.6643 3.73207C40.4838 1.91257 43.0614 0.775391 45.9422 0.775391C51.7798 0.775391 56.4801 5.47575 56.4801 11.3133C56.4801 13.9667 55.4946 16.4685 53.6751 18.4397C53.296 18.9703 53.2202 19.5768 53.2202 20.1075C53.296 20.4866 53.3718 20.8656 53.6751 21.0931C55.4188 22.3819 57.0108 24.0498 58.3755 26.1725C61.3321 30.418 63 35.9523 63 40.9559ZM59.5126 42.0173C59.5884 41.6382 59.5884 41.4108 59.5884 41.0317C59.5884 29.205 51.6282 21.927 46.018 21.927C44.2744 21.927 42.2274 22.6851 40.2563 23.9739C41.9242 25.2628 43.5162 27.0064 44.8051 29.0534C45.4874 29.9631 46.0181 30.8729 46.4729 32.01C52.6137 32.3891 57.6931 36.483 59.5126 42.0173ZM52.8412 49.8259C53.5235 49.7501 53.7509 48.6888 53.296 48.2339C52.6895 47.7032 52.1588 47.0967 51.6282 46.566C51.4007 46.3386 50.7184 45.5805 50.2635 45.2772C50.2635 45.1256 50.2635 45.0498 50.3394 44.974C50.491 44.5191 50.491 44.0642 50.5668 43.5335C50.7184 42.7754 50.87 41.9415 50.9458 41.1833C51.0975 40.3494 50.3394 39.7429 49.5812 40.122C48.3682 40.8043 47.0794 41.4108 45.8664 42.0931C44.6534 41.4108 43.3646 40.8043 42.1516 40.122C41.3935 39.7429 40.6354 40.3494 40.787 41.1833C40.9386 41.9415 41.0903 42.7754 41.1661 43.5335C41.2419 43.9884 41.3177 44.5191 41.3935 44.974C41.3935 45.0498 41.3935 45.2014 41.4693 45.2772C41.0903 45.5805 40.3321 46.4144 40.1047 46.566C39.574 47.0967 38.9675 47.7032 38.4368 48.2339C37.9819 48.6888 38.1336 49.6743 38.8159 49.8259C39.574 49.9776 40.4079 50.0534 41.1661 50.205C41.5451 50.2808 42.6823 50.5082 43.1372 50.5082C43.2888 50.8873 43.8953 51.9487 44.0469 52.2519C44.426 52.9342 44.7292 53.6924 45.1083 54.3747C45.4116 54.9812 46.4729 54.9812 46.7762 54.3747C47.1552 53.6924 47.4585 52.9342 47.8375 52.2519C47.9892 51.9487 48.5957 50.8873 48.7473 50.5082C49.2022 50.5082 50.4152 50.2808 50.7184 50.205C51.3249 50.0534 52.083 49.9018 52.8412 49.8259ZM51.8556 15.483C52.6895 14.27 53.1444 12.9054 53.1444 11.3133C53.1444 7.37106 49.8845 4.11113 45.9422 4.11113C43.8953 4.11113 42.1516 4.94507 40.8628 6.23387C42 8.05337 42.6823 10.1761 42.6823 12.4505C42.6823 14.1184 42.3032 15.5588 41.7726 17.075C42.9856 17.9848 44.426 18.4397 46.018 18.4397C48.065 18.4397 49.8845 17.6057 51.1733 16.2411C51.4007 16.0137 51.6282 15.7862 51.8556 15.483ZM41.3177 32.4649C41.6968 32.3891 42.1516 32.3133 42.5307 32.1617C41.0144 29.7357 39.2708 27.8404 37.3755 26.5516C36.3899 25.7934 35.4043 25.2628 34.4188 24.8837C33.2058 24.4288 32.1444 24.1256 31.0072 24.1256C30.0975 24.1256 29.0361 24.2772 28.0505 24.6563C27.065 25.0353 26.0036 25.4902 25.0181 26.2483C20.3177 29.3566 15.9964 36.1039 15.9964 45.353C15.9964 46.187 16.148 46.9451 16.4513 47.5516C16.7545 48.3097 17.2094 48.8404 17.7401 49.3711C18.4224 49.9017 19.1805 50.5082 20.2419 50.8873C23.2744 52.1761 27.7473 52.7068 32.0686 52.631C31.2347 50.8115 30.7798 48.7646 30.7798 46.6418C30.704 39.9703 35.2527 34.3602 41.3177 32.4649ZM38.8159 12.223C38.8159 7.90175 35.3285 4.33857 30.9314 4.33857C26.5343 4.33857 23.1227 7.90175 23.1227 12.223C23.1227 16.5443 26.6101 20.1075 31.0072 20.1075C35.4043 20.1075 38.8159 16.5443 38.8159 12.223ZM19.4838 12.5263C19.4838 10.0245 20.2419 7.82593 21.5307 5.93062C20.2419 4.79344 18.6498 4.18694 16.8303 4.18694C12.8881 4.18694 9.62816 7.44687 9.62816 11.3891C9.62816 12.9812 10.083 14.3458 10.9928 15.5588C11.296 15.862 11.4477 16.0895 11.6751 16.3927C12.9639 17.7573 14.7834 18.5913 16.8303 18.5913C18.1949 18.5913 19.4838 18.2122 20.5451 17.4541C19.787 15.9378 19.4838 14.27 19.4838 12.5263ZM17.2852 28.9776C18.6498 26.779 20.3177 25.0353 22.213 23.5949C20.4693 22.3819 18.4982 21.7754 16.8303 21.7754C11.2202 21.7754 3.25993 29.0534 3.25993 40.8801C3.25993 42.3205 3.7148 43.5335 4.85199 44.5949C6.29242 45.9595 9.2491 46.9451 12.5848 47.2483C12.4332 46.566 12.4332 45.9595 12.4332 45.2014C12.3574 39.7429 14.1769 33.6779 17.2852 28.9776Z" fill="white"/>
</svg>
