<svg width="56" height="57" viewBox="0 0 56 57" fill="none" xmlns="http://www.w3.org/2000/svg">
<path fill-rule="evenodd" clip-rule="evenodd" d="M18.6182 12.5736C19.5125 12.5736 20.2376 13.3084 20.2376 14.2147C20.2376 15.121 19.5125 15.8558 18.6182 15.8558C17.7239 15.8558 16.9987 15.121 16.9987 14.2147C16.9987 13.3084 17.7239 12.5736 18.6182 12.5736ZM1.98886 38.1748H2.96011V34.082C2.96011 30.8865 5.53979 28.2725 8.69279 28.2725H13.6742C16.8274 28.2725 19.4069 30.8867 19.4069 34.082V38.1748H20.3803C21.4724 38.1748 22.3667 39.0811 22.3667 40.1901V54.9847C22.3667 56.0937 21.4724 57 20.3803 57H1.98863C0.894356 57 0 56.0937 0 54.9847V40.1901C0 39.0811 0.894525 38.1748 1.98886 38.1748ZM11.185 41.1765C14.9667 41.1765 18.0343 44.2851 18.0343 48.1175C18.0343 51.9498 14.969 55.0585 11.185 55.0585C7.40331 55.0585 4.33571 51.9522 4.33571 48.1175C4.33571 44.2852 7.4032 41.1765 11.185 41.1765ZM6.87375 47.0754C7.16381 46.7815 7.63845 46.7815 7.93068 47.0754L10.0885 49.2621C10.1478 49.3222 10.2445 49.3222 10.3038 49.2621L14.4392 45.0713C14.7293 44.7774 15.2039 44.7774 15.4962 45.0713C15.7862 45.3652 15.7862 45.8462 15.4962 46.1424L10.4115 51.2952C10.2928 51.4154 10.0994 51.4154 9.98299 51.2952L6.87594 48.1487C6.58589 47.8548 6.58589 47.3738 6.87594 47.0777L6.87375 47.0754ZM5.5026 38.1751H16.8673V34.3339C16.8673 32.4211 15.562 30.849 13.6745 30.849H8.69307C6.80552 30.849 5.50249 32.4211 5.50249 34.3339L5.5026 38.1751ZM55.9913 5.33476L55.9935 17.168L55.9979 17.2459V44.0922C55.9979 46.0718 53.3567 47.7418 49.0873 48.8441C45.1606 49.855 39.7506 50.4808 33.7873 50.4808C32.1612 50.4808 30.5527 50.4318 28.9838 50.3405C27.3731 50.247 25.846 50.1067 24.4243 49.9308C23.9431 49.8707 23.6003 49.4275 23.6596 48.9398C23.7189 48.4522 24.1562 48.1048 24.6374 48.1649C26.0569 48.3408 27.5445 48.4789 29.0804 48.568C30.5702 48.6548 32.1458 48.7016 33.7872 48.7016C39.6059 48.7016 44.8622 48.0959 48.6547 47.1206C52.1045 46.2321 54.2404 45.1521 54.2404 44.0944V33.1966C53.0428 34.0272 51.2805 34.742 49.0875 35.3076C45.1609 36.3207 39.7508 36.9465 33.7875 36.9465C31.5396 36.9465 29.362 36.8574 27.3117 36.6904C25.1891 36.519 23.2048 36.2651 21.4204 35.9422C20.9436 35.8576 20.6227 35.3967 20.7063 34.9134C20.7898 34.4302 21.2468 34.1051 21.7237 34.1897C23.4574 34.5037 25.3866 34.7509 27.4501 34.9179C29.4432 35.0782 31.5724 35.1673 33.7875 35.1673C39.6063 35.1673 44.8625 34.5616 48.655 33.5841C52.1049 32.6956 54.2407 31.6178 54.2407 30.5601V19.798C53.0432 20.5996 51.2743 21.2877 49.0769 21.831C45.148 22.7997 39.7402 23.3987 33.7875 23.3987C27.8349 23.3987 22.4296 22.7997 18.4981 21.831C16.3008 21.2899 14.5341 20.5996 13.3365 19.798V26.084C13.3365 26.5761 12.9432 26.9747 12.4576 26.9747C11.972 26.9747 11.5787 26.5761 11.5787 26.084V17.4733C11.5787 17.4421 11.5809 17.4109 11.583 17.382C11.5809 17.3375 11.5787 17.2952 11.5787 17.2506V5.43334C11.5787 5.4044 11.5809 5.37768 11.583 5.34873C11.5787 5.31087 11.5787 5.27524 11.5787 5.24184C11.5787 3.55618 14.2375 2.17334 18.5331 1.29597C22.4576 0.494353 27.8519 0 33.7893 0C39.7268 0 45.1214 0.494347 49.0455 1.29597C53.3414 2.17112 56 3.55613 56 5.24184C56 5.27301 55.9978 5.30196 55.9956 5.32868L55.9934 5.33982L55.9913 5.33476ZM54.2444 17.168L54.2422 7.45252C53.0271 8.15397 51.2274 8.74404 48.9817 9.19832C45.0748 9.98881 39.7046 10.4787 33.7868 10.4787C28.0165 10.4787 22.7625 10.0111 18.8755 9.25401C16.5023 8.79084 14.5994 8.18071 13.3337 7.46147V17.2459C13.3337 18.2324 15.4652 19.2522 18.9084 20.1006C22.6989 21.0337 27.9572 21.6126 33.7866 21.6126C39.6138 21.6126 44.8745 21.0359 48.6648 20.1006C52.1103 19.25 54.2395 18.2324 54.2395 17.2459L54.2444 17.168ZM48.7005 3.03002C44.9034 2.25509 39.632 1.77635 33.7868 1.77635C27.9417 1.77635 22.6703 2.25511 18.8755 3.03002C15.452 3.72925 13.3359 4.51975 13.3359 5.23677L13.3337 5.22786L13.3359 5.24345C13.5007 6.01838 15.7157 6.82444 19.2075 7.50811C22.9826 8.24519 28.1179 8.69719 33.787 8.69719C39.59 8.69719 44.8355 8.22289 48.6388 7.45242C52.0381 6.76436 54.1651 5.98275 54.2398 5.26574L54.242 5.23679C54.2398 4.51977 52.1216 3.72927 48.7024 3.03227L48.7005 3.03002ZM18.6207 25.6744C19.515 25.6744 20.2401 26.4092 20.2401 27.3155C20.2401 27.8922 19.9457 28.3999 19.5018 28.6917L19.4974 28.685C19.4666 28.6516 19.4381 28.6204 19.4073 28.587L19.3656 28.5425C19.3348 28.5091 19.3018 28.4757 19.2689 28.4423L19.2425 28.4156C19.2095 28.3822 19.1722 28.3465 19.137 28.3131L19.0953 28.273C19.0623 28.2419 19.0294 28.2107 18.9964 28.1795L18.9634 28.1483C18.9261 28.1149 18.8909 28.0838 18.8558 28.0504L18.8228 28.0192C18.7854 27.988 18.7481 27.9546 18.7107 27.9234L18.6778 27.8967C18.6404 27.8655 18.6031 27.8344 18.5657 27.8032L18.5284 27.7742C18.491 27.7453 18.4536 27.7163 18.4185 27.6874L18.3701 27.6495C18.3372 27.625 18.3042 27.5983 18.2691 27.5738L18.2119 27.5338L18.1218 27.4714L18.0493 27.4224L17.9592 27.3601L17.8955 27.32L17.801 27.2599L17.7263 27.2153L17.645 27.1663L17.5747 27.124L17.4912 27.075L17.4758 27.0661L17.3923 27.0216L17.3044 26.9726L17.2363 26.937L17.0649 26.8501C17.2605 26.1665 17.8823 25.6655 18.6206 25.6655L18.6207 25.6744Z" fill="white"/>
</svg>
