<svg width="61" height="57" viewBox="0 0 61 57" fill="none" xmlns="http://www.w3.org/2000/svg">
<path d="M16.5101 36.9299C14.7202 37.1572 12.9949 38.2883 12.0046 40.4944C11.9485 40.6122 11.8531 40.7189 11.7241 40.775C11.4435 40.8985 11.1125 40.7694 10.9835 40.4944C9.99319 38.2883 8.26791 37.1572 6.47805 36.9299C4.6882 36.7025 2.87594 37.3733 1.64713 38.6925C0.283734 40.1576 -0.417642 42.4675 0.345426 45.4454C1.48439 49.8856 7.70679 54.4326 11.4938 56.6219C15.281 54.4327 21.5009 49.8858 22.6399 45.4454C23.403 42.4647 22.7017 40.1547 21.3382 38.6925C20.1123 37.3761 18.2999 36.7025 16.5101 36.9299ZM38.4591 27.9398H21.9438C19.9997 28.3383 18.9757 29.6519 19.3572 31.6166C19.447 32.0853 19.6209 32.5764 19.8678 33.0648C20.7655 34.833 22.2693 36.3627 24.1095 37.4433C27.8968 39.6747 32.5087 39.6747 36.3021 37.4433C38.1424 36.3599 39.6461 34.8303 40.541 33.0648C40.7935 32.5764 40.9618 32.0881 41.0544 31.6166C41.4303 29.649 40.4061 28.3355 38.4591 27.9398ZM31.844 12.9069C28.9152 12.0004 25.7956 13.6423 24.8894 16.5781C23.9833 19.5083 25.6244 22.6294 28.5589 23.536C31.4877 24.4453 34.6074 22.8006 35.5135 19.8676C36.4224 16.9318 34.7785 13.8107 31.844 12.9069ZM58.3105 47.2162H43.6689C42.7824 47.3986 41.9351 47.8365 41.562 48.7121C41.1581 49.6608 41.4302 50.7835 41.8762 51.6676C42.6674 53.2282 43.9915 54.5754 45.613 55.5297C48.957 57.4944 53.0189 57.4944 56.3664 55.5297C57.9879 54.5754 59.312 53.2282 60.1031 51.6676C60.552 50.7863 60.8269 49.658 60.4229 48.7121C60.0442 47.8364 59.1998 47.3986 58.3105 47.2162ZM52.4304 33.879C49.8662 33.0875 47.1338 34.5246 46.337 37.0928C45.5403 39.6609 46.9823 42.3974 49.5492 43.189C52.1162 43.9861 54.8514 42.5434 55.6426 39.9752C56.4365 37.4043 54.9973 34.6734 52.4304 33.879ZM11.5723 38.9368C12.6327 37.278 14.1252 36.304 15.7158 35.9336C11.9342 32.3578 7.08112 26.8594 5.86309 22.1078C5.31884 19.9804 5.04393 17.6929 5.27957 15.484C5.65268 11.9756 7.34434 8.87136 10.4078 7.02987C13.5667 5.13815 17.584 5.02025 20.7259 7.03548C22.5747 8.21989 24.0335 10.0499 25.0238 12.2447C25.2483 12.6714 25.3997 13.0026 25.6242 13.3562C27.3215 11.7648 29.7958 11.1052 32.172 11.8406C33.1623 12.1465 34.0348 12.6657 34.7445 13.3225C34.9577 12.9913 35.1541 12.6349 35.3056 12.2784C36.2987 10.0724 37.7631 8.22837 39.6203 7.03548C42.7623 5.02306 46.7797 5.13816 49.9441 7.02987C53.0076 8.87107 54.6937 11.9725 55.0696 15.484C55.5241 19.7081 54.4131 23.5393 52.1632 27.0816C49.0856 31.9288 44.544 36.3267 40.0776 39.8798C37.031 42.302 33.7767 44.5137 30.4748 46.5233C30.3037 46.63 30.0764 46.6412 29.8857 46.5289C27.9219 45.3332 25.9694 44.0646 24.0673 42.723C24.1009 43.6464 23.9999 44.6484 23.725 45.7262C23.5623 46.3633 23.2537 47.1127 22.7768 47.9492C25.0351 49.4844 27.4955 51.0281 30.1719 52.5578C36.5654 48.8978 41.7361 45.1872 45.8484 41.6169C45.0067 40.2108 44.743 38.4566 45.2649 36.7697C46.2411 33.6066 49.5964 31.8327 52.7555 32.8123C53.1651 32.9414 53.5466 33.107 53.9085 33.3062C56.9889 29.3965 58.7002 25.9637 59.3679 23.3648C61.3877 15.4834 59.5137 9.33431 55.8667 5.41336C52.5563 1.85446 47.6694 0.0384798 42.8382 0.653172C38.0073 1.26223 33.3503 4.30468 30.6851 10.2159C30.4831 10.665 29.8604 10.6538 29.6583 10.2075C26.9904 4.30216 22.3365 1.2598 17.5053 0.653374C12.6743 0.0415122 7.78754 1.85466 4.47672 5.41356C0.829725 9.33732 -1.0443 15.4843 0.978388 23.365C1.84803 26.778 4.53281 31.6395 9.7596 37.1211C10.2365 37.4915 10.6826 37.935 11.0753 38.4627C11.2408 38.617 11.4068 38.7796 11.5723 38.9368Z" fill="white"/>
</svg>
