<svg width="58" height="58" viewBox="0 0 58 58" fill="none" xmlns="http://www.w3.org/2000/svg">
<path fill-rule="evenodd" clip-rule="evenodd" d="M39.7482 46.1997C39.4381 45.838 39.4804 45.2953 39.8421 44.9852C40.2039 44.6751 40.7466 44.7174 41.0566 45.0792L44.4348 49.0117L51.0031 41.1702C51.3085 40.8061 51.8512 40.7568 52.2176 41.0622C52.5817 41.3676 52.6311 41.9103 52.3257 42.2767L45.1066 50.8982C44.766 51.3046 44.1387 51.3093 43.7911 50.9052L39.7482 46.1997ZM35.3646 50.5292C37.1453 54.7507 41.301 57.6094 46.0344 57.6094C52.4266 57.6094 57.6087 52.4271 57.6087 46.0351C57.6087 41.3015 54.7498 37.146 50.5286 35.3653L50.7142 34.7709L54.7383 33.8689C55.1611 33.8125 55.4877 33.4507 55.4877 33.0114L55.49 23.0861H55.4877C55.4877 22.6914 55.2152 22.3344 54.8135 22.2451L50.7212 21.3266C50.2537 19.7527 49.6148 18.2116 48.8325 16.7739L51.0618 13.2572C51.2967 12.9213 51.2639 12.4538 50.9632 12.1531L43.9438 5.13855C43.6642 4.859 43.2202 4.80027 42.8726 5.02109L39.323 7.2716C37.883 6.48932 36.3466 5.85035 34.7727 5.38289L33.8706 1.36111C33.8142 0.938265 33.4525 0.611724 33.0131 0.611724L23.0879 0.609375V0.611724C22.6932 0.611724 22.3361 0.884224 22.2469 1.28594L21.3284 5.38054C19.7544 5.84802 18.2157 6.48697 16.778 7.26926L13.259 5.03757C12.923 4.80266 12.4556 4.83554 12.1549 5.13624L5.13789 12.1556C4.85835 12.4352 4.79961 12.8792 5.02044 13.2268L7.27095 16.7764C6.48866 18.2164 5.84969 19.7528 5.38223 21.3291L1.3017 22.2429C0.909392 22.3227 0.613414 22.6704 0.613414 23.0862V32.9952C0.606366 33.397 0.881217 33.7611 1.28763 33.8504L5.37989 34.7665C5.84737 36.3428 6.48632 37.8792 7.2686 39.3192L5.03926 42.8383C4.80435 43.1742 4.83723 43.6417 5.13793 43.9424L12.1549 50.9593C12.4345 51.2389 12.8784 51.2976 13.2261 51.0768L16.7757 48.8263C18.2157 49.6086 19.752 50.2475 21.326 50.715L22.2281 54.7368C22.2845 55.1596 22.6462 55.4862 23.0855 55.4862H33.0108V55.4838C33.4055 55.4838 33.7626 55.2113 33.8518 54.8096L34.7703 50.715L35.3646 50.5292ZM48.8982 34.8156L49.1919 33.8148H49.1942C49.2764 33.5165 49.5161 33.2722 49.8379 33.1994L53.7586 32.3208L53.761 23.7745L49.9131 22.9124C49.5795 22.8677 49.2882 22.6281 49.1942 22.2828C48.7291 20.5702 47.9774 18.7144 47.087 17.1921C46.9249 16.922 46.9179 16.5696 47.0988 16.2854L49.2529 12.8885L43.2108 6.84636L39.821 8.99349C39.5579 9.16498 39.2102 9.18612 38.9212 9.01933C37.3097 8.09849 35.6206 7.39372 33.8188 6.90275V6.9004C33.5205 6.81818 33.2762 6.57856 33.2034 6.25673L32.3248 2.33599H23.7761L22.9139 6.18625C22.8693 6.51984 22.6297 6.81115 22.2843 6.90509C20.5718 7.37023 18.7183 8.12194 17.1961 9.01229C16.9259 9.17438 16.5735 9.18143 16.2893 9.00054L12.8901 6.84638L6.84793 12.8885L8.99507 16.2783C9.16656 16.5415 9.1877 16.8891 9.02091 17.1781C8.09766 18.7896 7.3953 20.4787 6.90433 22.2828H6.90198C6.81975 22.5812 6.58014 22.8255 6.25831 22.8983L2.33288 23.7792V32.3255L6.18548 33.19C6.51907 33.2346 6.81039 33.4743 6.90432 33.8196C7.36946 35.5322 8.12117 37.388 9.01152 38.9102C9.17361 39.1804 9.18066 39.5328 8.99978 39.817L6.84561 43.2139L12.8853 49.256L16.2752 47.1065C16.5383 46.935 16.8859 46.9139 17.1749 47.0807C18.7864 48.0015 20.4778 48.7063 22.2773 49.1973V49.1996C22.5757 49.2818 22.82 49.5215 22.8928 49.8433L23.7713 53.764H32.3201L33.1822 49.9161C33.2268 49.5825 33.4665 49.2912 33.8118 49.1973L34.8126 48.9036C34.3498 47.0901 34.3357 45.1685 34.7703 43.3478C27.0395 46.7542 18.0632 43.8177 13.7548 36.7091C9.76124 30.1173 10.809 21.6696 16.2332 16.2433C22.757 9.71948 33.333 9.71948 39.8563 16.2433C44.7096 21.0967 46.1191 28.4611 43.3378 34.7805C45.1654 34.3412 47.0847 34.3552 48.8982 34.8156ZM40.9768 35.619C44.416 29.7578 43.4575 22.2778 38.6393 17.4577C32.7899 11.6083 23.3088 11.6083 17.4591 17.4577C12.8923 22.0245 11.7436 29.0507 14.7012 34.8462L18.1028 31.4447C18.8545 30.6929 19.1764 29.7579 19.0471 28.7032C18.4175 23.5797 21.9554 18.8506 27.081 18.0496C29.0473 17.7419 31.0911 18.0472 32.9046 18.9634C33.5131 19.2453 33.5859 19.9642 33.1795 20.3705L27.3864 26.1636L29.9353 28.7124L35.726 22.9217L35.7283 22.9241C36.1371 22.5153 36.8348 22.614 37.1026 23.1379C38.0423 24.9655 38.3594 27.0328 38.047 29.0178C37.2436 34.146 32.5171 37.6814 27.3934 37.0517C26.3387 36.9225 25.4037 37.2444 24.6519 37.9961L21.2504 41.3976C24.5674 43.0891 28.467 43.4908 32.0988 42.4736C33.3462 42.1236 34.5255 41.6185 35.6179 40.9772C36.184 39.812 36.9404 38.7549 37.8472 37.8504C38.7563 36.9437 39.8116 36.1875 40.9768 35.619ZM15.6036 36.3848L19.3224 32.6661C20.4453 31.5432 20.9527 30.0726 20.7577 28.4963C20.0553 22.7761 25.5594 18.2372 31.0492 20.0582L25.5522 25.5553C25.2139 25.8935 25.2139 26.4386 25.5522 26.7768L29.3226 30.5472C29.6609 30.8855 30.2059 30.8855 30.5441 30.5472L36.0412 25.0502C37.8594 30.5402 33.3232 36.0441 27.6031 35.3417C26.0245 35.1491 24.5562 35.6541 23.431 36.777L19.7123 40.4958C18.0913 39.4034 16.6936 38.0081 15.6036 36.3848ZM52.9979 39.0699C49.1523 35.2243 42.915 35.2243 39.0698 39.0699C35.2242 42.9154 35.2242 49.1503 39.0698 52.9956C42.9153 56.8412 49.1526 56.8412 52.9979 52.9956C56.8434 49.1524 56.8434 42.9176 52.9979 39.0699Z" fill="white"/>
</svg>
