<svg width="62" height="62" viewBox="0 0 62 62" fill="none" xmlns="http://www.w3.org/2000/svg">
<path d="M43.0592 20.9299C43.0592 19.8342 42.3706 18.8526 41.3452 18.4863L39.351 17.7748C37.4044 17.0814 36.0959 15.2172 36.0959 13.1368C36.0959 11.0054 37.5893 9.21919 39.5746 8.77792V7.91036C39.5746 7.26793 40.0932 6.74561 40.7311 6.74561C41.369 6.74561 41.8877 7.26796 41.8877 7.91036V8.77792C43.876 9.21921 45.3694 11.0023 45.3694 13.1368C45.3694 13.7792 44.8507 14.3015 44.2128 14.3015C43.5749 14.3015 43.0562 13.7792 43.0562 13.1368C43.0562 11.9601 42.1053 11.0024 40.9369 11.0024H40.5285C39.36 11.0024 38.4091 11.9601 38.4091 13.1368C38.4091 14.2325 39.0977 15.2141 40.1231 15.5774L42.1173 16.2889C44.0639 16.9823 45.3725 18.8465 45.3725 20.9269C45.3725 23.0583 43.8791 24.8445 41.8908 25.2858V26.1533C41.8908 26.7958 41.3721 27.3181 40.7342 27.3181C40.0963 27.3181 39.5777 26.7957 39.5777 26.1533V25.2858C37.5894 24.8445 36.099 23.0613 36.099 20.9269C36.099 20.2845 36.6176 19.7622 37.2555 19.7622C37.8934 19.7622 38.4121 20.2845 38.4121 20.9269C38.4121 22.1036 39.363 23.0613 40.5315 23.0613H40.9398C42.1083 23.0613 43.0592 22.1036 43.0592 20.9269V20.9299ZM59.5194 51.2619L40.8859 59.3373C39.1272 60.0338 37.273 60.382 35.4189 60.382C34.7065 60.382 33.994 60.331 33.2846 60.2259L16.091 57.6922V60.8353C16.091 61.4777 15.5723 62 14.9345 62H1.15656C0.518653 62 0 61.4777 0 60.8353V34.5648C0 33.9224 0.518676 33.4001 1.15656 33.4001H14.9314C15.5693 33.4001 16.088 33.9224 16.088 34.5648V37.5788H25.114C27.3974 37.5788 29.4781 38.7435 30.6764 40.6918C31.1116 41.4003 31.6928 41.9827 32.3546 42.3789C33.0253 42.7842 33.7854 42.9973 34.5545 42.9973H38.835C40.0632 42.9973 41.2227 43.4807 42.0991 44.3542C42.6446 44.9066 43.0351 45.567 43.2527 46.2814L57.1824 43.6037C59.4389 43.2134 61.5614 44.6694 61.937 46.8368C62.2678 48.719 61.2722 50.5382 59.5135 51.2616L59.5194 51.2619ZM13.778 56.3442V35.7299H2.31389V59.6703H13.7758V56.3442L13.778 56.3442ZM59.6629 47.239C59.5079 46.3444 58.557 45.7291 57.5972 45.8971L43.2088 48.662C42.7468 50.7423 40.9016 52.3034 38.6987 52.3034H23.812C23.1741 52.3034 22.6554 51.781 22.6554 51.1386C22.6554 50.4962 23.1741 49.9739 23.812 49.9739H38.6987C39.9715 49.9739 41.0088 48.9292 41.0088 47.6474C41.0088 47.4853 41.0416 47.3292 41.1012 47.1881C41.0118 46.7438 40.7942 46.3325 40.4693 45.9993C40.0341 45.567 39.4528 45.3239 38.8388 45.3239H34.5582C33.3688 45.3239 32.1973 44.9967 31.1749 44.3782C30.1972 43.7958 29.3446 42.9433 28.7126 41.9196C27.9376 40.6588 26.5962 39.9083 25.1177 39.9083H16.0917V55.3383L33.6195 57.923C35.7717 58.2382 37.9805 57.983 40.0075 57.1845L58.6174 49.1183C58.6234 49.1153 58.6323 49.1123 58.6413 49.1093C59.3835 48.8061 59.8068 48.0376 59.6667 47.2421L59.6629 47.239ZM23.1467 17.7117C23.1467 7.94323 31.0372 0 40.734 0C50.4339 0 58.3244 7.9463 58.3244 17.7117C58.3244 27.4801 50.4339 35.4264 40.734 35.4264C31.0372 35.4264 23.1467 27.4801 23.1467 17.7117ZM25.4598 17.7117C25.4598 26.1951 32.3129 33.094 40.7342 33.094C49.1581 33.094 56.0085 26.1925 56.0085 17.7117C56.0085 9.22816 49.1555 2.32933 40.7342 2.32933C32.3129 2.32933 25.4598 9.23085 25.4598 17.7117Z" fill="white"/>
</svg>
