<svg width="63" height="62" viewBox="0 0 63 62" fill="none" xmlns="http://www.w3.org/2000/svg">
<path fill-rule="evenodd" clip-rule="evenodd" d="M61.0715 1.89771H12.1639V27.5945H33.5961L50.5848 10.8758L43.788 10.8788C43.2546 10.8788 42.8237 10.4547 42.8237 9.92986C42.8237 9.40504 43.2547 8.98089 43.788 8.98089H52.9102C53.4435 8.98089 53.8745 9.40504 53.8745 9.92986V18.9103C53.8745 19.4351 53.4435 19.8592 52.9102 19.8592C52.3769 19.8592 51.9459 19.4351 51.9459 18.9103V12.2184L34.9604 28.9372V50.0289H61.0721L61.0715 1.89771ZM33.0318 30.8317V50.0253L12.1639 50.0283V29.4919H31.6672L21.2893 39.7082V33.0163C21.2893 32.4914 20.8583 32.0673 20.325 32.0673C19.7917 32.0673 19.3607 32.4915 19.3607 33.0163V41.9936C19.3607 42.5184 19.7917 42.9426 20.325 42.9426H29.4504C29.9837 42.9426 30.4147 42.5184 30.4147 41.9936C30.4147 41.4688 29.9837 41.0446 29.4504 41.0446H22.6505L33.0318 30.8317ZM10.2382 29.4922V50.9777C10.2382 51.5025 10.6692 51.9266 11.2025 51.9266H33.0316V60.1048L1.92787 60.1017V29.4921L10.2382 29.4922ZM0.963573 27.5941H10.235L10.2381 0.948974C10.2381 0.424117 10.6691 0 11.2024 0H62.0357C62.569 0 63 0.424156 63 0.948974V50.9779C63 51.5028 62.569 51.9269 62.0357 51.9269L34.9604 51.9238V61.048C34.9604 61.5728 34.5294 61.9969 33.9961 61.9969L0.964292 62C0.430963 62 0 61.5758 0 61.051V28.5439C0 28.0221 0.434106 27.5949 0.964292 27.5949L0.963573 27.5941Z" fill="white"/>
</svg>
