<svg width="40" height="40" viewBox="0 0 40 40" fill="none" xmlns="http://www.w3.org/2000/svg">
<circle cx="20" cy="20" r="19.5" fill="black" stroke="white"/>
<path d="M29.8409 21.5172C29.8409 20.7469 29.4006 20.0844 28.7722 19.7608C29.1372 19.4026 29.3667 18.9019 29.3667 18.3434C29.3667 17.2572 28.5012 16.3713 27.44 16.3713H23.2854C23.9929 13.8368 24.008 11.9533 23.308 10.7901C22.9016 10.116 22.2618 9.6846 21.4527 9.54208C20.734 9.41883 20.0491 9.91956 19.9249 10.6629C19.6389 12.377 18.9314 13.8984 17.8213 15.1811C17.0084 16.117 15.887 16.7333 14.6564 16.9144C14.2462 16.2904 13.5501 15.8821 12.7635 15.8821H11.8077C10.547 15.8821 9.52344 16.9298 9.52344 18.2201V27.0137C9.52344 28.304 10.547 29.3517 11.8077 29.3517H12.7635C13.5802 29.3517 14.2914 28.9126 14.6978 28.254H15.1682C15.4843 28.254 15.7967 28.3541 16.0488 28.5429L17.2681 29.4134C17.6444 29.6907 18.111 29.8409 18.5852 29.8409H26.4841C27.5454 29.8409 28.4109 28.955 28.4109 27.8688C28.4109 27.3103 28.1813 26.8096 27.8163 26.4513C28.4485 26.1278 28.885 25.4653 28.885 24.6949C28.885 24.2058 28.7044 23.7628 28.4146 23.4162C29.235 23.1889 29.8409 22.4301 29.8409 21.5211V21.5172ZM12.7598 28.5814H11.8039C10.9572 28.5814 10.2723 27.8765 10.2723 27.0137V18.2201C10.2723 17.3535 10.961 16.6524 11.8039 16.6524H12.7598C13.6065 16.6524 14.2914 17.3573 14.2914 18.2201V27.0137C14.2914 27.8804 13.6027 28.5814 12.7598 28.5814ZM27.9141 22.719H22.7849C22.5779 22.719 22.4086 22.8923 22.4086 23.1042C22.4086 23.316 22.5779 23.4893 22.7849 23.4893H26.9621C27.6093 23.4893 28.1362 24.0286 28.1362 24.6911C28.1362 25.3536 27.6093 25.8928 26.9621 25.8928H22.7849C22.5779 25.8928 22.4086 26.0662 22.4086 26.278C22.4086 26.4899 22.5779 26.6632 22.7849 26.6632H26.4841C27.1314 26.6632 27.6583 27.2024 27.6583 27.8649C27.6583 28.5274 27.1314 29.0667 26.4841 29.0667H18.5852C18.2691 29.0667 17.9567 28.9665 17.7046 28.7778L16.4853 27.9073C16.109 27.63 15.6424 27.4798 15.1682 27.4798H15.0026C15.0327 27.3295 15.0478 27.1716 15.0478 27.0098V18.2163C15.0478 18.016 15.0215 17.8195 14.9725 17.6308C16.2972 17.3843 17.5014 16.7064 18.3857 15.6857C19.59 14.2952 20.3577 12.6428 20.6662 10.7862C20.7189 10.4627 21.02 10.2393 21.3286 10.2932C21.9231 10.3972 22.3747 10.6976 22.6645 11.1829C23.2591 12.1767 23.1989 13.9678 22.4989 16.3636H20.8732C20.6662 16.3636 20.4969 16.5369 20.4969 16.7487C20.4969 16.9606 20.6662 17.1339 20.8732 17.1339H27.4362C28.0835 17.1339 28.6103 17.6732 28.6103 18.3357C28.6103 18.9982 28.0835 19.5374 27.4362 19.5374H22.7812C22.5742 19.5374 22.4048 19.7107 22.4048 19.9226C22.4048 20.1344 22.5742 20.3078 22.7812 20.3078H27.9104C28.5577 20.3078 29.0845 20.847 29.0845 21.5095C29.0845 22.172 28.5577 22.7113 27.9104 22.7113L27.9141 22.719Z" fill="white"/>
</svg>
