<svg width="40" height="40" viewBox="0 0 40 40" fill="none" xmlns="http://www.w3.org/2000/svg">
<circle cx="20" cy="20" r="19.5" fill="black" stroke="white"/>
<path d="M15.1098 23.2997C15.8794 24.0028 16.7773 24.5225 17.7393 24.8588C18.7333 25.1951 19.6954 25.3785 20.6253 25.3785C20.8498 25.3785 21.0742 25.3479 21.2987 25.3174C21.5232 25.2868 21.7476 25.1951 21.9721 25.1034C22.1645 24.9811 22.3248 24.8588 22.4531 24.6754C22.5814 24.492 22.6455 24.278 22.6455 24.0028C22.6455 23.5137 22.3569 23.1469 21.7476 22.8717C21.1384 22.5966 20.4329 22.3215 19.5991 22.0463C18.8616 21.8018 18.1241 21.5267 17.3224 21.2515C16.5528 20.9458 15.8473 20.579 15.1739 20.0899C14.5326 19.6313 13.9875 19.0505 13.5706 18.3779C13.1537 17.7054 12.9293 16.88 12.9293 15.9017C12.9293 15.0458 13.0896 14.2815 13.3782 13.609C13.6668 12.9364 14.0837 12.3556 14.5967 11.897C15.1098 11.4079 15.6229 11.0411 16.2963 10.7354C16.9697 10.4297 17.7393 10.2157 18.3806 10.0628V7.61719H22.2286V10.0017C23.1906 10.1239 24.0885 10.3685 24.9543 10.7048C25.8201 11.0411 26.6218 11.5302 27.3593 12.1722L24.5374 15.7183C23.9923 15.2903 23.351 14.9235 22.6455 14.6789C21.94 14.4344 21.2666 14.3121 20.6253 14.3121C20.3688 14.3121 20.1122 14.3121 19.8236 14.3426C19.535 14.3732 19.2785 14.4344 19.0219 14.5261C18.7654 14.6178 18.573 14.7706 18.4127 14.954C18.2523 15.1375 18.1561 15.382 18.1561 15.7183C18.1561 15.9934 18.2523 16.2074 18.4127 16.3909C18.573 16.5743 18.7975 16.7271 19.1181 16.88C19.4067 17.0328 19.7595 17.1551 20.1122 17.308C20.497 17.4302 20.8818 17.5525 21.2987 17.6748C22.0042 17.8888 22.7417 18.1639 23.5434 18.4391C24.313 18.7142 25.0184 19.1116 25.6918 19.5702C26.3332 20.0287 26.8783 20.6095 27.2952 21.3127C27.712 22.0158 27.9365 22.8717 27.9365 23.9111C27.9365 24.706 27.7762 25.4091 27.4555 26.0511C27.1348 26.693 26.718 27.2433 26.2049 27.7018C25.6918 28.1604 25.0826 28.5578 24.3771 28.8941C23.6716 29.1998 22.8379 29.4443 22.1966 29.5972V32.3791H18.4447V29.6889C17.4827 29.5666 16.168 29.2915 15.0457 28.8635C13.9233 28.4355 12.9613 27.8241 12.0635 26.9987L15.1098 23.2997Z" stroke="white"/>
</svg>
