<svg width="40" height="41" viewBox="0 0 40 41" fill="none" xmlns="http://www.w3.org/2000/svg">
<circle cx="20" cy="20.5156" r="19.5" fill="black" stroke="white"/>
<mask id="path-2-inside-1_2649_5230" fill="white">
<path d="M20.12 10.8511C22.561 10.8511 24.5465 12.8366 24.5465 15.2774C24.5465 15.5124 24.7369 15.7029 24.9721 15.7029C25.2073 15.7029 25.3976 15.5124 25.3976 15.2774C25.3976 12.3674 23.0302 10 20.12 10C17.2103 10 14.8428 12.3674 14.8428 15.2774V19.4664H13.7761C13.1523 19.4664 12.6445 19.974 12.6445 20.598V29.294C12.6445 29.9179 13.1523 30.4255 13.7761 30.4255H26.2229C26.8467 30.4255 27.3545 29.9179 27.3545 29.294V20.598C27.3545 19.974 26.8467 19.4664 26.2229 19.4664H15.6939V15.2774C15.6939 12.8366 17.6794 10.8511 20.12 10.8511ZM26.2229 20.3175C26.3775 20.3175 26.5034 20.4434 26.5034 20.598V29.294C26.5034 29.4486 26.3775 29.5745 26.2229 29.5745H13.7761C13.6215 29.5745 13.4956 29.4486 13.4956 29.294V20.598C13.4956 20.4434 13.6215 20.3175 13.7761 20.3175H26.2229Z"/>
</mask>
<path d="M20.12 10.8511C22.561 10.8511 24.5465 12.8366 24.5465 15.2774C24.5465 15.5124 24.7369 15.7029 24.9721 15.7029C25.2073 15.7029 25.3976 15.5124 25.3976 15.2774C25.3976 12.3674 23.0302 10 20.12 10C17.2103 10 14.8428 12.3674 14.8428 15.2774V19.4664H13.7761C13.1523 19.4664 12.6445 19.974 12.6445 20.598V29.294C12.6445 29.9179 13.1523 30.4255 13.7761 30.4255H26.2229C26.8467 30.4255 27.3545 29.9179 27.3545 29.294V20.598C27.3545 19.974 26.8467 19.4664 26.2229 19.4664H15.6939V15.2774C15.6939 12.8366 17.6794 10.8511 20.12 10.8511ZM26.2229 20.3175C26.3775 20.3175 26.5034 20.4434 26.5034 20.598V29.294C26.5034 29.4486 26.3775 29.5745 26.2229 29.5745H13.7761C13.6215 29.5745 13.4956 29.4486 13.4956 29.294V20.598C13.4956 20.4434 13.6215 20.3175 13.7761 20.3175H26.2229Z" fill="white"/>
<path d="M25.3976 15.2774H26.3976H25.3976ZM14.8428 19.4664V20.4664H15.8428V19.4664H14.8428ZM15.6939 19.4664H14.6939V20.4664H15.6939V19.4664ZM20.12 11.8511C22.0087 11.8511 23.5465 13.3889 23.5465 15.2774H25.5465C25.5465 12.2843 23.1133 9.85106 20.12 9.85106V11.8511ZM23.5465 15.2774C23.5465 16.0644 24.1843 16.7029 24.9721 16.7029V14.7029C25.2895 14.7029 25.5465 14.9604 25.5465 15.2774H23.5465ZM24.9721 16.7029C25.7599 16.7029 26.3976 16.0644 26.3976 15.2774H24.3976C24.3976 14.9604 24.6547 14.7029 24.9721 14.7029V16.7029ZM26.3976 15.2774C26.3976 11.8151 23.5824 9 20.12 9V11C22.4779 11 24.3976 12.9197 24.3976 15.2774H26.3976ZM20.12 9C16.658 9 13.8428 11.8152 13.8428 15.2774H15.8428C15.8428 12.9197 17.7626 11 20.12 11V9ZM13.8428 15.2774V19.4664H15.8428V15.2774H13.8428ZM14.8428 18.4664H13.7761V20.4664H14.8428V18.4664ZM13.7761 18.4664C12.6002 18.4664 11.6445 19.4216 11.6445 20.598H13.6445C13.6445 20.5264 13.7045 20.4664 13.7761 20.4664V18.4664ZM11.6445 20.598V29.294H13.6445V20.598H11.6445ZM11.6445 29.294C11.6445 30.4703 12.6002 31.4255 13.7761 31.4255V29.4255C13.7045 29.4255 13.6445 29.3655 13.6445 29.294H11.6445ZM13.7761 31.4255H26.2229V29.4255H13.7761V31.4255ZM26.2229 31.4255C27.3988 31.4255 28.3545 30.4703 28.3545 29.294H26.3545C26.3545 29.3655 26.2945 29.4255 26.2229 29.4255V31.4255ZM28.3545 29.294V20.598H26.3545V29.294H28.3545ZM28.3545 20.598C28.3545 19.4216 27.3988 18.4664 26.2229 18.4664V20.4664C26.2945 20.4664 26.3545 20.5264 26.3545 20.598H28.3545ZM26.2229 18.4664H15.6939V20.4664H26.2229V18.4664ZM16.6939 19.4664V15.2774H14.6939V19.4664H16.6939ZM16.6939 15.2774C16.6939 13.3889 18.2318 11.8511 20.12 11.8511V9.85106C17.1271 9.85106 14.6939 12.2843 14.6939 15.2774H16.6939ZM26.2229 21.3175C25.8252 21.3175 25.5034 20.9957 25.5034 20.598H27.5034C27.5034 19.8911 26.9298 19.3175 26.2229 19.3175V21.3175ZM25.5034 20.598V29.294H27.5034V20.598H25.5034ZM25.5034 29.294C25.5034 28.8963 25.8252 28.5745 26.2229 28.5745V30.5745C26.9298 30.5745 27.5034 30.0008 27.5034 29.294H25.5034ZM26.2229 28.5745H13.7761V30.5745H26.2229V28.5745ZM13.7761 28.5745C14.1738 28.5745 14.4956 28.8963 14.4956 29.294H12.4956C12.4956 30.0008 13.0692 30.5745 13.7761 30.5745V28.5745ZM14.4956 29.294V20.598H12.4956V29.294H14.4956ZM14.4956 20.598C14.4956 20.9957 14.1738 21.3175 13.7761 21.3175V19.3175C13.0692 19.3175 12.4956 19.8911 12.4956 20.598H14.4956ZM13.7761 21.3175H26.2229V19.3175H13.7761V21.3175Z" fill="white" mask="url(#path-2-inside-1_2649_5230)"/>
<path d="M18.3739 27.6049C18.2933 27.5081 18.2596 27.3801 18.2825 27.2559L18.6993 24.978C18.4275 24.6659 18.2754 24.2676 18.2754 23.8533C18.2754 22.9025 19.0487 22.1289 19.9995 22.1289C20.9503 22.1289 21.7237 22.9025 21.7237 23.8533C21.7237 24.2676 21.5716 24.6659 21.2998 24.978L21.7166 27.2559C21.7395 27.3801 21.7058 27.5081 21.6252 27.6049M18.3739 27.6049C18.4549 27.702 18.5746 27.7581 18.7009 27.7581H21.2982C21.4245 27.7581 21.5442 27.702 21.6252 27.6049M18.3739 27.6049L18.6115 27.4065L18.6274 27.3193L18.6275 27.319L18.7194 26.817L19.0445 25.0412L19.0771 24.8631C19.0369 24.8265 18.9991 24.7879 18.9638 24.7476C18.7483 24.5013 18.6265 24.1892 18.6265 23.8533C18.6265 23.0955 19.2422 22.48 19.9995 22.48C20.7569 22.48 21.3726 23.0955 21.3726 23.8533C21.3726 24.1892 21.2508 24.5013 21.0352 24.7476C21 24.7879 20.9621 24.8265 20.922 24.8631L20.9546 25.0412L21.2797 26.817L21.3716 27.319L21.3717 27.3193L21.3876 27.4065L21.6252 27.6049M18.3739 27.6049L18.6116 27.407H18.7009H19.2112H20.7879H21.2982H21.3875L21.6252 27.6049M19.3028 26.407H19.2112V26.907L19.7031 26.997L19.7195 26.907H20.2795L20.296 26.997L20.7879 26.907V26.407H20.6963H19.3028Z" fill="white" stroke="white"/>
</svg>
