<svg width="40" height="40" viewBox="0 0 40 40" fill="none" xmlns="http://www.w3.org/2000/svg">
<circle cx="20" cy="20" r="19.5" fill="black" stroke="white"/>
<path d="M29.5309 10.7294H29.5301C29.5304 10.7294 29.5306 10.7294 29.5309 10.7294ZM29.5315 11.2294V10.9766V11.2294ZM10.6592 11.518C10.6592 11.518 10.6592 11.518 10.6592 11.5179C10.6595 11.3864 10.6995 11.2653 10.7646 11.1715C10.7777 11.1527 10.7919 11.1349 10.8069 11.1184C10.8952 11.0213 11.0042 10.9768 11.1068 10.9766L10.6592 11.518Z" fill="url(#paint0_linear_2649_5161)" stroke="white"/>
<path d="M26.3209 13.0093C26.3209 12.9925 26.326 12.9694 26.345 12.9457C26.364 12.9694 26.3691 12.9925 26.3691 13.0093C26.3691 13.026 26.364 13.0491 26.345 13.0728C26.326 13.0491 26.3209 13.026 26.3209 13.0093Z" fill="url(#paint1_linear_2649_5161)" stroke="white"/>
<mask id="path-4-inside-1_2649_5161" fill="white">
<path d="M27.7988 12.6328H27.5329C27.442 12.6328 27.3549 12.6725 27.2907 12.7431C27.2265 12.8137 27.1904 12.9094 27.1904 13.0093C27.1904 13.1091 27.2265 13.2048 27.2907 13.2754C27.3549 13.346 27.442 13.3857 27.5329 13.3857H27.7995C27.8903 13.3857 27.9774 13.346 28.0416 13.2754C28.1058 13.2048 28.1419 13.1091 28.1419 13.0093C28.1419 12.9094 28.1058 12.8137 28.0416 12.7431C27.9774 12.6725 27.8903 12.6328 27.7995 12.6328H27.7988Z"/>
</mask>
<path d="M27.7988 12.6328H27.5329C27.442 12.6328 27.3549 12.6725 27.2907 12.7431C27.2265 12.8137 27.1904 12.9094 27.1904 13.0093C27.1904 13.1091 27.2265 13.2048 27.2907 13.2754C27.3549 13.346 27.442 13.3857 27.5329 13.3857H27.7995C27.8903 13.3857 27.9774 13.346 28.0416 13.2754C28.1058 13.2048 28.1419 13.1091 28.1419 13.0093C28.1419 12.9094 28.1058 12.8137 28.0416 12.7431C27.9774 12.6725 27.8903 12.6328 27.7995 12.6328H27.7988Z" fill="url(#paint2_linear_2649_5161)"/>
<path d="M27.7988 11.6328H27.5329V13.6328H27.7988V11.6328ZM27.5329 11.6328C27.1446 11.6328 26.7938 11.8032 26.551 12.0702L28.0305 13.416C27.916 13.5417 27.7395 13.6328 27.5329 13.6328V11.6328ZM26.551 12.0702C26.311 12.334 26.1904 12.6732 26.1904 13.0093H28.1904C28.1904 13.1457 28.142 13.2933 28.0305 13.416L26.551 12.0702ZM26.1904 13.0093C26.1904 13.3454 26.311 13.6845 26.551 13.9483L28.0305 12.6025C28.142 12.7252 28.1904 12.8728 28.1904 13.0093H26.1904ZM26.551 13.9483C26.7938 14.2153 27.1446 14.3857 27.5329 14.3857V12.3857C27.7395 12.3857 27.916 12.4768 28.0305 12.6025L26.551 13.9483ZM27.5329 14.3857H27.7995V12.3857H27.5329V14.3857ZM27.7995 14.3857C28.1877 14.3857 28.5385 14.2153 28.7814 13.9483L27.3019 12.6025C27.4163 12.4768 27.5929 12.3857 27.7995 12.3857V14.3857ZM28.7814 13.9483C29.0213 13.6845 29.1419 13.3454 29.1419 13.0093H27.1419C27.1419 12.8728 27.1904 12.7252 27.3019 12.6025L28.7814 13.9483ZM29.1419 13.0093C29.1419 12.6732 29.0213 12.334 28.7814 12.0702L27.3019 13.416C27.1904 13.2933 27.1419 13.1457 27.1419 13.0093H29.1419ZM28.7814 12.0702C28.5385 11.8032 28.1877 11.6328 27.7995 11.6328V13.6328C27.5929 13.6328 27.4163 13.5417 27.3019 13.416L28.7814 12.0702ZM27.7995 11.6328H27.7988V13.6328H27.7995V11.6328Z" fill="white" mask="url(#path-4-inside-1_2649_5161)"/>
<mask id="path-6-inside-2_2649_5161" fill="white">
<path d="M29.1159 12.6328H28.8493C28.7584 12.6328 28.6713 12.6725 28.6071 12.7431C28.5429 12.8137 28.5068 12.9094 28.5068 13.0093C28.5068 13.1091 28.5429 13.2048 28.6071 13.2754C28.6713 13.346 28.7584 13.3857 28.8493 13.3857H29.1159C29.2067 13.3857 29.2938 13.346 29.358 13.2754C29.4223 13.2048 29.4583 13.1091 29.4583 13.0093C29.4583 12.9094 29.4223 12.8137 29.358 12.7431C29.2938 12.6725 29.2067 12.6328 29.1159 12.6328Z"/>
</mask>
<path d="M29.1159 12.6328H28.8493C28.7584 12.6328 28.6713 12.6725 28.6071 12.7431C28.5429 12.8137 28.5068 12.9094 28.5068 13.0093C28.5068 13.1091 28.5429 13.2048 28.6071 13.2754C28.6713 13.346 28.7584 13.3857 28.8493 13.3857H29.1159C29.2067 13.3857 29.2938 13.346 29.358 13.2754C29.4223 13.2048 29.4583 13.1091 29.4583 13.0093C29.4583 12.9094 29.4223 12.8137 29.358 12.7431C29.2938 12.6725 29.2067 12.6328 29.1159 12.6328Z" fill="url(#paint3_linear_2649_5161)"/>
<path d="M29.1159 11.6328H28.8493V13.6328H29.1159V11.6328ZM28.8493 11.6328C28.461 11.6328 28.1102 11.8032 27.8674 12.0702L29.3469 13.416C29.2325 13.5417 29.0559 13.6328 28.8493 13.6328V11.6328ZM27.8674 12.0702C27.6274 12.334 27.5068 12.6732 27.5068 13.0093H29.5068C29.5068 13.1457 29.4584 13.2933 29.3469 13.416L27.8674 12.0702ZM27.5068 13.0093C27.5068 13.3454 27.6274 13.6845 27.8674 13.9483L29.3469 12.6025C29.4584 12.7252 29.5068 12.8728 29.5068 13.0093H27.5068ZM27.8674 13.9483C28.1102 14.2153 28.461 14.3857 28.8493 14.3857V12.3857C29.0559 12.3857 29.2325 12.4768 29.3469 12.6025L27.8674 13.9483ZM28.8493 14.3857H29.1159V12.3857H28.8493V14.3857ZM29.1159 14.3857C29.5041 14.3857 29.8549 14.2153 30.0978 13.9483L28.6183 12.6025C28.7327 12.4768 28.9093 12.3857 29.1159 12.3857V14.3857ZM30.0978 13.9483C30.3378 13.6845 30.4583 13.3454 30.4583 13.0093H28.4583C28.4583 12.8728 28.5068 12.7252 28.6183 12.6025L30.0978 13.9483ZM30.4583 13.0093C30.4583 12.6732 30.3378 12.334 30.0978 12.0702L28.6183 13.416C28.5068 13.2933 28.4583 13.1457 28.4583 13.0093H30.4583ZM30.0978 12.0702C29.8549 11.8032 29.5041 11.6328 29.1159 11.6328V13.6328C28.9093 13.6328 28.7327 13.5417 28.6183 13.416L30.0978 12.0702Z" fill="white" mask="url(#path-6-inside-2_2649_5161)"/>
<mask id="path-8-inside-3_2649_5161" fill="white">
<path d="M15.0803 18.8671C15.4182 18.8672 15.7488 18.759 16.0315 18.5556C16.107 18.5008 16.1597 18.4153 16.1781 18.3179C16.1965 18.2205 16.179 18.119 16.1295 18.0357C16.0801 17.9524 16.0026 17.894 15.9141 17.8733C15.8256 17.8526 15.7332 17.8713 15.6571 17.9252C15.521 18.0238 15.3659 18.0861 15.204 18.107C15.0421 18.128 14.878 18.1071 14.7248 18.046C14.5716 17.9848 14.4335 17.8852 14.3215 17.755C14.2095 17.6248 14.1268 17.4676 14.0798 17.296C14.0329 17.1244 14.0231 16.9431 14.0513 16.7666C14.0794 16.5901 14.1446 16.4233 14.2418 16.2794C14.339 16.1356 14.4654 16.0187 14.611 15.9381C14.7566 15.8575 14.9173 15.8154 15.0803 15.8151C15.268 15.8146 15.4524 15.8701 15.6138 15.9757C15.6523 16.0018 15.6952 16.0191 15.7399 16.0268C15.7846 16.0345 15.8303 16.0324 15.8742 16.0206C15.9182 16.0088 15.9596 15.9875 15.996 15.958C16.0325 15.9285 16.0632 15.8913 16.0865 15.8487C16.1098 15.806 16.1252 15.7587 16.1317 15.7095C16.1383 15.6603 16.1359 15.6101 16.1247 15.5619C16.1135 15.5137 16.0938 15.4684 16.0666 15.4287C16.0394 15.3889 16.0053 15.3555 15.9662 15.3303C15.7374 15.1805 15.4801 15.0908 15.2145 15.0682C14.949 15.0456 14.6822 15.0907 14.4351 15.2C14.188 15.3093 13.9671 15.4798 13.7898 15.6983C13.6125 15.9168 13.4834 16.1774 13.4127 16.4597C13.342 16.742 13.3315 17.0385 13.3821 17.326C13.4327 17.6135 13.5429 17.8843 13.7043 18.1173C13.8657 18.3502 14.0738 18.5391 14.3125 18.6692C14.5511 18.7992 14.8139 18.8669 15.0803 18.8671Z"/>
</mask>
<path d="M15.0803 18.8671C15.4182 18.8672 15.7488 18.759 16.0315 18.5556C16.107 18.5008 16.1597 18.4153 16.1781 18.3179C16.1965 18.2205 16.179 18.119 16.1295 18.0357C16.0801 17.9524 16.0026 17.894 15.9141 17.8733C15.8256 17.8526 15.7332 17.8713 15.6571 17.9252C15.521 18.0238 15.3659 18.0861 15.204 18.107C15.0421 18.128 14.878 18.1071 14.7248 18.046C14.5716 17.9848 14.4335 17.8852 14.3215 17.755C14.2095 17.6248 14.1268 17.4676 14.0798 17.296C14.0329 17.1244 14.0231 16.9431 14.0513 16.7666C14.0794 16.5901 14.1446 16.4233 14.2418 16.2794C14.339 16.1356 14.4654 16.0187 14.611 15.9381C14.7566 15.8575 14.9173 15.8154 15.0803 15.8151C15.268 15.8146 15.4524 15.8701 15.6138 15.9757C15.6523 16.0018 15.6952 16.0191 15.7399 16.0268C15.7846 16.0345 15.8303 16.0324 15.8742 16.0206C15.9182 16.0088 15.9596 15.9875 15.996 15.958C16.0325 15.9285 16.0632 15.8913 16.0865 15.8487C16.1098 15.806 16.1252 15.7587 16.1317 15.7095C16.1383 15.6603 16.1359 15.6101 16.1247 15.5619C16.1135 15.5137 16.0938 15.4684 16.0666 15.4287C16.0394 15.3889 16.0053 15.3555 15.9662 15.3303C15.7374 15.1805 15.4801 15.0908 15.2145 15.0682C14.949 15.0456 14.6822 15.0907 14.4351 15.2C14.188 15.3093 13.9671 15.4798 13.7898 15.6983C13.6125 15.9168 13.4834 16.1774 13.4127 16.4597C13.342 16.742 13.3315 17.0385 13.3821 17.326C13.4327 17.6135 13.5429 17.8843 13.7043 18.1173C13.8657 18.3502 14.0738 18.5391 14.3125 18.6692C14.5511 18.7992 14.8139 18.8669 15.0803 18.8671Z" fill="url(#paint4_linear_2649_5161)"/>
<path d="M15.0803 18.8671L15.0798 19.8671H15.0798L15.0803 18.8671ZM16.0315 18.5556L16.6154 19.3675L16.6191 19.3648L16.0315 18.5556ZM15.6571 17.9252L15.0785 17.1095L15.0705 17.1154L15.6571 17.9252ZM15.0803 15.8151L15.0817 16.8151L15.0829 16.8151L15.0803 15.8151ZM15.6138 15.9757L16.1732 15.1467L16.1614 15.139L15.6138 15.9757ZM15.9662 15.3303L15.4186 16.167L15.4241 16.1705L15.9662 15.3303ZM15.0798 19.8671C15.6342 19.8673 16.168 19.6892 16.6154 19.3675L15.4477 17.7438C15.3295 17.8287 15.2021 17.8671 15.0807 17.8671L15.0798 19.8671ZM16.6191 19.3648C16.9148 19.1501 17.0984 18.8342 17.1608 18.5031L15.1954 18.1326C15.2211 17.9965 15.2993 17.8515 15.444 17.7464L16.6191 19.3648ZM17.1608 18.5031C17.2231 18.1726 17.1662 17.8229 16.9893 17.5251L15.2697 18.5463C15.1918 18.4151 15.1698 18.2683 15.1954 18.1326L17.1608 18.5031ZM16.9893 17.5251C16.8112 17.2251 16.5141 16.9867 16.1419 16.8996L15.6863 18.847C15.4911 18.8014 15.349 18.6798 15.2697 18.5463L16.9893 17.5251ZM16.1419 16.8996C15.7663 16.8117 15.3815 16.8947 15.0786 17.1096L16.2357 18.7408C16.0849 18.8478 15.8848 18.8935 15.6863 18.847L16.1419 16.8996ZM15.0705 17.1154C15.0677 17.1174 15.0667 17.1176 15.0678 17.1172C15.069 17.1167 15.0716 17.1158 15.0755 17.1153L15.3324 19.0987C15.6649 19.0557 15.9767 18.9285 16.2438 18.735L15.0705 17.1154ZM15.0755 17.1153C15.0795 17.1148 15.0836 17.1148 15.0876 17.1153C15.0915 17.1158 15.0941 17.1167 15.0953 17.1171L14.3543 18.9748C14.664 19.0983 14.9997 19.1418 15.3324 19.0987L15.0755 17.1153ZM15.0953 17.1171C15.0979 17.1182 15.0911 17.1162 15.0797 17.103L13.5633 18.407C13.7758 18.6542 14.0452 18.8515 14.3543 18.9748L15.0953 17.1171ZM15.0797 17.103C15.068 17.0894 15.0537 17.066 15.0444 17.0323L13.1152 17.5597C13.1998 17.8692 13.351 18.1602 13.5633 18.407L15.0797 17.103ZM15.0444 17.0323C15.0352 16.9985 15.0329 16.9608 15.0388 16.924L13.0637 16.6093C13.0133 16.9255 13.0307 17.2503 13.1152 17.5597L15.0444 17.0323ZM15.0388 16.924C15.0447 16.8872 15.0574 16.8585 15.0705 16.8392L13.4132 15.7196C13.2319 15.9881 13.1141 16.293 13.0637 16.6093L15.0388 16.924ZM15.0705 16.8392C15.0833 16.8202 15.0939 16.8138 15.0955 16.8129L14.1265 15.0633C13.837 15.2236 13.5947 15.4509 13.4132 15.7196L15.0705 16.8392ZM15.0955 16.8129C15.0963 16.8124 15.0953 16.8131 15.0925 16.8138C15.0897 16.8145 15.086 16.8151 15.0817 16.8151L15.0789 14.8151C14.7432 14.8156 14.4167 14.9025 14.1265 15.0633L15.0955 16.8129ZM15.0829 16.8151C15.0771 16.8151 15.0721 16.8142 15.0686 16.8132C15.0652 16.8122 15.0645 16.8114 15.0661 16.8125L16.1614 15.139C15.8412 14.9294 15.4663 14.8141 15.0776 14.8151L15.0829 16.8151ZM15.0544 16.8047C15.2072 16.9078 15.3824 16.98 15.5702 17.0123L15.9096 15.0413C16.008 15.0583 16.0974 15.0957 16.1731 15.1468L15.0544 16.8047ZM15.5702 17.0123C15.7583 17.0447 15.9504 17.0356 16.1338 16.9863L15.6147 15.0549C15.7102 15.0292 15.811 15.0244 15.9096 15.0413L15.5702 17.0123ZM16.1338 16.9863C16.317 16.9371 16.4836 16.8499 16.6254 16.7351L15.3666 15.1809C15.4356 15.1251 15.5194 15.0805 15.6147 15.0549L16.1338 16.9863ZM16.6254 16.7351C16.767 16.6204 16.8807 16.4808 16.9642 16.3279L15.2088 15.3694C15.2457 15.3018 15.2979 15.2365 15.3666 15.1809L16.6254 16.7351ZM16.9642 16.3279C17.0476 16.1752 17.1005 16.0098 17.123 15.8416L15.1405 15.5774C15.1498 15.5076 15.172 15.4369 15.2088 15.3694L16.9642 16.3279ZM17.123 15.8416C17.1454 15.6734 17.1374 15.5019 17.0988 15.3359L15.1506 15.7879C15.1344 15.7183 15.1312 15.6472 15.1405 15.5774L17.123 15.8416ZM17.0988 15.3359C17.0603 15.1699 16.9913 15.0092 16.8919 14.864L15.2412 15.9933C15.1963 15.9276 15.1667 15.8575 15.1506 15.7879L17.0988 15.3359ZM16.8919 14.864C16.7924 14.7186 16.6634 14.59 16.5084 14.49L15.4241 16.1705C15.3472 16.1209 15.2863 16.0592 15.2412 15.9933L16.8919 14.864ZM16.5139 14.4936C16.1501 14.2555 15.7345 14.1088 15.2993 14.0718L15.1297 16.0646C15.2257 16.0727 15.3246 16.1055 15.4186 16.167L16.5139 14.4936ZM15.2993 14.0718C14.864 14.0347 14.4291 14.1092 14.0306 14.2855L14.8396 16.1145C14.9353 16.0722 15.034 16.0564 15.1297 16.0646L15.2993 14.0718ZM14.0306 14.2855C13.6327 14.4615 13.2862 14.732 13.0134 15.0682L14.5663 16.3285C14.6481 16.2276 14.7433 16.1571 14.8396 16.1145L14.0306 14.2855ZM13.0134 15.0682C12.7408 15.404 12.5476 15.7977 12.4427 16.2167L14.3827 16.7027C14.4192 16.5571 14.4841 16.4297 14.5663 16.3285L13.0134 15.0682ZM12.4427 16.2167C12.3377 16.6356 12.3224 17.0739 12.3972 17.4993L14.3669 17.1527C14.3406 17.0031 14.3462 16.8484 14.3827 16.7027L12.4427 16.2167ZM12.3972 17.4993C12.472 17.9247 12.6361 18.3314 12.8823 18.6867L14.5263 17.5478C14.4497 17.4372 14.3933 17.3024 14.3669 17.1527L12.3972 17.4993ZM12.8823 18.6867C13.1286 19.0423 13.4524 19.3393 13.834 19.5472L14.791 17.7911C14.6953 17.7389 14.6028 17.6582 14.5263 17.5478L12.8823 18.6867ZM13.834 19.5472C14.2162 19.7555 14.6429 19.8669 15.0798 19.8671L15.0807 17.8671C14.9849 17.867 14.8861 17.8429 14.791 17.7911L13.834 19.5472Z" fill="white" mask="url(#path-8-inside-3_2649_5161)"/>
<mask id="path-10-inside-4_2649_5161" fill="white">
<path d="M26.9386 16.5938H17.7213C17.6305 16.5938 17.5434 16.6334 17.4792 16.704C17.415 16.7746 17.3789 16.8704 17.3789 16.9702C17.3789 17.07 17.415 17.1658 17.4792 17.2364C17.5434 17.307 17.6305 17.3466 17.7213 17.3466H26.9386C27.0294 17.3466 27.1165 17.307 27.1807 17.2364C27.245 17.1658 27.281 17.07 27.281 16.9702C27.281 16.8704 27.245 16.7746 27.1807 16.704C27.1165 16.6334 27.0294 16.5938 26.9386 16.5938Z"/>
</mask>
<path d="M26.9386 16.5938H17.7213C17.6305 16.5938 17.5434 16.6334 17.4792 16.704C17.415 16.7746 17.3789 16.8704 17.3789 16.9702C17.3789 17.07 17.415 17.1658 17.4792 17.2364C17.5434 17.307 17.6305 17.3466 17.7213 17.3466H26.9386C27.0294 17.3466 27.1165 17.307 27.1807 17.2364C27.245 17.1658 27.281 17.07 27.281 16.9702C27.281 16.8704 27.245 16.7746 27.1807 16.704C27.1165 16.6334 27.0294 16.5938 26.9386 16.5938Z" fill="url(#paint5_linear_2649_5161)"/>
<path d="M26.9386 15.5938H17.7213V17.5938H26.9386V15.5938ZM17.7213 15.5938C17.3331 15.5938 16.9823 15.7641 16.7395 16.0311L18.2189 17.3769C18.1045 17.5027 17.9279 17.5938 17.7213 17.5938V15.5938ZM16.7395 16.0311C16.4995 16.2949 16.3789 16.6341 16.3789 16.9702H18.3789C18.3789 17.1066 18.3305 17.2543 18.2189 17.3769L16.7395 16.0311ZM16.3789 16.9702C16.3789 17.3063 16.4995 17.6455 16.7395 17.9093L18.2189 16.5635C18.3305 16.6861 18.3789 16.8338 18.3789 16.9702H16.3789ZM16.7395 17.9093C16.9823 18.1762 17.3331 18.3466 17.7213 18.3466V16.3466C17.9279 16.3466 18.1045 16.4377 18.2189 16.5635L16.7395 17.9093ZM17.7213 18.3466H26.9386V16.3466H17.7213V18.3466ZM26.9386 18.3466C27.3268 18.3466 27.6776 18.1762 27.9205 17.9093L26.441 16.5635C26.5554 16.4377 26.732 16.3466 26.9386 16.3466V18.3466ZM27.9205 17.9093C28.1605 17.6455 28.281 17.3063 28.281 16.9702H26.281C26.281 16.8338 26.3295 16.6861 26.441 16.5635L27.9205 17.9093ZM28.281 16.9702C28.281 16.6341 28.1605 16.2949 27.9205 16.0311L26.441 17.3769C26.3295 17.2543 26.281 17.1066 26.281 16.9702H28.281ZM27.9205 16.0311C27.6776 15.7641 27.3269 15.5938 26.9386 15.5938V17.5938C26.732 17.5938 26.5554 17.5027 26.441 17.3769L27.9205 16.0311Z" fill="white" mask="url(#path-10-inside-4_2649_5161)"/>
<mask id="path-12-inside-5_2649_5161" fill="white">
<path d="M16.4078 15.8591L15.5859 16.7613L15.3348 16.4852C15.3032 16.4493 15.2655 16.4206 15.2237 16.4009C15.1819 16.3811 15.137 16.3707 15.0915 16.3703C15.046 16.3699 15.0009 16.3794 14.9589 16.3983C14.9168 16.4173 14.8785 16.4452 14.8464 16.4806C14.8142 16.5159 14.7888 16.5579 14.7716 16.6042C14.7544 16.6505 14.7457 16.7 14.7461 16.75C14.7465 16.8 14.7559 16.8494 14.7739 16.8953C14.7918 16.9412 14.8179 16.9828 14.8506 17.0175L15.3444 17.5603C15.4086 17.6309 15.4957 17.6706 15.5865 17.6706C15.6773 17.6706 15.7644 17.6309 15.8286 17.5603L16.8917 16.3919C16.9541 16.3209 16.9886 16.2258 16.9878 16.1271C16.9871 16.0284 16.9511 15.934 16.8876 15.8642C16.8241 15.7944 16.7382 15.7548 16.6484 15.7539C16.5586 15.7531 16.4721 15.791 16.4075 15.8596L16.4078 15.8591Z"/>
</mask>
<path d="M16.4078 15.8591L15.5859 16.7613L15.3348 16.4852C15.3032 16.4493 15.2655 16.4206 15.2237 16.4009C15.1819 16.3811 15.137 16.3707 15.0915 16.3703C15.046 16.3699 15.0009 16.3794 14.9589 16.3983C14.9168 16.4173 14.8785 16.4452 14.8464 16.4806C14.8142 16.5159 14.7888 16.5579 14.7716 16.6042C14.7544 16.6505 14.7457 16.7 14.7461 16.75C14.7465 16.8 14.7559 16.8494 14.7739 16.8953C14.7918 16.9412 14.8179 16.9828 14.8506 17.0175L15.3444 17.5603C15.4086 17.6309 15.4957 17.6706 15.5865 17.6706C15.6773 17.6706 15.7644 17.6309 15.8286 17.5603L16.8917 16.3919C16.9541 16.3209 16.9886 16.2258 16.9878 16.1271C16.9871 16.0284 16.9511 15.934 16.8876 15.8642C16.8241 15.7944 16.7382 15.7548 16.6484 15.7539C16.5586 15.7531 16.4721 15.791 16.4075 15.8596L16.4078 15.8591Z" fill="url(#paint6_linear_2649_5161)"/>
<path d="M16.4078 15.8591L17.318 16.2731L15.6685 15.1857L16.4078 15.8591ZM15.5859 16.7613L14.8462 17.4342L15.5854 18.2468L16.3252 17.4347L15.5859 16.7613ZM15.3348 16.4852L14.5836 17.1452L14.5893 17.1517L14.5951 17.1581L15.3348 16.4852ZM14.8506 17.0175L15.5904 16.3446L15.5845 16.3382L15.5786 16.3319L14.8506 17.0175ZM15.3444 17.5603L14.6047 18.2332L14.6048 18.2333L15.3444 17.5603ZM15.8286 17.5603L16.5682 18.2333L16.5683 18.2333L15.8286 17.5603ZM16.8917 16.3919L17.6314 17.0648L17.6372 17.0584L17.643 17.0519L16.8917 16.3919ZM16.4075 15.8596L15.4973 15.4456L17.1355 16.5452L16.4075 15.8596ZM15.6685 15.1857L14.8467 16.0879L16.3252 17.4347L17.147 16.5325L15.6685 15.1857ZM16.3257 16.0884L16.0746 15.8123L14.5951 17.1581L14.8462 17.4342L16.3257 16.0884ZM16.0861 15.8252C15.9676 15.6903 15.8206 15.5768 15.6507 15.4966L14.7967 17.3051C14.7103 17.2643 14.6389 17.2082 14.5836 17.1452L16.0861 15.8252ZM15.6507 15.4966C15.4805 15.4162 15.2933 15.3722 15.1011 15.3704L15.0819 17.3703C14.9806 17.3693 14.8833 17.346 14.7967 17.3051L15.6507 15.4966ZM15.1011 15.3704C14.9088 15.3685 14.7206 15.409 14.5487 15.4863L15.369 17.3103C15.2812 17.3498 15.1833 17.3712 15.0819 17.3703L15.1011 15.3704ZM14.5487 15.4863C14.377 15.5635 14.2278 15.6745 14.1067 15.8077L15.5861 17.1535C15.5293 17.2159 15.4565 17.271 15.369 17.3103L14.5487 15.4863ZM14.1067 15.8077C13.9857 15.9406 13.8946 16.0935 13.8344 16.2554L15.7088 16.953C15.683 17.0223 15.6427 17.0912 15.5861 17.1535L14.1067 15.8077ZM13.8344 16.2554C13.7742 16.4172 13.7448 16.5878 13.7461 16.7579L15.7461 16.7421C15.7466 16.8123 15.7346 16.8837 15.7088 16.953L13.8344 16.2554ZM13.7461 16.7579C13.7475 16.9281 13.7796 17.0983 13.8425 17.2593L15.7053 16.5314C15.7323 16.6005 15.7455 16.6719 15.7461 16.7421L13.7461 16.7579ZM13.8425 17.2593C13.9054 17.4204 13.9992 17.572 14.1227 17.7031L15.5786 16.3319C15.6366 16.3935 15.6783 16.4621 15.7053 16.5314L13.8425 17.2593ZM14.1109 17.6904L14.6047 18.2332L16.0841 16.8874L15.5904 16.3446L14.1109 17.6904ZM14.6048 18.2333C14.8476 18.5002 15.1984 18.6706 15.5865 18.6706V16.6706C15.7931 16.6706 15.9696 16.7616 16.084 16.8873L14.6048 18.2333ZM15.5865 18.6706C15.9747 18.6706 16.3254 18.5002 16.5682 18.2333L15.089 16.8873C15.2034 16.7616 15.3799 16.6706 15.5865 16.6706V18.6706ZM16.5683 18.2333L17.6314 17.0648L16.1521 15.7189L15.0889 16.8874L16.5683 18.2333ZM17.643 17.0519C17.8752 16.7876 17.9904 16.4515 17.9878 16.1192L15.9879 16.135C15.9868 16 16.033 15.8542 16.1405 15.7318L17.643 17.0519ZM17.9878 16.1192C17.9852 15.7868 17.8646 15.4521 17.6273 15.1913L16.1478 16.5371C16.0375 16.4158 15.9889 16.27 15.9879 16.135L17.9878 16.1192ZM17.6273 15.1913C17.3873 14.9274 17.0416 14.7576 16.658 14.754L16.6389 16.7539C16.4348 16.7519 16.2609 16.6614 16.1478 16.5371L17.6273 15.1913ZM16.658 14.754C16.2742 14.7503 15.9248 14.9136 15.6796 15.174L17.1355 16.5452C17.0194 16.6684 16.8431 16.7558 16.6389 16.7539L16.658 14.754ZM17.3178 16.2736L17.318 16.2731L15.4975 15.4451L15.4973 15.4456L17.3178 16.2736Z" fill="white" mask="url(#path-12-inside-5_2649_5161)"/>
<path d="M15.7835 19.9614L15.7515 19.944L15.7835 19.9614ZM15.7835 19.9614L15.8034 19.9722L15.7835 19.9614Z" fill="url(#paint7_linear_2649_5161)" stroke="white"/>
<mask id="path-15-inside-6_2649_5161" fill="white">
<path d="M26.9386 20.8711H17.7213C17.6305 20.8711 17.5434 20.9108 17.4792 20.9814C17.415 21.0519 17.3789 21.1477 17.3789 21.2475C17.3789 21.3474 17.415 21.4431 17.4792 21.5137C17.5434 21.5843 17.6305 21.624 17.7213 21.624H26.9386C27.0294 21.624 27.1165 21.5843 27.1807 21.5137C27.245 21.4431 27.281 21.3474 27.281 21.2475C27.281 21.1477 27.245 21.0519 27.1807 20.9814C27.1165 20.9108 27.0294 20.8711 26.9386 20.8711Z"/>
</mask>
<path d="M26.9386 20.8711H17.7213C17.6305 20.8711 17.5434 20.9108 17.4792 20.9814C17.415 21.0519 17.3789 21.1477 17.3789 21.2475C17.3789 21.3474 17.415 21.4431 17.4792 21.5137C17.5434 21.5843 17.6305 21.624 17.7213 21.624H26.9386C27.0294 21.624 27.1165 21.5843 27.1807 21.5137C27.245 21.4431 27.281 21.3474 27.281 21.2475C27.281 21.1477 27.245 21.0519 27.1807 20.9814C27.1165 20.9108 27.0294 20.8711 26.9386 20.8711Z" fill="url(#paint8_linear_2649_5161)"/>
<path d="M17.7213 20.8711V21.8711V20.8711ZM26.9386 21.624V22.624V21.624ZM26.9386 19.8711H17.7213V21.8711H26.9386V19.8711ZM17.7213 19.8711C17.3331 19.8711 16.9823 20.0415 16.7395 20.3085L18.2189 21.6542C18.1045 21.78 17.9279 21.8711 17.7213 21.8711V19.8711ZM16.7395 20.3085C16.4995 20.5723 16.3789 20.9114 16.3789 21.2475H18.3789C18.3789 21.384 18.3305 21.5316 18.2189 21.6542L16.7395 20.3085ZM16.3789 21.2475C16.3789 21.5836 16.4995 21.9228 16.7395 22.1866L18.2189 20.8408C18.3305 20.9634 18.3789 21.1111 18.3789 21.2475H16.3789ZM16.7395 22.1866C16.9823 22.4536 17.3331 22.624 17.7213 22.624V20.624C17.9279 20.624 18.1045 20.715 18.2189 20.8408L16.7395 22.1866ZM17.7213 22.624H26.9386V20.624H17.7213V22.624ZM26.9386 22.624C27.3268 22.624 27.6776 22.4536 27.9205 22.1866L26.441 20.8408C26.5554 20.715 26.732 20.624 26.9386 20.624V22.624ZM27.9205 22.1866C28.1605 21.9228 28.281 21.5836 28.281 21.2475H26.281C26.281 21.1111 26.3295 20.9634 26.441 20.8408L27.9205 22.1866ZM28.281 21.2475C28.281 20.9114 28.1605 20.5723 27.9205 20.3085L26.441 21.6542C26.3295 21.5316 26.281 21.384 26.281 21.2475H28.281ZM27.9205 20.3085C27.6776 20.0415 27.3268 19.8711 26.9386 19.8711V21.8711C26.732 21.8711 26.5554 21.78 26.441 21.6542L27.9205 20.3085Z" fill="white" mask="url(#path-15-inside-6_2649_5161)"/>
<mask id="path-17-inside-7_2649_5161" fill="white">
<path d="M16.3994 20.1354L15.5775 21.0389L15.3264 20.7628C15.2618 20.6942 15.1753 20.6563 15.0855 20.6572C14.9958 20.658 14.9099 20.6976 14.8464 20.7674C14.7829 20.8372 14.7469 20.9316 14.7461 21.0303C14.7453 21.129 14.7798 21.2241 14.8422 21.2951L15.336 21.8379C15.4002 21.9085 15.4873 21.9481 15.5781 21.9481C15.6689 21.9481 15.756 21.9085 15.8202 21.8379L16.8833 20.6692C16.9457 20.5982 16.9802 20.5031 16.9794 20.4044C16.9787 20.3057 16.9426 20.2113 16.8792 20.1415C16.8157 20.0717 16.7298 20.0321 16.64 20.0313C16.5502 20.0304 16.4637 20.0683 16.3991 20.1369L16.3994 20.1354Z"/>
</mask>
<path d="M16.3994 20.1354L15.5775 21.0389L15.3264 20.7628C15.2618 20.6942 15.1753 20.6563 15.0855 20.6572C14.9958 20.658 14.9099 20.6976 14.8464 20.7674C14.7829 20.8372 14.7469 20.9316 14.7461 21.0303C14.7453 21.129 14.7798 21.2241 14.8422 21.2951L15.336 21.8379C15.4002 21.9085 15.4873 21.9481 15.5781 21.9481C15.6689 21.9481 15.756 21.9085 15.8202 21.8379L16.8833 20.6692C16.9457 20.5982 16.9802 20.5031 16.9794 20.4044C16.9787 20.3057 16.9426 20.2113 16.8792 20.1415C16.8157 20.0717 16.7298 20.0321 16.64 20.0313C16.5502 20.0304 16.4637 20.0683 16.3991 20.1369L16.3994 20.1354Z" fill="url(#paint9_linear_2649_5161)"/>
<path d="M16.3994 20.1354L17.3881 20.2852L17.8831 17.0182L15.6596 19.4625L16.3994 20.1354ZM15.5775 21.0389L14.8378 21.7118L15.5775 22.525L16.3173 21.7118L15.5775 21.0389ZM15.3264 20.7628L16.0661 20.0899L16.0603 20.0835L16.0544 20.0772L15.3264 20.7628ZM14.8422 21.2951L14.091 21.9551L14.0967 21.9616L14.1025 21.968L14.8422 21.2951ZM15.336 21.8379L14.5963 22.5108L14.5964 22.5109L15.336 21.8379ZM15.8202 21.8379L16.5598 22.5109L16.5599 22.5108L15.8202 21.8379ZM16.8833 20.6692L17.6231 21.3421L17.6289 21.3357L17.6346 21.3292L16.8833 20.6692ZM16.3991 20.1369L15.4104 19.9871L14.9305 23.1548L17.1271 20.8225L16.3991 20.1369ZM15.6596 19.4625L14.8378 20.366L16.3173 21.7118L17.1391 20.8083L15.6596 19.4625ZM16.3173 20.366L16.0661 20.0899L14.5867 21.4357L14.8378 21.7118L16.3173 20.366ZM16.0544 20.0772C15.8091 19.8168 15.4598 19.6535 15.076 19.6572L15.0951 21.6571C14.8909 21.6591 14.7145 21.5717 14.5984 21.4484L16.0544 20.0772ZM15.076 19.6572C14.6924 19.6609 14.3467 19.8306 14.1067 20.0945L15.5861 21.4403C15.4731 21.5646 15.2992 21.6552 15.0951 21.6571L15.076 19.6572ZM14.1067 20.0945C13.8693 20.3554 13.7488 20.69 13.7461 21.0224L15.7461 21.0382C15.745 21.1732 15.6965 21.319 15.5861 21.4403L14.1067 20.0945ZM13.7461 21.0224C13.7435 21.3548 13.8587 21.6908 14.091 21.9551L15.5935 20.6351C15.7009 20.7574 15.7471 20.9032 15.7461 21.0382L13.7461 21.0224ZM14.1025 21.968L14.5963 22.5108L16.0757 21.165L15.582 20.6222L14.1025 21.968ZM14.5964 22.5109C14.8392 22.7778 15.1899 22.9481 15.5781 22.9481V20.9481C15.7847 20.9481 15.9612 21.0392 16.0756 21.1649L14.5964 22.5109ZM15.5781 22.9481C15.9663 22.9481 16.317 22.7778 16.5598 22.5109L15.0806 21.1649C15.195 21.0392 15.3715 20.9481 15.5781 20.9481V22.9481ZM16.5599 22.5108L17.6231 21.3421L16.1436 19.9963L15.0805 21.165L16.5599 22.5108ZM17.6346 21.3292C17.8668 21.0649 17.982 20.7289 17.9794 20.3965L15.9795 20.4123C15.9784 20.2774 16.0246 20.1315 16.1321 20.0092L17.6346 21.3292ZM17.9794 20.3965C17.9768 20.0641 17.8562 19.7295 17.6189 19.4686L16.1394 20.8144C16.0291 20.6931 15.9805 20.5473 15.9795 20.4123L17.9794 20.3965ZM17.6189 19.4686C17.3788 19.2047 17.0332 19.035 16.6495 19.0313L16.6304 21.0312C16.4264 21.0293 16.2525 20.9387 16.1394 20.8144L17.6189 19.4686ZM16.6495 19.0313C16.2658 19.0276 15.9164 19.1909 15.6712 19.4513L17.1271 20.8225C17.011 20.9458 16.8346 21.0332 16.6304 21.0312L16.6495 19.0313ZM17.3878 20.2867L17.3881 20.2852L15.4106 19.9856L15.4104 19.9871L17.3878 20.2867Z" fill="white" mask="url(#path-17-inside-7_2649_5161)"/>
<mask id="path-19-inside-8_2649_5161" fill="white">
<path d="M15.6609 26.4828C15.5248 26.5814 15.3697 26.6437 15.2078 26.6647C15.0459 26.6856 14.8818 26.6647 14.7286 26.6036C14.5754 26.5425 14.4373 26.4428 14.3253 26.3126C14.2133 26.1824 14.1306 26.0252 14.0837 25.8536C14.0367 25.682 14.027 25.5008 14.0551 25.3243C14.0832 25.1478 14.1485 24.9809 14.2456 24.8371C14.3428 24.6932 14.4692 24.5763 14.6148 24.4957C14.7604 24.4151 14.9211 24.373 15.0841 24.3728C15.2719 24.3722 15.4563 24.4277 15.6176 24.5334C15.6561 24.5594 15.699 24.5768 15.7437 24.5845C15.7884 24.5922 15.8341 24.59 15.878 24.5782C15.922 24.5664 15.9634 24.5451 15.9998 24.5156C16.0363 24.4861 16.067 24.449 16.0903 24.4063C16.1136 24.3637 16.129 24.3164 16.1355 24.2671C16.1421 24.2179 16.1397 24.1677 16.1285 24.1195C16.1173 24.0713 16.0976 24.026 16.0704 23.9863C16.0432 23.9465 16.0091 23.9131 15.97 23.8879C15.7046 23.7145 15.4018 23.6224 15.093 23.6211C14.7842 23.6198 14.4808 23.7094 14.2141 23.8805C13.9475 24.0517 13.7274 24.2982 13.5766 24.5944C13.4259 24.8906 13.35 25.2258 13.3569 25.5652C13.3637 25.9045 13.4531 26.2357 13.6157 26.5243C13.7783 26.8128 14.0082 27.0483 14.2815 27.2062C14.5548 27.3642 14.8616 27.4388 15.17 27.4224C15.4784 27.406 15.7772 27.2992 16.0353 27.113C16.0733 27.0861 16.106 27.0512 16.1316 27.0104C16.1572 26.9696 16.1752 26.9236 16.1846 26.8751C16.194 26.8265 16.1946 26.7765 16.1863 26.7277C16.178 26.6789 16.1611 26.6324 16.1364 26.5909C16.1117 26.5494 16.0798 26.5136 16.0426 26.4857C16.0053 26.4577 15.9633 26.4382 15.9192 26.4281C15.875 26.418 15.8294 26.4177 15.7851 26.427C15.7408 26.4364 15.6986 26.4555 15.6609 26.4828Z"/>
</mask>
<path d="M15.6609 26.4828C15.5248 26.5814 15.3697 26.6437 15.2078 26.6647C15.0459 26.6856 14.8818 26.6647 14.7286 26.6036C14.5754 26.5425 14.4373 26.4428 14.3253 26.3126C14.2133 26.1824 14.1306 26.0252 14.0837 25.8536C14.0367 25.682 14.027 25.5008 14.0551 25.3243C14.0832 25.1478 14.1485 24.9809 14.2456 24.8371C14.3428 24.6932 14.4692 24.5763 14.6148 24.4957C14.7604 24.4151 14.9211 24.373 15.0841 24.3728C15.2719 24.3722 15.4563 24.4277 15.6176 24.5334C15.6561 24.5594 15.699 24.5768 15.7437 24.5845C15.7884 24.5922 15.8341 24.59 15.878 24.5782C15.922 24.5664 15.9634 24.5451 15.9998 24.5156C16.0363 24.4861 16.067 24.449 16.0903 24.4063C16.1136 24.3637 16.129 24.3164 16.1355 24.2671C16.1421 24.2179 16.1397 24.1677 16.1285 24.1195C16.1173 24.0713 16.0976 24.026 16.0704 23.9863C16.0432 23.9465 16.0091 23.9131 15.97 23.8879C15.7046 23.7145 15.4018 23.6224 15.093 23.6211C14.7842 23.6198 14.4808 23.7094 14.2141 23.8805C13.9475 24.0517 13.7274 24.2982 13.5766 24.5944C13.4259 24.8906 13.35 25.2258 13.3569 25.5652C13.3637 25.9045 13.4531 26.2357 13.6157 26.5243C13.7783 26.8128 14.0082 27.0483 14.2815 27.2062C14.5548 27.3642 14.8616 27.4388 15.17 27.4224C15.4784 27.406 15.7772 27.2992 16.0353 27.113C16.0733 27.0861 16.106 27.0512 16.1316 27.0104C16.1572 26.9696 16.1752 26.9236 16.1846 26.8751C16.194 26.8265 16.1946 26.7765 16.1863 26.7277C16.178 26.6789 16.1611 26.6324 16.1364 26.5909C16.1117 26.5494 16.0798 26.5136 16.0426 26.4857C16.0053 26.4577 15.9633 26.4382 15.9192 26.4281C15.875 26.418 15.8294 26.4177 15.7851 26.427C15.7408 26.4364 15.6986 26.4555 15.6609 26.4828Z" fill="url(#paint10_linear_2649_5161)"/>
<path d="M15.6609 26.4828L16.2476 27.2927L16.2485 27.292L15.6609 26.4828ZM15.0841 24.3728L15.0855 25.3728L15.0873 25.3728L15.0841 24.3728ZM15.6176 24.5334L16.177 23.7044L16.1657 23.697L15.6176 24.5334ZM15.97 23.8879L15.4232 24.7252L15.4279 24.7282L15.97 23.8879ZM16.0353 27.113L15.4567 26.2974L15.4504 26.3019L16.0353 27.113ZM15.0743 25.673C15.0715 25.675 15.0705 25.6752 15.0716 25.6748C15.0728 25.6743 15.0754 25.6735 15.0793 25.673L15.3362 27.6564C15.6687 27.6133 15.9805 27.4862 16.2476 27.2927L15.0743 25.673ZM15.0793 25.673C15.0833 25.6724 15.0874 25.6724 15.0914 25.6729C15.0953 25.6734 15.0979 25.6743 15.0991 25.6748L14.3581 27.5324C14.6678 27.656 15.0035 27.6995 15.3362 27.6564L15.0793 25.673ZM15.0991 25.6748C15.1018 25.6758 15.0949 25.6739 15.0835 25.6606L13.5671 26.9647C13.7797 27.2118 14.049 27.4091 14.3581 27.5324L15.0991 25.6748ZM15.0835 25.6606C15.0718 25.647 15.0575 25.6237 15.0483 25.5899L13.1191 26.1174C13.2037 26.4268 13.3548 26.7178 13.5671 26.9647L15.0835 25.6606ZM15.0483 25.5899C15.039 25.5561 15.0368 25.5184 15.0426 25.4816L13.0675 25.1669C13.0171 25.4831 13.0345 25.808 13.1191 26.1174L15.0483 25.5899ZM15.0426 25.4816C15.0485 25.4449 15.0612 25.4162 15.0743 25.3969L13.417 24.2773C13.2357 24.5457 13.1179 24.8506 13.0675 25.1669L15.0426 25.4816ZM15.0743 25.3969C15.0871 25.3778 15.0977 25.3714 15.0993 25.3705L14.1304 23.6209C13.8408 23.7812 13.5985 24.0086 13.417 24.2773L15.0743 25.3969ZM15.0993 25.3705C15.1001 25.3701 15.0991 25.3707 15.0963 25.3714C15.0935 25.3722 15.0898 25.3728 15.0855 25.3728L15.0827 23.3728C14.747 23.3732 14.4206 23.4602 14.1304 23.6209L15.0993 25.3705ZM15.0873 25.3728C15.0813 25.3728 15.0762 25.3719 15.0725 25.3708C15.0689 25.3697 15.0679 25.3688 15.0695 25.3698L16.1657 23.697C15.8453 23.487 15.47 23.3715 15.0808 23.3728L15.0873 25.3728ZM15.0582 25.3623C15.211 25.4654 15.3862 25.5376 15.574 25.57L15.9134 23.599C16.0118 23.6159 16.1012 23.6534 16.1769 23.7045L15.0582 25.3623ZM15.574 25.57C15.7621 25.6023 15.9542 25.5933 16.1376 25.5439L15.6185 23.6125C15.714 23.5868 15.8148 23.582 15.9134 23.599L15.574 25.57ZM16.1376 25.5439C16.3208 25.4947 16.4874 25.4076 16.6292 25.2927L15.3704 23.7385C15.4394 23.6827 15.5232 23.6381 15.6185 23.6125L16.1376 25.5439ZM16.6292 25.2927C16.7708 25.1781 16.8845 25.0385 16.968 24.8856L15.2126 23.927C15.2496 23.8594 15.3018 23.7942 15.3704 23.7385L16.6292 25.2927ZM16.968 24.8856C17.0514 24.7328 17.1043 24.5675 17.1268 24.3992L15.1443 24.135C15.1536 24.0652 15.1758 23.9945 15.2126 23.927L16.968 24.8856ZM17.1268 24.3992C17.1492 24.231 17.1412 24.0595 17.1027 23.8936L15.1544 24.3455C15.1383 24.2759 15.135 24.2048 15.1443 24.135L17.1268 24.3992ZM17.1027 23.8936C17.0641 23.7276 16.9951 23.5669 16.8957 23.4216L15.2451 24.551C15.2001 24.4852 15.1705 24.4151 15.1544 24.3455L17.1027 23.8936ZM16.8957 23.4216C16.7962 23.2762 16.6672 23.1476 16.5122 23.0476L15.4279 24.7282C15.351 24.6786 15.2901 24.6168 15.2451 24.551L16.8957 23.4216ZM16.5169 23.0507C16.0946 22.7749 15.6042 22.6232 15.0972 22.6211L15.0888 24.6211C15.1994 24.6216 15.3146 24.6542 15.4232 24.7251L16.5169 23.0507ZM15.0972 22.6211C14.5902 22.619 14.0985 22.7665 13.674 23.039L14.7543 24.7221C14.8631 24.6523 14.9782 24.6206 15.0888 24.6211L15.0972 22.6211ZM13.674 23.039C13.2505 23.3108 12.9125 23.6945 12.6854 24.1409L14.4679 25.0479C14.5422 24.9018 14.6445 24.7926 14.7543 24.7221L13.674 23.039ZM12.6854 24.1409C12.4584 24.5869 12.347 25.0853 12.3571 25.5854L14.3567 25.5449C14.3531 25.3664 14.3933 25.1944 14.4679 25.0479L12.6854 24.1409ZM12.3571 25.5854C12.3672 26.0856 12.4988 26.579 12.7445 27.0151L14.4869 26.0334C14.4075 25.8923 14.3603 25.7235 14.3567 25.5449L12.3571 25.5854ZM12.7445 27.0151C12.9904 27.4516 13.3451 27.8201 13.7811 28.0721L14.7818 26.3404C14.6712 26.2765 14.5662 26.1741 14.4869 26.0334L12.7445 27.0151ZM13.7811 28.0721C14.2182 28.3247 14.7167 28.4479 15.223 28.421L15.1169 26.4238C15.0064 26.4297 14.8913 26.4037 14.7818 26.3404L13.7811 28.0721ZM15.223 28.421C15.7292 28.3941 16.2115 28.2189 16.6203 27.9241L15.4504 26.3019C15.3428 26.3795 15.2276 26.418 15.1169 26.4238L15.223 28.421ZM16.6139 27.9286C16.7632 27.8228 16.8858 27.6899 16.9787 27.5418L15.2844 26.479C15.3261 26.4126 15.3833 26.3495 15.4568 26.2974L16.6139 27.9286ZM16.9787 27.5418C17.0715 27.3938 17.1341 27.2316 17.1664 27.0651L15.2028 26.685C15.2163 26.6155 15.2428 26.5453 15.2844 26.479L16.9787 27.5418ZM17.1664 27.0651C17.1986 26.8986 17.2005 26.7275 17.1722 26.5605L15.2004 26.8949C15.1886 26.8254 15.1894 26.7545 15.2028 26.685L17.1664 27.0651ZM17.1722 26.5605C17.1439 26.3934 17.0852 26.2301 16.9962 26.0803L15.2766 27.1015C15.237 27.0348 15.2122 26.9645 15.2004 26.8949L17.1722 26.5605ZM16.9962 26.0803C16.9072 25.9304 16.7883 25.7949 16.6423 25.6855L15.4428 27.2859C15.3714 27.2323 15.3163 27.1684 15.2766 27.1015L16.9962 26.0803ZM16.6423 25.6855C16.496 25.5758 16.3261 25.4952 16.1413 25.4531L15.697 27.4031C15.6006 27.3811 15.5145 27.3396 15.4428 27.2859L16.6423 25.6855ZM16.1413 25.4531C15.9562 25.4109 15.7644 25.4093 15.5786 25.4486L15.9916 27.4055C15.8944 27.426 15.7937 27.4251 15.697 27.4031L16.1413 25.4531ZM15.5786 25.4486C15.3897 25.4884 15.2187 25.5681 15.0734 25.6737L16.2485 27.292C16.1785 27.3429 16.0919 27.3843 15.9916 27.4055L15.5786 25.4486Z" fill="white" mask="url(#path-19-inside-8_2649_5161)"/>
<mask id="path-21-inside-9_2649_5161" fill="white">
<path d="M26.9386 25.1445H17.7213C17.6305 25.1445 17.5434 25.1842 17.4792 25.2548C17.415 25.3254 17.3789 25.4211 17.3789 25.521C17.3789 25.6208 17.415 25.7166 17.4792 25.7872C17.5434 25.8578 17.6305 25.8974 17.7213 25.8974H26.9386C27.0294 25.8974 27.1165 25.8578 27.1807 25.7872C27.245 25.7166 27.281 25.6208 27.281 25.521C27.281 25.4211 27.245 25.3254 27.1807 25.2548C27.1165 25.1842 27.0294 25.1445 26.9386 25.1445Z"/>
</mask>
<path d="M26.9386 25.1445H17.7213C17.6305 25.1445 17.5434 25.1842 17.4792 25.2548C17.415 25.3254 17.3789 25.4211 17.3789 25.521C17.3789 25.6208 17.415 25.7166 17.4792 25.7872C17.5434 25.8578 17.6305 25.8974 17.7213 25.8974H26.9386C27.0294 25.8974 27.1165 25.8578 27.1807 25.7872C27.245 25.7166 27.281 25.6208 27.281 25.521C27.281 25.4211 27.245 25.3254 27.1807 25.2548C27.1165 25.1842 27.0294 25.1445 26.9386 25.1445Z" fill="url(#paint11_linear_2649_5161)"/>
<path d="M26.9386 24.1445H17.7213V26.1445H26.9386V24.1445ZM17.7213 24.1445C17.3331 24.1445 16.9823 24.3149 16.7395 24.5819L18.2189 25.9277C18.1045 26.0535 17.9279 26.1445 17.7213 26.1445V24.1445ZM16.7395 24.5819C16.4995 24.8457 16.3789 25.1849 16.3789 25.521H18.3789C18.3789 25.6574 18.3305 25.8051 18.2189 25.9277L16.7395 24.5819ZM16.3789 25.521C16.3789 25.8571 16.4995 26.1962 16.7395 26.4601L18.2189 25.1143C18.3305 25.2369 18.3789 25.3846 18.3789 25.521H16.3789ZM16.7395 26.4601C16.9823 26.727 17.3331 26.8974 17.7213 26.8974V24.8974C17.9279 24.8974 18.1045 24.9885 18.2189 25.1143L16.7395 26.4601ZM17.7213 26.8974H26.9386V24.8974H17.7213V26.8974ZM26.9386 26.8974C27.3268 26.8974 27.6776 26.727 27.9205 26.4601L26.441 25.1143C26.5554 24.9885 26.732 24.8974 26.9386 24.8974V26.8974ZM27.9205 26.4601C28.1605 26.1962 28.281 25.8571 28.281 25.521H26.281C26.281 25.3846 26.3295 25.2369 26.441 25.1143L27.9205 26.4601ZM28.281 25.521C28.281 25.1849 28.1605 24.8457 27.9205 24.5819L26.441 25.9277C26.3295 25.8051 26.281 25.6574 26.281 25.521H28.281ZM27.9205 24.5819C27.6776 24.3149 27.3268 24.1445 26.9386 24.1445V26.1445C26.732 26.1445 26.5554 26.0535 26.441 25.9277L27.9205 24.5819Z" fill="white" mask="url(#path-21-inside-9_2649_5161)"/>
<mask id="path-23-inside-10_2649_5161" fill="white">
<path d="M16.3994 24.4173L15.5775 25.3207L15.3264 25.0447C15.2618 24.9761 15.1753 24.9382 15.0855 24.939C14.9958 24.9399 14.9099 24.9795 14.8464 25.0493C14.7829 25.1191 14.7469 25.2135 14.7461 25.3122C14.7453 25.4109 14.7798 25.506 14.8422 25.577L15.336 26.1198C15.4002 26.1904 15.4873 26.23 15.5781 26.23C15.6689 26.23 15.756 26.1904 15.8202 26.1198L16.8833 24.9513C16.9151 24.9164 16.9404 24.8749 16.9576 24.8292C16.9748 24.7835 16.9837 24.7346 16.9837 24.6852C16.9837 24.6357 16.9748 24.5868 16.9576 24.5411C16.9404 24.4954 16.9152 24.4539 16.8834 24.4189C16.8516 24.384 16.8139 24.3562 16.7724 24.3373C16.7308 24.3184 16.6863 24.3086 16.6413 24.3086C16.5963 24.3086 16.5518 24.3183 16.5102 24.3372C16.4687 24.3561 16.4309 24.3838 16.3991 24.4188L16.3994 24.4173Z"/>
</mask>
<path d="M16.3994 24.4173L15.5775 25.3207L15.3264 25.0447C15.2618 24.9761 15.1753 24.9382 15.0855 24.939C14.9958 24.9399 14.9099 24.9795 14.8464 25.0493C14.7829 25.1191 14.7469 25.2135 14.7461 25.3122C14.7453 25.4109 14.7798 25.506 14.8422 25.577L15.336 26.1198C15.4002 26.1904 15.4873 26.23 15.5781 26.23C15.6689 26.23 15.756 26.1904 15.8202 26.1198L16.8833 24.9513C16.9151 24.9164 16.9404 24.8749 16.9576 24.8292C16.9748 24.7835 16.9837 24.7346 16.9837 24.6852C16.9837 24.6357 16.9748 24.5868 16.9576 24.5411C16.9404 24.4954 16.9152 24.4539 16.8834 24.4189C16.8516 24.384 16.8139 24.3562 16.7724 24.3373C16.7308 24.3184 16.6863 24.3086 16.6413 24.3086C16.5963 24.3086 16.5518 24.3183 16.5102 24.3372C16.4687 24.3561 16.4309 24.3838 16.3991 24.4188L16.3994 24.4173Z" fill="url(#paint12_linear_2649_5161)"/>
<path d="M16.3994 24.4173L17.3881 24.567L17.8827 21.3005L15.6596 23.7444L16.3994 24.4173ZM15.5775 25.3207L14.8378 25.9936L15.5775 26.8069L16.3173 25.9936L15.5775 25.3207ZM15.3264 25.0447L16.0661 24.3718L16.0603 24.3654L16.0544 24.3591L15.3264 25.0447ZM14.8422 25.577L14.091 26.237L14.0967 26.2435L14.1025 26.2499L14.8422 25.577ZM15.336 26.1198L14.5963 26.7927L14.5964 26.7928L15.336 26.1198ZM15.8202 26.1198L16.5598 26.7928L16.5599 26.7928L15.8202 26.1198ZM16.8833 24.9513L16.1437 24.2783L16.1437 24.2784L16.8833 24.9513ZM16.3991 24.4188L15.4104 24.2691L14.916 27.5342L17.1387 25.0919L16.3991 24.4188ZM15.6596 23.7444L14.8378 24.6479L16.3173 25.9936L17.1391 25.0902L15.6596 23.7444ZM16.3173 24.6479L16.0661 24.3718L14.5867 25.7176L14.8378 25.9936L16.3173 24.6479ZM16.0544 24.3591C15.8091 24.0987 15.4598 23.9354 15.076 23.9391L15.0951 25.939C14.8909 25.9409 14.7145 25.8536 14.5984 25.7303L16.0544 24.3591ZM15.076 23.9391C14.6924 23.9427 14.3467 24.1125 14.1067 24.3764L15.5861 25.7222C15.473 25.8465 15.2991 25.937 15.0951 25.939L15.076 23.9391ZM14.1067 24.3764C13.8693 24.6373 13.7488 24.9719 13.7461 25.3043L15.7461 25.3201C15.745 25.4551 15.6965 25.6009 15.5861 25.7222L14.1067 24.3764ZM13.7461 25.3043C13.7435 25.6367 13.8587 25.9727 14.091 26.237L15.5935 24.917C15.7009 25.0393 15.7471 25.1851 15.7461 25.3201L13.7461 25.3043ZM14.1025 26.2499L14.5963 26.7927L16.0757 25.4469L15.582 24.9041L14.1025 26.2499ZM14.5964 26.7928C14.8392 27.0597 15.1899 27.23 15.5781 27.23V25.23C15.7847 25.23 15.9612 25.3211 16.0756 25.4468L14.5964 26.7928ZM15.5781 27.23C15.9663 27.23 16.317 27.0597 16.5598 26.7928L15.0806 25.4468C15.195 25.3211 15.3715 25.23 15.5781 25.23V27.23ZM16.5599 26.7928L17.623 25.6243L16.1437 24.2784L15.0805 25.4468L16.5599 26.7928ZM17.6229 25.6244C17.7425 25.493 17.833 25.3419 17.8933 25.182L16.0219 24.4764C16.0477 24.4079 16.0877 24.3398 16.1437 24.2783L17.6229 25.6244ZM17.8933 25.182C17.9536 25.0222 17.9836 24.8537 17.9837 24.6854L15.9837 24.6849C15.9837 24.6155 15.9961 24.5449 16.0219 24.4764L17.8933 25.182ZM17.9837 24.6854C17.9837 24.5171 17.9537 24.3486 17.8935 24.1887L16.0218 24.8935C15.996 24.825 15.9837 24.7544 15.9837 24.6849L17.9837 24.6854ZM17.8935 24.1887C17.8333 24.0288 17.7429 23.8777 17.6233 23.7462L16.1435 25.0916C16.0876 25.0301 16.0476 24.962 16.0218 24.8935L17.8935 24.1887ZM17.6233 23.7462C17.5036 23.6145 17.3563 23.5044 17.187 23.4273L16.3577 25.2473C16.2715 25.208 16.1997 25.1534 16.1435 25.0916L17.6233 23.7462ZM17.187 23.4273C17.0174 23.35 16.8317 23.3086 16.6416 23.3086L16.641 25.3086C16.5408 25.3086 16.4442 25.2867 16.3577 25.2473L17.187 23.4273ZM16.6416 23.3086C16.4514 23.3085 16.2657 23.3498 16.0961 23.427L16.9244 25.2474C16.8379 25.2868 16.7413 25.3086 16.641 25.3086L16.6416 23.3086ZM16.0961 23.427C15.9267 23.5041 15.7793 23.6141 15.6596 23.7457L17.1387 25.0919C17.0825 25.1536 17.0107 25.2082 16.9244 25.2474L16.0961 23.427ZM17.3879 24.5685L17.3881 24.567L15.4106 24.2676L15.4104 24.2691L17.3879 24.5685Z" fill="white" mask="url(#path-23-inside-10_2649_5161)"/>
<defs>
<linearGradient id="paint0_linear_2649_5161" x1="10.1592" y1="20.3111" x2="30.4766" y2="20.3111" gradientUnits="userSpaceOnUse">
<stop stop-color="#F5841F"/>
<stop offset="0.25317" stop-color="#F1C961"/>
<stop offset="0.532535" stop-color="#00B3A6"/>
<stop offset="1" stop-color="#5B5FD1"/>
</linearGradient>
<linearGradient id="paint1_linear_2649_5161" x1="25.8691" y1="13.0093" x2="26.8209" y2="13.0093" gradientUnits="userSpaceOnUse">
<stop stop-color="#F5841F"/>
<stop offset="0.25317" stop-color="#F1C961"/>
<stop offset="0.532535" stop-color="#00B3A6"/>
<stop offset="1" stop-color="#5B5FD1"/>
</linearGradient>
<linearGradient id="paint2_linear_2649_5161" x1="27.1904" y1="13.0093" x2="28.1419" y2="13.0093" gradientUnits="userSpaceOnUse">
<stop stop-color="#F5841F"/>
<stop offset="0.25317" stop-color="#F1C961"/>
<stop offset="0.532535" stop-color="#00B3A6"/>
<stop offset="1" stop-color="#5B5FD1"/>
</linearGradient>
<linearGradient id="paint3_linear_2649_5161" x1="28.5068" y1="13.0093" x2="29.4583" y2="13.0093" gradientUnits="userSpaceOnUse">
<stop stop-color="#F5841F"/>
<stop offset="0.25317" stop-color="#F1C961"/>
<stop offset="0.532535" stop-color="#00B3A6"/>
<stop offset="1" stop-color="#5B5FD1"/>
</linearGradient>
<linearGradient id="paint4_linear_2649_5161" x1="13.3506" y1="16.9648" x2="16.1852" y2="16.9648" gradientUnits="userSpaceOnUse">
<stop stop-color="#F5841F"/>
<stop offset="0.25317" stop-color="#F1C961"/>
<stop offset="0.532535" stop-color="#00B3A6"/>
<stop offset="1" stop-color="#5B5FD1"/>
</linearGradient>
<linearGradient id="paint5_linear_2649_5161" x1="17.3789" y1="16.9702" x2="27.281" y2="16.9702" gradientUnits="userSpaceOnUse">
<stop stop-color="#F5841F"/>
<stop offset="0.25317" stop-color="#F1C961"/>
<stop offset="0.532535" stop-color="#00B3A6"/>
<stop offset="1" stop-color="#5B5FD1"/>
</linearGradient>
<linearGradient id="paint6_linear_2649_5161" x1="14.7461" y1="16.7122" x2="16.9879" y2="16.7122" gradientUnits="userSpaceOnUse">
<stop stop-color="#F5841F"/>
<stop offset="0.25317" stop-color="#F1C961"/>
<stop offset="0.532535" stop-color="#00B3A6"/>
<stop offset="1" stop-color="#5B5FD1"/>
</linearGradient>
<linearGradient id="paint7_linear_2649_5161" x1="13.3564" y1="21.246" x2="16.1915" y2="21.246" gradientUnits="userSpaceOnUse">
<stop stop-color="#F5841F"/>
<stop offset="0.25317" stop-color="#F1C961"/>
<stop offset="0.532535" stop-color="#00B3A6"/>
<stop offset="1" stop-color="#5B5FD1"/>
</linearGradient>
<linearGradient id="paint8_linear_2649_5161" x1="17.3789" y1="21.2475" x2="27.281" y2="21.2475" gradientUnits="userSpaceOnUse">
<stop stop-color="#F5841F"/>
<stop offset="0.25317" stop-color="#F1C961"/>
<stop offset="0.532535" stop-color="#00B3A6"/>
<stop offset="1" stop-color="#5B5FD1"/>
</linearGradient>
<linearGradient id="paint9_linear_2649_5161" x1="14.7461" y1="20.9897" x2="16.9794" y2="20.9897" gradientUnits="userSpaceOnUse">
<stop stop-color="#F5841F"/>
<stop offset="0.25317" stop-color="#F1C961"/>
<stop offset="0.532535" stop-color="#00B3A6"/>
<stop offset="1" stop-color="#5B5FD1"/>
</linearGradient>
<linearGradient id="paint10_linear_2649_5161" x1="13.3564" y1="25.5229" x2="16.1921" y2="25.5229" gradientUnits="userSpaceOnUse">
<stop stop-color="#F5841F"/>
<stop offset="0.25317" stop-color="#F1C961"/>
<stop offset="0.532535" stop-color="#00B3A6"/>
<stop offset="1" stop-color="#5B5FD1"/>
</linearGradient>
<linearGradient id="paint11_linear_2649_5161" x1="17.3789" y1="25.521" x2="27.281" y2="25.521" gradientUnits="userSpaceOnUse">
<stop stop-color="#F5841F"/>
<stop offset="0.25317" stop-color="#F1C961"/>
<stop offset="0.532535" stop-color="#00B3A6"/>
<stop offset="1" stop-color="#5B5FD1"/>
</linearGradient>
<linearGradient id="paint12_linear_2649_5161" x1="14.7461" y1="25.2693" x2="16.9837" y2="25.2693" gradientUnits="userSpaceOnUse">
<stop stop-color="#F5841F"/>
<stop offset="0.25317" stop-color="#F1C961"/>
<stop offset="0.532535" stop-color="#00B3A6"/>
<stop offset="1" stop-color="#5B5FD1"/>
</linearGradient>
</defs>
</svg>
