<svg width="63" height="63" viewBox="0 0 63 63" fill="none" xmlns="http://www.w3.org/2000/svg">
<circle cx="31.5" cy="31.5" r="31" fill="black" stroke="url(#paint0_linear_2375_33)"/>
<path d="M46.5115 16.5H17.4925C17.0968 16.5004 16.7175 16.6734 16.4377 16.9809C16.1579 17.2884 16.0005 17.7054 16 18.1403V45.838C16.0005 46.273 16.1579 46.69 16.4377 46.9976C16.7175 47.3052 17.0968 47.4782 17.4925 47.4787H46.5082C46.9038 47.478 47.2829 47.3049 47.5626 46.9973C47.8422 46.6897 47.9995 46.2728 48 45.838V18.1403C48 17.706 47.8433 17.2894 47.5642 16.9818C47.2852 16.6743 46.9066 16.501 46.5115 16.5ZM46.9213 45.838C46.9213 45.9586 46.8776 46.0743 46.8 46.1596C46.7224 46.2449 46.6172 46.2928 46.5075 46.2929H17.4925C17.3828 46.2928 17.2776 46.2449 17.2 46.1596C17.1224 46.0743 17.0787 45.9586 17.0787 45.838V21.0847H39.5096C39.6526 21.0847 39.7898 21.0222 39.8909 20.911C39.9921 20.7998 40.0489 20.649 40.0489 20.4918C40.0489 20.3345 39.9921 20.1837 39.8909 20.0725C39.7898 19.9613 39.6526 19.8989 39.5096 19.8989H17.0787V18.1403C17.0787 18.0197 17.1224 17.9041 17.2 17.8189C17.2776 17.7337 17.3828 17.6858 17.4925 17.6858H46.5115C46.5657 17.6854 46.6195 17.6969 46.6696 17.7196C46.7198 17.7423 46.7653 17.7759 46.8034 17.8182C46.8416 17.8606 46.8717 17.9109 46.892 17.9662C46.9122 18.0215 46.9222 18.0807 46.9213 18.1403V45.838Z" fill="url(#paint1_linear_2375_33)"/>
<path d="M41.2815 21.0842H41.7018C41.8449 21.0842 41.982 21.0218 42.0832 20.9106C42.1843 20.7994 42.2412 20.6486 42.2412 20.4913C42.2412 20.3341 42.1843 20.1833 42.0832 20.0721C41.982 19.9609 41.8449 19.8984 41.7018 19.8984H41.2815C41.1385 19.8984 41.0013 19.9609 40.9002 20.0721C40.799 20.1833 40.7422 20.3341 40.7422 20.4913C40.7422 20.6486 40.799 20.7994 40.9002 20.9106C41.0013 21.0218 41.1385 21.0842 41.2815 21.0842Z" fill="url(#paint2_linear_2375_33)"/>
<path d="M43.7824 19.8984H43.3635C43.2205 19.8984 43.0833 19.9609 42.9822 20.0721C42.881 20.1833 42.8242 20.3341 42.8242 20.4913C42.8242 20.6486 42.881 20.7994 42.9822 20.9106C43.0833 21.0218 43.2205 21.0842 43.3635 21.0842H43.7835C43.9265 21.0842 44.0637 21.0218 44.1649 20.9106C44.266 20.7994 44.3228 20.6486 44.3228 20.4913C44.3228 20.3341 44.266 20.1833 44.1649 20.0721C44.0637 19.9609 43.9265 19.8984 43.7835 19.8984H43.7824Z" fill="url(#paint3_linear_2375_33)"/>
<path d="M45.8577 19.8984H45.4378C45.2947 19.8984 45.1575 19.9609 45.0564 20.0721C44.9553 20.1833 44.8984 20.3341 44.8984 20.4913C44.8984 20.6486 44.9553 20.7994 45.0564 20.9106C45.1575 21.0218 45.2947 21.0842 45.4378 21.0842H45.8577C46.0008 21.0842 46.1379 21.0218 46.2391 20.9106C46.3402 20.7994 46.397 20.6486 46.397 20.4913C46.397 20.3341 46.3402 20.1833 46.2391 20.0721C46.1379 19.9609 46.0008 19.8984 45.8577 19.8984Z" fill="url(#paint4_linear_2375_33)"/>
<path d="M23.7516 29.7148C24.2838 29.7151 24.8045 29.5446 25.2498 29.2243C25.3688 29.138 25.4518 29.0033 25.4807 28.8499C25.5096 28.6965 25.4821 28.5367 25.4042 28.4055C25.3263 28.2743 25.2043 28.1823 25.0648 28.1497C24.9254 28.1171 24.7799 28.1465 24.6602 28.2314C24.4458 28.3867 24.2014 28.4848 23.9464 28.5178C23.6915 28.5508 23.433 28.5179 23.1917 28.4216C22.9504 28.3253 22.7329 28.1684 22.5565 27.9633C22.3801 27.7583 22.2498 27.5107 22.1759 27.2404C22.102 26.9702 22.0866 26.6846 22.1309 26.4066C22.1752 26.1287 22.278 25.8659 22.4311 25.6393C22.5841 25.4128 22.7832 25.2286 23.0125 25.1017C23.2418 24.9747 23.4949 24.9084 23.7516 24.908C24.0473 24.9073 24.3377 24.9947 24.5919 25.161C24.6526 25.202 24.7201 25.2294 24.7905 25.2415C24.861 25.2536 24.9329 25.2503 25.0021 25.2317C25.0713 25.213 25.1365 25.1795 25.1939 25.1331C25.2513 25.0866 25.2997 25.0281 25.3364 24.9609C25.3731 24.8937 25.3973 24.8192 25.4076 24.7417C25.418 24.6641 25.4142 24.5851 25.3966 24.5092C25.379 24.4333 25.3479 24.362 25.305 24.2993C25.2622 24.2367 25.2085 24.1841 25.147 24.1444C24.7865 23.9085 24.3814 23.7672 23.9631 23.7316C23.5448 23.696 23.1247 23.767 22.7354 23.9392C22.3462 24.1113 21.9984 24.38 21.7191 24.7241C21.4398 25.0682 21.2365 25.4786 21.1252 25.9233C21.0138 26.3679 20.9973 26.8349 21.0769 27.2877C21.1566 27.7405 21.3303 28.167 21.5845 28.5339C21.8386 28.9008 22.1664 29.1983 22.5423 29.4031C22.9182 29.608 23.332 29.7146 23.7516 29.7148Z" fill="url(#paint5_linear_2375_33)"/>
<path d="M42.4276 26.1328H27.9104C27.7674 26.1328 27.6302 26.1953 27.5291 26.3065C27.4279 26.4177 27.3711 26.5685 27.3711 26.7257C27.3711 26.883 27.4279 27.0338 27.5291 27.1449C27.6302 27.2561 27.7674 27.3186 27.9104 27.3186H42.4276C42.5707 27.3186 42.7078 27.2561 42.809 27.1449C42.9101 27.0338 42.967 26.883 42.967 26.7257C42.967 26.5685 42.9101 26.4177 42.809 26.3065C42.7078 26.1953 42.5707 26.1328 42.4276 26.1328Z" fill="url(#paint6_linear_2375_33)"/>
<path d="M25.8398 24.9762L24.5454 26.3972L24.1499 25.9624C24.1002 25.9057 24.0406 25.8606 23.9748 25.8295C23.9091 25.7984 23.8383 25.7821 23.7667 25.7814C23.6951 25.7807 23.624 25.7957 23.5578 25.8255C23.4915 25.8553 23.4313 25.8994 23.3806 25.955C23.33 26.0107 23.2899 26.0769 23.2628 26.1498C23.2357 26.2226 23.2221 26.3007 23.2227 26.3794C23.2233 26.4581 23.2382 26.5359 23.2664 26.6083C23.2947 26.6806 23.3358 26.746 23.3873 26.8007L24.165 27.6557C24.2662 27.7668 24.4033 27.8293 24.5463 27.8293C24.6893 27.8293 24.8265 27.7668 24.9276 27.6557L26.602 25.8153C26.7003 25.7035 26.7547 25.5537 26.7534 25.3983C26.7522 25.2428 26.6955 25.0941 26.5955 24.9842C26.4955 24.8743 26.3602 24.8119 26.2188 24.8106C26.0774 24.8092 25.9412 24.869 25.8394 24.977L25.8398 24.9762Z" fill="url(#paint7_linear_2375_33)"/>
<path d="M23.7551 36.459C24.2873 36.4592 24.808 36.2887 25.2534 35.9685C25.3131 35.9261 25.3646 35.8712 25.405 35.8069C25.4453 35.7425 25.4737 35.6701 25.4885 35.5937C25.5033 35.5173 25.5042 35.4384 25.4912 35.3616C25.4781 35.2848 25.4514 35.2116 25.4126 35.1462C25.3737 35.0807 25.3235 35.0244 25.2648 34.9804C25.2061 34.9364 25.14 34.9056 25.0704 34.8897C25.0008 34.8739 24.9291 34.8733 24.8593 34.888C24.7895 34.9027 24.723 34.9325 24.6637 34.9756C24.4493 35.131 24.2048 35.2292 23.9498 35.2623C23.6947 35.2954 23.4362 35.2625 23.1947 35.1662C22.9533 35.0699 22.7357 34.913 22.5592 34.7078C22.3828 34.5027 22.2524 34.255 22.1785 33.9846C22.1046 33.7142 22.0892 33.4286 22.1335 33.1505C22.1779 32.8724 22.2807 32.6095 22.4339 32.3829C22.5871 32.1563 22.7863 31.9722 23.0157 31.8452C23.2451 31.7183 23.4983 31.652 23.7551 31.6518C24.0509 31.6508 24.3414 31.7383 24.5954 31.9048C24.7183 31.9857 24.8655 32.0096 25.0044 31.9713C25.1434 31.933 25.2628 31.8355 25.3365 31.7004C25.4101 31.5653 25.4318 31.4035 25.397 31.2508C25.3621 31.098 25.2735 30.9667 25.1506 30.8858C24.79 30.6508 24.385 30.5103 23.9671 30.4754C23.5492 30.4405 23.1295 30.512 22.7408 30.6844C22.3521 30.8568 22.0048 31.1255 21.7259 31.4695C21.4471 31.8135 21.2441 32.2235 21.1329 32.6678C21.0216 33.112 21.0051 33.5785 21.0846 34.031C21.1641 34.4834 21.3374 34.9096 21.5911 35.2763C21.8448 35.6431 22.172 35.9407 22.5474 36.1458C22.9227 36.3509 23.336 36.4581 23.7551 36.459Z" fill="url(#paint8_linear_2375_33)"/>
<path d="M42.4276 32.873H27.9104C27.7674 32.873 27.6302 32.9355 27.5291 33.0467C27.4279 33.1579 27.3711 33.3087 27.3711 33.4659C27.3711 33.6232 27.4279 33.774 27.5291 33.8852C27.6302 33.9964 27.7674 34.0588 27.9104 34.0588H42.4276C42.5707 34.0588 42.7078 33.9964 42.809 33.8852C42.9101 33.774 42.967 33.6232 42.967 33.4659C42.967 33.3087 42.9101 33.1579 42.809 33.0467C42.7078 32.9355 42.5707 32.873 42.4276 32.873Z" fill="url(#paint9_linear_2375_33)"/>
<path d="M25.8265 31.7148L24.5322 33.1378L24.1367 32.703C24.0349 32.595 23.8987 32.5352 23.7573 32.5366C23.6159 32.5379 23.4806 32.6003 23.3806 32.7102C23.2806 32.8201 23.2239 32.9689 23.2227 33.1243C23.2214 33.2798 23.2758 33.4295 23.3741 33.5414L24.1518 34.3963C24.2529 34.5075 24.3901 34.5699 24.5331 34.5699C24.6761 34.5699 24.8132 34.5075 24.9144 34.3963L26.5888 32.5556C26.687 32.4437 26.7414 32.294 26.7402 32.1385C26.7389 31.9831 26.6822 31.8344 26.5822 31.7244C26.4822 31.6145 26.347 31.5522 26.2055 31.5508C26.0641 31.5495 25.9279 31.6092 25.8262 31.7172L25.8265 31.7148Z" fill="url(#paint10_linear_2375_33)"/>
<path d="M24.6647 41.7104C24.4504 41.8657 24.206 41.9637 23.951 41.9968C23.6961 42.0298 23.4376 41.9968 23.1963 41.9006C22.955 41.8043 22.7375 41.6474 22.5611 41.4423C22.3847 41.2372 22.2544 40.9897 22.1805 40.7194C22.1066 40.4491 22.0912 40.1636 22.1355 39.8856C22.1798 39.6076 22.2826 39.3449 22.4356 39.1183C22.5887 38.8917 22.7878 38.7076 23.0171 38.5806C23.2464 38.4537 23.4994 38.3874 23.7562 38.387C24.0519 38.386 24.3424 38.4735 24.5964 38.64C24.6572 38.681 24.7247 38.7083 24.7951 38.7204C24.8655 38.7326 24.9374 38.7292 25.0067 38.7106C25.0759 38.692 25.1411 38.6585 25.1985 38.612C25.2559 38.5655 25.3043 38.507 25.341 38.4398C25.3777 38.3727 25.4019 38.2982 25.4122 38.2206C25.4225 38.1431 25.4188 38.0641 25.4012 37.9882C25.3836 37.9123 25.3524 37.8409 25.3096 37.7783C25.2668 37.7157 25.213 37.663 25.1516 37.6234C24.7335 37.3503 24.2565 37.2052 23.7702 37.2031C23.2839 37.2011 22.806 37.3422 22.386 37.6117C21.966 37.8813 21.6194 38.2695 21.3819 38.7361C21.1445 39.2027 21.025 39.7306 21.0358 40.2651C21.0467 40.7996 21.1874 41.3211 21.4435 41.7756C21.6995 42.2301 22.0616 42.601 22.4921 42.8497C22.9225 43.0985 23.4057 43.2161 23.8914 43.1902C24.3772 43.1644 24.8478 42.9961 25.2544 42.7029C25.3141 42.6605 25.3656 42.6056 25.406 42.5413C25.4463 42.477 25.4747 42.4045 25.4895 42.3281C25.5043 42.2517 25.5052 42.1728 25.4922 42.096C25.4791 42.0192 25.4524 41.946 25.4136 41.8806C25.3747 41.8152 25.3245 41.7588 25.2658 41.7148C25.2071 41.6708 25.141 41.64 25.0714 41.6241C25.0018 41.6083 24.9301 41.6077 24.8603 41.6224C24.7905 41.6372 24.724 41.6673 24.6647 41.7104Z" fill="url(#paint11_linear_2375_33)"/>
<path d="M42.4276 39.6035H27.9104C27.7674 39.6035 27.6302 39.666 27.5291 39.7772C27.4279 39.8884 27.3711 40.0392 27.3711 40.1964C27.3711 40.3537 27.4279 40.5045 27.5291 40.6156C27.6302 40.7268 27.7674 40.7893 27.9104 40.7893H42.4276C42.5707 40.7893 42.7078 40.7268 42.809 40.6156C42.9101 40.5045 42.967 40.3537 42.967 40.1964C42.967 40.0392 42.9101 39.8884 42.809 39.7772C42.7078 39.666 42.5707 39.6035 42.4276 39.6035Z" fill="url(#paint12_linear_2375_33)"/>
<path d="M25.8265 38.4564L24.5322 39.8793L24.1367 39.4445C24.0349 39.3365 23.8987 39.2768 23.7573 39.2781C23.6159 39.2795 23.4806 39.3418 23.3806 39.4517C23.2806 39.5617 23.2239 39.7104 23.2227 39.8658C23.2214 40.0213 23.2758 40.171 23.3741 40.2829L24.1518 41.1378C24.2529 41.249 24.3901 41.3114 24.5331 41.3114C24.6761 41.3114 24.8132 41.249 24.9144 41.1378L26.5888 39.2975C26.6389 39.2424 26.6786 39.1771 26.7058 39.1051C26.7329 39.0332 26.7468 38.9561 26.7469 38.8782C26.7469 38.8004 26.7329 38.7233 26.7059 38.6513C26.6788 38.5794 26.639 38.514 26.589 38.4589C26.5389 38.4038 26.4794 38.3602 26.414 38.3303C26.3486 38.3005 26.2784 38.2852 26.2076 38.2852C26.1368 38.2851 26.0666 38.3005 26.0012 38.3302C25.9358 38.36 25.8763 38.4037 25.8262 38.4587L25.8265 38.4564Z" fill="url(#paint13_linear_2375_33)"/>
<defs>
<linearGradient id="paint0_linear_2375_33" x1="31.5" y1="0" x2="63.4351" y2="54.5022" gradientUnits="userSpaceOnUse">
<stop stop-color="#E37728"/>
<stop offset="0.2542" stop-color="#E0D25A"/>
<stop offset="0.653405" stop-color="#00B3A6"/>
<stop offset="1" stop-color="#5B5FD1"/>
</linearGradient>
<linearGradient id="paint1_linear_2375_33" x1="16" y1="31.9894" x2="48" y2="31.9894" gradientUnits="userSpaceOnUse">
<stop stop-color="#F5841F"/>
<stop offset="0.25317" stop-color="#F1C961"/>
<stop offset="0.532535" stop-color="#00B3A6"/>
<stop offset="1" stop-color="#5B5FD1"/>
</linearGradient>
<linearGradient id="paint2_linear_2375_33" x1="40.7422" y1="20.4913" x2="42.2412" y2="20.4913" gradientUnits="userSpaceOnUse">
<stop stop-color="#F5841F"/>
<stop offset="0.25317" stop-color="#F1C961"/>
<stop offset="0.532535" stop-color="#00B3A6"/>
<stop offset="1" stop-color="#5B5FD1"/>
</linearGradient>
<linearGradient id="paint3_linear_2375_33" x1="42.8242" y1="20.4913" x2="44.3228" y2="20.4913" gradientUnits="userSpaceOnUse">
<stop stop-color="#F5841F"/>
<stop offset="0.25317" stop-color="#F1C961"/>
<stop offset="0.532535" stop-color="#00B3A6"/>
<stop offset="1" stop-color="#5B5FD1"/>
</linearGradient>
<linearGradient id="paint4_linear_2375_33" x1="44.8984" y1="20.4913" x2="46.397" y2="20.4913" gradientUnits="userSpaceOnUse">
<stop stop-color="#F5841F"/>
<stop offset="0.25317" stop-color="#F1C961"/>
<stop offset="0.532535" stop-color="#00B3A6"/>
<stop offset="1" stop-color="#5B5FD1"/>
</linearGradient>
<linearGradient id="paint5_linear_2375_33" x1="21.0273" y1="26.7187" x2="25.4919" y2="26.7187" gradientUnits="userSpaceOnUse">
<stop stop-color="#F5841F"/>
<stop offset="0.25317" stop-color="#F1C961"/>
<stop offset="0.532535" stop-color="#00B3A6"/>
<stop offset="1" stop-color="#5B5FD1"/>
</linearGradient>
<linearGradient id="paint6_linear_2375_33" x1="27.3711" y1="26.7257" x2="42.967" y2="26.7257" gradientUnits="userSpaceOnUse">
<stop stop-color="#F5841F"/>
<stop offset="0.25317" stop-color="#F1C961"/>
<stop offset="0.532535" stop-color="#00B3A6"/>
<stop offset="1" stop-color="#5B5FD1"/>
</linearGradient>
<linearGradient id="paint7_linear_2375_33" x1="23.2227" y1="26.3199" x2="26.7534" y2="26.3199" gradientUnits="userSpaceOnUse">
<stop stop-color="#F5841F"/>
<stop offset="0.25317" stop-color="#F1C961"/>
<stop offset="0.532535" stop-color="#00B3A6"/>
<stop offset="1" stop-color="#5B5FD1"/>
</linearGradient>
<linearGradient id="paint8_linear_2375_33" x1="21.0352" y1="33.4629" x2="25.5003" y2="33.4629" gradientUnits="userSpaceOnUse">
<stop stop-color="#F5841F"/>
<stop offset="0.25317" stop-color="#F1C961"/>
<stop offset="0.532535" stop-color="#00B3A6"/>
<stop offset="1" stop-color="#5B5FD1"/>
</linearGradient>
<linearGradient id="paint9_linear_2375_33" x1="27.3711" y1="33.4659" x2="42.967" y2="33.4659" gradientUnits="userSpaceOnUse">
<stop stop-color="#F5841F"/>
<stop offset="0.25317" stop-color="#F1C961"/>
<stop offset="0.532535" stop-color="#00B3A6"/>
<stop offset="1" stop-color="#5B5FD1"/>
</linearGradient>
<linearGradient id="paint10_linear_2375_33" x1="23.2227" y1="33.0603" x2="26.7402" y2="33.0603" gradientUnits="userSpaceOnUse">
<stop stop-color="#F5841F"/>
<stop offset="0.25317" stop-color="#F1C961"/>
<stop offset="0.532535" stop-color="#00B3A6"/>
<stop offset="1" stop-color="#5B5FD1"/>
</linearGradient>
<linearGradient id="paint11_linear_2375_33" x1="21.0352" y1="40.1984" x2="25.5013" y2="40.1984" gradientUnits="userSpaceOnUse">
<stop stop-color="#F5841F"/>
<stop offset="0.25317" stop-color="#F1C961"/>
<stop offset="0.532535" stop-color="#00B3A6"/>
<stop offset="1" stop-color="#5B5FD1"/>
</linearGradient>
<linearGradient id="paint12_linear_2375_33" x1="27.3711" y1="40.1964" x2="42.967" y2="40.1964" gradientUnits="userSpaceOnUse">
<stop stop-color="#F5841F"/>
<stop offset="0.25317" stop-color="#F1C961"/>
<stop offset="0.532535" stop-color="#00B3A6"/>
<stop offset="1" stop-color="#5B5FD1"/>
</linearGradient>
<linearGradient id="paint13_linear_2375_33" x1="23.2227" y1="39.7983" x2="26.7469" y2="39.7983" gradientUnits="userSpaceOnUse">
<stop stop-color="#F5841F"/>
<stop offset="0.25317" stop-color="#F1C961"/>
<stop offset="0.532535" stop-color="#00B3A6"/>
<stop offset="1" stop-color="#5B5FD1"/>
</linearGradient>
</defs>
</svg>
