<svg width="63" height="63" viewBox="0 0 63 63" fill="none" xmlns="http://www.w3.org/2000/svg">
<circle cx="31.5" cy="31.5" r="31" fill="black" stroke="url(#paint0_linear_2375_53)"/>
<path d="M47 33.8902C47 32.6769 46.3065 31.6335 45.3167 31.1239C45.8916 30.5597 46.2532 29.771 46.2532 28.8914C46.2532 27.1806 44.89 25.7853 43.2186 25.7853H36.6751C37.7894 21.7936 37.8131 18.827 36.7107 16.9949C36.0706 15.9333 35.063 15.2538 33.7887 15.0294C32.6566 14.8352 31.5779 15.6239 31.3823 16.7947C30.9318 19.4943 29.8176 21.8906 28.0691 23.9108C26.7888 25.3849 25.0226 26.3556 23.0845 26.6407C22.4384 25.6579 21.3419 25.0149 20.1032 25.0149H18.5977C16.6122 25.0149 15 26.665 15 28.6973V42.5472C15 44.5795 16.6122 46.2295 18.5977 46.2295H20.1032C21.3893 46.2295 22.5095 45.538 23.1497 44.5006H23.8905C24.3884 44.5006 24.8803 44.6583 25.2775 44.9556L27.1978 46.3266C27.7905 46.7634 28.5255 47 29.2723 47H41.7131C43.3845 47 44.7477 45.6047 44.7477 43.8939C44.7477 43.0143 44.3862 42.2256 43.8113 41.6614C44.807 41.1519 45.4945 40.1084 45.4945 38.8951C45.4945 38.1247 45.21 37.427 44.7537 36.881C46.0457 36.5231 47 35.328 47 33.8963V33.8902ZM20.0972 45.0162H18.5918C17.2582 45.0162 16.1795 43.9061 16.1795 42.5472V28.6973C16.1795 27.3323 17.2641 26.2282 18.5918 26.2282H20.0972C21.4308 26.2282 22.5095 27.3384 22.5095 28.6973V42.5472C22.5095 43.9121 21.4249 45.0162 20.0972 45.0162ZM43.9654 35.783H35.8868C35.5608 35.783 35.2941 36.056 35.2941 36.3896C35.2941 36.7233 35.5608 36.9963 35.8868 36.9963H42.4658C43.4853 36.9963 44.3151 37.8456 44.3151 38.889C44.3151 39.9325 43.4853 40.7818 42.4658 40.7818H35.8868C35.5608 40.7818 35.2941 41.0548 35.2941 41.3885C35.2941 41.7221 35.5608 41.9951 35.8868 41.9951H41.7131C42.7325 41.9951 43.5623 42.8444 43.5623 43.8879C43.5623 44.9313 42.7325 45.7806 41.7131 45.7806H29.2723C28.7744 45.7806 28.2825 45.6229 27.8853 45.3256L25.965 43.9546C25.3723 43.5178 24.6373 43.2812 23.8905 43.2812H23.6297C23.6772 43.0446 23.7009 42.7959 23.7009 42.5411V28.6912C23.7009 28.3757 23.6594 28.0663 23.5823 27.7691C25.6686 27.3808 27.5653 26.3131 28.9581 24.7055C30.8548 22.5155 32.0639 19.9129 32.5499 16.9889C32.6329 16.4793 33.1071 16.1274 33.5931 16.2123C34.5295 16.3761 35.2408 16.8493 35.6972 17.6137C36.6336 19.1789 36.5388 21.9998 35.4364 25.7732H32.8759C32.5499 25.7732 32.2832 26.0462 32.2832 26.3799C32.2832 26.7135 32.5499 26.9865 32.8759 26.9865H43.2126C44.2321 26.9865 45.0619 27.8358 45.0619 28.8793C45.0619 29.9227 44.2321 30.772 43.2126 30.772H35.8809C35.5549 30.772 35.2882 31.045 35.2882 31.3787C35.2882 31.7123 35.5549 31.9853 35.8809 31.9853H43.9594C44.9789 31.9853 45.8087 32.8346 45.8087 33.8781C45.8087 34.9215 44.9789 35.7708 43.9594 35.7708L43.9654 35.783Z" fill="url(#paint1_linear_2375_53)"/>
<defs>
<linearGradient id="paint0_linear_2375_53" x1="31.5" y1="0" x2="63.4351" y2="54.5022" gradientUnits="userSpaceOnUse">
<stop stop-color="#E37728"/>
<stop offset="0.2542" stop-color="#E0D25A"/>
<stop offset="0.653405" stop-color="#00B3A6"/>
<stop offset="1" stop-color="#5B5FD1"/>
</linearGradient>
<linearGradient id="paint1_linear_2375_53" x1="15" y1="31" x2="47.0238" y2="31.0826" gradientUnits="userSpaceOnUse">
<stop offset="0.05374" stop-color="#E08E13"/>
<stop offset="0.241092" stop-color="#F1C961"/>
<stop offset="0.590845" stop-color="#00B3A6"/>
<stop offset="1" stop-color="#5B5FD1"/>
</linearGradient>
</defs>
</svg>
