<svg width="63" height="63" viewBox="0 0 63 63" fill="none" xmlns="http://www.w3.org/2000/svg">
<circle cx="31.5" cy="31.5" r="31" fill="black" stroke="url(#paint0_linear_2375_60)"/>
<path d="M23.798 36.7C25.0101 37.8074 26.4242 38.6259 27.9394 39.1556C29.505 39.6852 31.0202 39.9741 32.4848 39.9741C32.8384 39.9741 33.1919 39.9259 33.5455 39.8778C33.899 39.8296 34.2525 39.6852 34.6061 39.5407C34.9091 39.3481 35.1616 39.1556 35.3636 38.8667C35.5657 38.5778 35.6667 38.2407 35.6667 37.8074C35.6667 37.037 35.2121 36.4593 34.2525 36.0259C33.2929 35.5926 32.1818 35.1593 30.8687 34.7259C29.7071 34.3407 28.5455 33.9074 27.2828 33.4741C26.0707 32.9926 24.9596 32.4148 23.899 31.6444C22.8889 30.9222 22.0303 30.0074 21.3737 28.9481C20.7172 27.8889 20.3636 26.5889 20.3636 25.0481C20.3636 23.7 20.6162 22.4963 21.0707 21.437C21.5253 20.3778 22.1818 19.463 22.9899 18.7407C23.798 17.9704 24.6061 17.3926 25.6667 16.9111C26.7273 16.4296 27.9394 16.0926 28.9495 15.8519V12H35.0101V15.7556C36.5253 15.9481 37.9394 16.3333 39.303 16.863C40.6667 17.3926 41.9293 18.163 43.0909 19.1741L38.6465 24.7593C37.7879 24.0852 36.7778 23.5074 35.6667 23.1222C34.5556 22.737 33.4949 22.5444 32.4848 22.5444C32.0808 22.5444 31.6768 22.5444 31.2222 22.5926C30.7677 22.6407 30.3636 22.737 29.9596 22.8815C29.5556 23.0259 29.2525 23.2667 29 23.5556C28.7475 23.8444 28.596 24.2296 28.596 24.7593C28.596 25.1926 28.7475 25.5296 29 25.8185C29.2525 26.1074 29.6061 26.3481 30.1111 26.5889C30.5657 26.8296 31.1212 27.0222 31.6768 27.263C32.2828 27.4556 32.8889 27.6481 33.5455 27.8407C34.6566 28.1778 35.8182 28.6111 37.0808 29.0444C38.2929 29.4778 39.404 30.1037 40.4646 30.8259C41.4747 31.5481 42.3333 32.463 42.9899 33.5704C43.6465 34.6778 44 36.0259 44 37.663C44 38.9148 43.7475 40.0222 43.2424 41.0333C42.7374 42.0444 42.0808 42.9111 41.2727 43.6333C40.4646 44.3556 39.5051 44.9815 38.3939 45.5111C37.2828 45.9926 35.9697 46.3778 34.9596 46.6185V51H29.0505V46.763C27.5354 46.5704 25.4646 46.137 23.697 45.463C21.9293 44.7889 20.4141 43.8259 19 42.5259L23.798 36.7Z" stroke="url(#paint1_linear_2375_60)" stroke-width="2"/>
<defs>
<linearGradient id="paint0_linear_2375_60" x1="31.5" y1="0" x2="63.4351" y2="54.5022" gradientUnits="userSpaceOnUse">
<stop stop-color="#E37728"/>
<stop offset="0.2542" stop-color="#E0D25A"/>
<stop offset="0.653405" stop-color="#00B3A6"/>
<stop offset="1" stop-color="#5B5FD1"/>
</linearGradient>
<linearGradient id="paint1_linear_2375_60" x1="24.8824" y1="15.4412" x2="50.7064" y2="28.0823" gradientUnits="userSpaceOnUse">
<stop stop-color="#FD9D43"/>
<stop offset="0.286463" stop-color="#EDBF1B"/>
<stop offset="0.619803" stop-color="#3FD1CC"/>
<stop offset="1" stop-color="#5B5FD1"/>
</linearGradient>
</defs>
</svg>
