<svg width="63" height="62" viewBox="0 0 63 62" fill="none" xmlns="http://www.w3.org/2000/svg">
<path d="M63 40.9539C63 43.3799 62.0144 45.4269 60.4224 47.0189C60.4224 47.0189 60.4224 47.0947 60.3466 47.0947C60.0433 55.055 53.5993 61.4233 45.5632 61.4233C41.1661 61.4233 37.148 59.4521 34.4946 56.4197C27.2166 57.0261 18.9531 55.7373 15.3141 52.0984C14.935 51.7193 14.6318 51.3402 14.3285 50.9612C9.55235 50.6579 5.00361 49.3691 2.57762 47.0189C0.909747 45.3511 0 43.3041 0 40.9539C0 35.9503 1.66787 30.416 4.39711 26.1706C5.76173 24.0478 7.35379 22.3799 9.09747 21.0911C9.40072 20.7879 9.47653 20.4088 9.55235 20.1056C9.62816 19.5749 9.47653 18.8926 9.09747 18.4377C7.4296 16.6182 6.29242 14.1164 6.29242 11.3113C6.29242 5.4738 10.9928 0.773438 16.8303 0.773438C19.4838 0.773438 21.9097 1.759 23.7292 3.42687C25.7762 1.759 28.278 0.849249 31.0072 0.849249C33.9639 0.849249 36.6173 1.98643 38.6643 3.73012C40.4838 1.91062 43.0614 0.773438 45.9422 0.773438C51.7798 0.773438 56.4801 5.4738 56.4801 11.3113C56.4801 13.9648 55.4946 16.4666 53.6751 18.4377C53.296 18.9684 53.2202 19.5749 53.2202 20.1056C53.296 20.4846 53.3718 20.8637 53.6751 21.0911C55.4188 22.3799 57.0108 24.0478 58.3755 26.1706C61.3321 30.416 63 35.9503 63 40.9539ZM59.5126 42.0153C59.5884 41.6363 59.5884 41.4088 59.5884 41.0298C59.5884 29.203 51.6282 21.9251 46.018 21.9251C44.2744 21.9251 42.2274 22.6832 40.2563 23.972C41.9242 25.2608 43.5162 27.0045 44.8051 29.0514C45.4874 29.9612 46.0181 30.8709 46.4729 32.0081C52.6137 32.3872 57.6931 36.481 59.5126 42.0153ZM52.8412 49.824C53.5235 49.7482 53.7509 48.6868 53.296 48.2319C52.6895 47.7012 52.1588 47.0947 51.6282 46.5641C51.4007 46.3366 50.7184 45.5785 50.2635 45.2752C50.2635 45.1236 50.2635 45.0478 50.3394 44.972C50.491 44.5171 50.491 44.0623 50.5668 43.5316C50.7184 42.7734 50.87 41.9395 50.9458 41.1814C51.0975 40.3475 50.3394 39.741 49.5812 40.12C48.3682 40.8023 47.0794 41.4088 45.8664 42.0911C44.6534 41.4088 43.3646 40.8023 42.1516 40.12C41.3935 39.741 40.6354 40.3475 40.787 41.1814C40.9386 41.9395 41.0903 42.7734 41.1661 43.5316C41.2419 43.9864 41.3177 44.5171 41.3935 44.972C41.3935 45.0478 41.3935 45.1994 41.4693 45.2752C41.0903 45.5785 40.3321 46.4124 40.1047 46.5641C39.574 47.0947 38.9675 47.7012 38.4368 48.2319C37.9819 48.6868 38.1336 49.6724 38.8159 49.824C39.574 49.9756 40.4079 50.0514 41.1661 50.203C41.5451 50.2789 42.6823 50.5063 43.1372 50.5063C43.2888 50.8854 43.8953 51.9467 44.0469 52.25C44.426 52.9323 44.7292 53.6904 45.1083 54.3727C45.4116 54.9792 46.4729 54.9792 46.7762 54.3727C47.1552 53.6904 47.4585 52.9323 47.8375 52.25C47.9892 51.9467 48.5957 50.8854 48.7473 50.5063C49.2022 50.5063 50.4152 50.2789 50.7184 50.203C51.3249 50.0514 52.083 49.8998 52.8412 49.824ZM51.8556 15.481C52.6895 14.268 53.1444 12.9034 53.1444 11.3113C53.1444 7.36911 49.8845 4.10918 45.9422 4.10918C43.8953 4.10918 42.1516 4.94311 40.8628 6.23192C42 8.05142 42.6823 10.1742 42.6823 12.4485C42.6823 14.1164 42.3032 15.5568 41.7726 17.0731C42.9856 17.9828 44.426 18.4377 46.018 18.4377C48.065 18.4377 49.8845 17.6038 51.1733 16.2391C51.4007 16.0117 51.6282 15.7843 51.8556 15.481ZM41.3177 32.463C41.6968 32.3872 42.1516 32.3113 42.5307 32.1597C41.0144 29.7337 39.2708 27.8384 37.3755 26.5496C36.3899 25.7915 35.4043 25.2608 34.4188 24.8817C33.2058 24.4269 32.1444 24.1236 31.0072 24.1236C30.0975 24.1236 29.0361 24.2752 28.0505 24.6543C27.065 25.0334 26.0036 25.4882 25.0181 26.2464C20.3177 29.3547 15.9964 36.102 15.9964 45.3511C15.9964 46.185 16.148 46.9431 16.4513 47.5496C16.7545 48.3077 17.2094 48.8384 17.7401 49.3691C18.4224 49.8998 19.1805 50.5063 20.2419 50.8854C23.2744 52.1742 27.7473 52.7048 32.0686 52.629C31.2347 50.8095 30.7798 48.7626 30.7798 46.6399C30.704 39.9684 35.2527 34.3583 41.3177 32.463ZM38.8159 12.2211C38.8159 7.89979 35.3285 4.33661 30.9314 4.33661C26.5343 4.33661 23.1227 7.89979 23.1227 12.2211C23.1227 16.5424 26.6101 20.1056 31.0072 20.1056C35.4043 20.1056 38.8159 16.5424 38.8159 12.2211ZM19.4838 12.5243C19.4838 10.0225 20.2419 7.82398 21.5307 5.92867C20.2419 4.79149 18.6498 4.18499 16.8303 4.18499C12.8881 4.18499 9.62816 7.44492 9.62816 11.3872C9.62816 12.9792 10.083 14.3438 10.9928 15.5568C11.296 15.8601 11.4477 16.0875 11.6751 16.3908C12.9639 17.7554 14.7834 18.5893 16.8303 18.5893C18.1949 18.5893 19.4838 18.2103 20.5451 17.4521C19.787 15.9359 19.4838 14.268 19.4838 12.5243ZM17.2852 28.9756C18.6498 26.777 20.3177 25.0334 22.213 23.5929C20.4693 22.3799 18.4982 21.7734 16.8303 21.7734C11.2202 21.7734 3.25993 29.0514 3.25993 40.8781C3.25993 42.3186 3.7148 43.5316 4.85199 44.5929C6.29242 45.9576 9.2491 46.9431 12.5848 47.2464C12.4332 46.5641 12.4332 45.9576 12.4332 45.1994C12.3574 39.7409 14.1769 33.676 17.2852 28.9756Z" fill="white"/>
</svg>
