<svg width="62" height="56" viewBox="0 0 62 56" fill="none" xmlns="http://www.w3.org/2000/svg">
<path fill-rule="evenodd" clip-rule="evenodd" d="M46.1154 53.8118H44.1272V28.3861C44.1272 27.7821 43.6568 27.2929 43.0582 27.2929H33.0739C32.4753 27.2929 32.0049 27.7821 32.0049 28.3861V53.8118H30.0167V26.211C30.0167 25.6098 29.525 25.1179 28.9477 25.1179H18.9422C18.365 25.1179 17.8732 25.6098 17.8732 26.211V53.8118H15.885V34.3899C15.885 33.786 15.4147 33.2968 14.816 33.2968H4.83172C4.2331 33.2968 3.76276 33.786 3.76276 34.3899V53.8118H1.06897C0.491724 53.8118 0 54.301 0 54.9049C0 55.5061 0.491724 55.998 1.06897 55.998H60.931C61.5297 55.998 62 55.5061 62 54.9049C62 54.301 61.5297 53.8118 60.931 53.8118H58.2587V20.415C58.2587 19.811 57.7883 19.3219 57.1897 19.3219H47.1842C46.6069 19.3219 46.1152 19.811 46.1152 20.415L46.1154 53.8118ZM56.1209 53.8118V21.5077H48.2533V53.8118H56.1209ZM5.9011 53.8118H13.7475V35.4834H5.9011V53.8118ZM20.0114 53.8118H27.879V27.3038H20.0114V53.8118ZM41.9894 53.8118V29.4795H34.143V53.8118H41.9894ZM48.1894 6.32458L38.5259 16.209C37.8845 15.78 37.1149 15.5286 36.2811 15.5286C35.4474 15.5286 34.6777 15.7827 34.0149 16.22L27.1949 9.24593C27.1735 9.235 27.1735 9.22407 27.1521 9.21314C27.3873 8.69391 27.5156 8.12004 27.5156 7.51881C27.5156 5.19052 25.6555 3.29946 23.3894 3.29946C21.1018 3.29946 19.2632 5.19052 19.2632 7.51881C19.2632 8.15555 19.3915 8.75946 19.6481 9.30059L10.1769 18.9745C10.1127 19.0537 10.0486 19.1466 9.98445 19.245C9.36445 18.8679 8.65893 18.652 7.88927 18.652C5.60165 18.652 3.7631 20.5431 3.7631 22.8714C3.7631 25.1969 5.60172 27.088 7.88927 27.088C10.1555 27.088 12.0154 25.1969 12.0154 22.8714C12.0154 22.0843 11.8017 21.3465 11.4382 20.718V20.7152C11.5237 20.666 11.6092 20.5977 11.6948 20.5185L21.0161 10.981C21.7003 11.4565 22.5127 11.738 23.3893 11.738C24.2872 11.738 25.1424 11.4346 25.8051 10.9263L32.6037 17.8593C32.3044 18.4278 32.1548 19.0672 32.1548 19.7449C32.1548 22.0732 34.0148 23.9643 36.2809 23.9643C38.5686 23.9643 40.4071 22.0732 40.4071 19.7449C40.4071 19.059 40.2574 18.4114 39.9581 17.8374L49.7071 7.86833C50.3271 8.22906 51.0112 8.43674 51.7809 8.43674C54.0471 8.43674 55.907 6.54569 55.907 4.21739C55.907 1.8891 54.047 -0.00195312 51.7809 -0.00195312C49.4932 -0.00195312 47.6547 1.8891 47.6547 4.21739C47.6547 4.9826 47.8473 5.70426 48.1894 6.32458ZM7.88955 20.8382C8.97993 20.8382 9.87779 21.751 9.87779 22.8714C9.87779 23.9917 8.97986 24.9018 7.88955 24.9018C6.77782 24.9018 5.90131 23.9917 5.90131 22.8714C5.90131 21.751 6.77782 20.8382 7.88955 20.8382ZM36.2813 17.7147C37.3717 17.7147 38.2695 18.6247 38.2695 19.7451C38.2695 20.8655 37.3716 21.7782 36.2813 21.7782C35.191 21.7782 34.293 20.8655 34.293 19.7451C34.293 18.6247 35.191 17.7147 36.2813 17.7147ZM23.3894 5.48592C24.4798 5.48592 25.3776 6.39867 25.3776 7.51906C25.3776 8.64225 24.4797 9.5522 23.3894 9.5522C22.2777 9.5522 21.4011 8.64218 21.4011 7.51906C21.4011 6.3986 22.2777 5.48592 23.3894 5.48592ZM51.7811 2.18471C52.8715 2.18471 53.7693 3.09473 53.7693 4.21785C53.7693 5.33831 52.8714 6.25099 51.7811 6.25099C50.6694 6.25099 49.7929 5.33824 49.7929 4.21785C49.7929 3.09466 50.6694 2.18471 51.7811 2.18471Z" fill="url(#paint0_linear_2168_1032)"/>
<defs>
<linearGradient id="paint0_linear_2168_1032" x1="31" y1="-0.00195312" x2="57.9062" y2="50.8377" gradientUnits="userSpaceOnUse">
<stop stop-color="#E37728"/>
<stop offset="0.2542" stop-color="#E0D25A"/>
<stop offset="0.653405" stop-color="#00B3A6"/>
<stop offset="1" stop-color="#5B5FD1"/>
</linearGradient>
</defs>
</svg>
