<svg width="92" height="61" viewBox="0 0 92 61" fill="none" xmlns="http://www.w3.org/2000/svg">
<path d="M28.7312 14.45C28.825 14.4656 28.9187 14.4734 29.0086 14.4734C29.7156 14.4734 30.3484 13.9695 30.4813 13.2468C30.6336 12.4343 30.0945 11.6491 29.2821 11.4968L19.1261 9.59841L19.4854 8.56721C19.7472 7.82112 19.38 6.99691 18.6495 6.68831L3.0595 0.133611C2.29778 -0.182799 1.4189 0.168767 1.0947 0.934391C0.774394 1.69611 1.13377 2.57889 1.89548 2.89919L16.1845 8.91089L7.45788 33.8449L2.93058 32.3293C2.14933 32.0676 1.29778 32.4895 1.03218 33.2746C0.766584 34.0597 1.19234 34.9113 1.97749 35.173L7.90719 37.1574C8.06344 37.2121 8.2236 37.2355 8.38375 37.2355C9.00484 37.2355 9.58295 36.8488 9.80175 36.2316L18.1221 12.4656L28.7312 14.45Z" fill="url(#paint0_linear_2168_1025)"/>
<path d="M91.1151 32.7037C90.8261 31.9303 89.9589 31.5396 89.1815 31.8287L83.7323 33.8834L75.0331 9.0244L89.9981 3.0283C90.7677 2.71971 91.1426 1.8447 90.8341 1.0791C90.5255 0.309567 89.6544 -0.0615021 88.8849 0.243158L72.5879 6.77436C71.8457 7.07514 71.4668 7.90716 71.7324 8.66106L72.0176 9.47356L67.5645 10.7002C67.2676 10.4267 66.9512 10.1611 66.6113 9.90328C66.4395 9.77047 66.2363 9.67672 66.0254 9.63375C57.9785 7.87595 47.9904 5.94625 46.0994 6.72755C42.9392 8.02835 37.1267 12.0322 33.6584 14.4189L32.1232 15.4697C31.7677 15.708 31.5334 16.083 31.4748 16.5088C31.2638 18.0322 30.549 20.0128 29.7287 22.3057C29.2169 23.7237 28.6662 25.2589 28.1545 26.8995C27.9904 27.423 28.1271 27.9933 28.506 28.3878C30.1701 30.1066 32.2013 31.0245 34.3107 31.0245C34.6037 31.0245 34.9006 31.005 35.1974 30.9699C37.4669 30.6964 39.5021 29.3644 40.6388 27.4152C41.2717 26.3254 41.8966 24.7004 42.338 23.3527C43.7833 23.0831 46.1427 22.5753 47.8068 22.1886C47.8225 22.2003 47.8342 22.212 47.8537 22.2237L66.1307 33.4577L75.9627 38.8366C75.9666 38.8366 75.9705 38.8405 75.9744 38.8405C75.9823 38.8444 75.9901 38.8522 76.0018 38.8601C77.2948 39.5632 77.8026 41.239 77.1112 42.5046C76.3846 43.8327 74.8534 44.3405 73.5643 43.6413L63.4273 38.6101C62.7163 38.2546 61.8531 38.5241 61.4585 39.2077C61.0639 39.8991 61.2749 40.7741 61.9429 41.2077L66.9195 44.4421C68.1578 45.1218 68.5367 46.5671 67.8179 47.8796C67.4585 48.5398 66.857 49.0358 66.1695 49.239C65.732 49.3679 65.0562 49.4382 64.3336 49.0437L56.5367 44.782C55.8297 44.3953 54.9586 44.6297 54.5406 45.3093C54.1226 45.989 54.3062 46.8757 54.9586 47.3288L59.0563 50.1765C59.4821 50.7898 59.7555 52.0085 59.2281 52.9773C58.5485 54.2195 56.8609 54.6531 55.5015 53.9148L51.0757 51.5945C50.4859 51.282 49.6968 51.4656 49.2359 51.95C48.7047 52.5086 48.6852 53.3758 49.1813 53.9617C49.693 54.5594 49.8922 55.7742 49.3375 56.782C48.9742 57.45 48.357 57.7508 47.9078 57.8797C47.1305 58.1063 46.2398 58.0125 45.5328 57.6258L44.6461 57.1453C46.3219 55.2117 46.2711 52.2781 44.4351 50.4148L43.4625 49.4422C42.3102 48.2742 40.6031 47.8289 39.025 48.1063C39.0875 46.7665 38.6305 45.4032 37.6148 44.3758L36.6421 43.3953C35.4859 42.2273 33.7827 41.782 32.2046 42.0594C32.2085 41.9852 32.2281 41.9149 32.2281 41.8407C32.2359 40.5126 31.7242 39.2704 30.7984 38.3329L29.8218 37.3446C28.5913 36.1102 26.7554 35.6962 25.107 36.0829C25.107 36.0399 25.1187 35.9969 25.1187 35.954C25.1265 34.6259 24.6148 33.3798 23.689 32.4423L22.7125 31.4579C20.857 29.5829 17.5758 29.5751 15.7047 31.4227L13.7281 33.368C11.7906 35.2899 11.775 38.4344 13.7007 40.3836L14.6773 41.3641C15.521 42.2157 16.6265 42.6961 17.8179 42.786C17.5601 43.3876 17.4233 44.0399 17.4233 44.7157C17.4194 46.0399 17.9273 47.286 18.8608 48.2196L19.8335 49.2001C20.7671 50.1454 22.0171 50.6649 23.353 50.6649C24.021 50.6649 24.6694 50.5321 25.2671 50.2821C25.3765 51.4149 25.8452 52.4735 26.6577 53.286L27.6304 54.2664C28.564 55.2117 29.8179 55.7352 31.1499 55.7352C31.8178 55.7352 32.4663 55.6024 33.064 55.3524C33.1734 56.4852 33.6421 57.5438 34.4507 58.3602L35.4272 59.3446C36.3608 60.286 37.6108 60.8055 38.9428 60.8055C40.2592 60.8055 41.5014 60.2977 42.4311 59.3758L42.4428 59.3641L44.0951 60.2586C44.9936 60.7508 46.0092 61.0047 47.0326 61.0047C47.6108 61.0047 48.1928 60.9227 48.7514 60.7586C50.1616 60.3446 51.3022 59.4422 51.9702 58.2195C52.3765 57.4773 52.6031 56.6414 52.6499 55.8054L54.0874 56.5593C56.8452 58.0671 60.3999 57.0789 61.8608 54.4148C62.3765 53.4695 62.5561 52.4382 62.5015 51.4578L62.8921 51.6688C64.1577 52.3602 65.6187 52.5203 67.0132 52.1102C68.4585 51.6844 69.7124 50.6649 70.4507 49.3094C71.0601 48.1961 71.2944 46.9578 71.1265 45.7664L72.1812 46.2898C74.896 47.7703 78.2085 46.7312 79.7437 43.9304C81.2085 41.2312 80.1538 37.696 77.4351 36.2116C77.4312 36.2077 77.4233 36.2077 77.4194 36.2038C77.4116 36.1999 77.4077 36.196 77.3999 36.1921L67.6343 30.8483L49.4073 19.6643C49.3057 19.6018 49.2003 19.5588 49.0948 19.5198C48.7393 19.1682 48.2159 18.9963 47.6964 19.1252C45.5362 19.6369 41.8839 20.4104 40.9659 20.5314C40.3761 20.6096 39.8878 21.0275 39.7237 21.5978C39.2432 23.2423 38.5479 25.008 38.0323 25.8986C37.3761 27.0236 36.1456 27.8244 34.8214 27.9845C33.9347 28.0861 32.6378 27.965 31.2941 26.8829C31.7082 25.6212 32.1339 24.4298 32.5363 23.3126C33.3097 21.1564 33.9933 19.2618 34.3175 17.586L35.3448 16.8829C38.4971 14.7149 44.3643 10.672 47.1338 9.52351C48.5283 9.25398 57.2588 10.793 65.0358 12.4844C65.4069 12.7852 65.7428 13.1016 66.0592 13.4219C66.442 13.8086 67.0006 13.961 67.524 13.8164L72.9967 12.3086L81.4029 36.3246C81.5357 36.7074 81.817 37.016 82.1842 37.1879C82.3834 37.2817 82.6021 37.3285 82.817 37.3285C82.9967 37.3285 83.1763 37.2973 83.3443 37.2309L90.231 34.6332C91.0123 34.3441 91.4068 33.477 91.1138 32.7035L91.1151 32.7037ZM15.8341 38.2818C15.0724 37.5123 15.0763 36.2701 15.842 35.5123L17.8186 33.5709C18.1857 33.2076 18.6779 33.0045 19.2014 33.0045C19.7287 33.0045 20.2248 33.2076 20.592 33.5787L21.5685 34.5631C21.9318 34.9303 22.131 35.4225 22.131 35.9498C22.1271 36.4771 21.924 36.9654 21.5607 37.3248L19.5841 39.2701C18.8458 40.0006 17.5489 39.9966 16.8146 39.2584L15.8341 38.2818ZM21.963 47.0982L20.9826 46.1138C20.6193 45.7466 20.4201 45.2584 20.4201 44.7349C20.4201 44.2076 20.6271 43.7154 20.9982 43.3482L24.924 39.4537C25.2912 39.0904 25.7795 38.8912 26.3029 38.8912C26.8302 38.8912 27.3263 39.0943 27.6974 39.4654L28.6739 40.4537C29.0372 40.8209 29.2364 41.3092 29.2364 41.8365C29.2364 42.3639 29.0294 42.8521 28.6583 43.2193L24.7325 47.1138C23.9903 47.8404 22.6934 47.8404 21.963 47.0982ZM29.7599 52.1685L28.7834 51.1802C28.4162 50.813 28.217 50.3247 28.2209 49.7974C28.2209 49.274 28.424 48.7818 28.7951 48.4185L31.7482 45.5005C32.1154 45.1372 32.6037 44.938 33.1271 44.938C33.6583 44.938 34.1505 45.1411 34.5177 45.5161L35.4904 46.4966C36.2482 47.2622 36.2443 48.5083 35.4825 49.2661L32.5294 52.1841C31.7873 52.9107 30.4903 52.9107 29.7599 52.1685ZM37.5568 57.2427L36.5803 56.2583C36.2131 55.8911 36.0139 55.395 36.0139 54.8677C36.0178 54.3404 36.2209 53.8521 36.5842 53.4888L38.5608 51.5474C38.928 51.1841 39.4202 50.9849 39.9436 50.9849C40.4748 50.9849 40.967 51.188 41.3381 51.563L42.3068 52.5357C43.0686 53.3052 43.0646 54.5513 42.3029 55.3052L40.3263 57.2466C39.5841 57.981 38.2833 57.9771 37.5568 57.2427Z" fill="url(#paint1_linear_2168_1025)"/>
<defs>
<linearGradient id="paint0_linear_2168_1025" x1="2.02438" y1="7.21441" x2="28.2938" y2="8.90079" gradientUnits="userSpaceOnUse">
<stop stop-color="#F5841F"/>
<stop offset="0.364047" stop-color="#EBC554"/>
<stop offset="0.585816" stop-color="#00B3A6"/>
<stop offset="1" stop-color="#5B5FD1"/>
</linearGradient>
<linearGradient id="paint1_linear_2168_1025" x1="15.1272" y1="11.9068" x2="84.8216" y2="19.2144" gradientUnits="userSpaceOnUse">
<stop stop-color="#F5841F"/>
<stop offset="0.364047" stop-color="#EBC554"/>
<stop offset="0.585816" stop-color="#00B3A6"/>
<stop offset="1" stop-color="#5B5FD1"/>
</linearGradient>
</defs>
</svg>
