<svg width="82" height="82" viewBox="0 0 82 82" fill="none" xmlns="http://www.w3.org/2000/svg">
<circle cx="40.5664" cy="41.084" r="39.0664" fill="black" stroke="url(#paint0_linear_2168_1015)" stroke-width="3"/>
<path d="M30.1073 38.3435H30.6073V37.8435V29.3468C30.6073 23.7206 35.1854 19.1426 40.8111 19.1426C46.4377 19.1426 51.0158 23.7207 51.0158 29.3468C51.0158 29.5475 50.8534 29.7099 50.6526 29.7099C50.4519 29.7099 50.2895 29.5475 50.2895 29.3468C50.2895 24.12 46.0383 19.8688 40.8111 19.8688C35.5847 19.8688 31.3335 24.12 31.3335 29.3468V37.8435V38.3435H31.8335H53.1897C54.1788 38.3435 54.9849 39.1493 54.9849 40.1387V57.7769C54.9849 58.7663 54.1788 59.5721 53.1897 59.5721H27.9436C26.9545 59.5721 26.1484 58.7663 26.1484 57.7769V40.1387C26.1484 39.1493 26.9545 38.3435 27.9436 38.3435H30.1073ZM54.2587 40.1387C54.2587 39.549 53.7794 39.0697 53.1897 39.0697H27.9436C27.3539 39.0697 26.8747 39.549 26.8747 40.1387V57.7769C26.8747 58.3666 27.3539 58.8459 27.9436 58.8459H53.1897C53.7794 58.8459 54.2587 58.3666 54.2587 57.7769V40.1387Z" fill="url(#paint1_linear_2168_1015)" stroke="url(#paint2_linear_2168_1015)"/>
<path d="M37.5764 53.7357L37.5765 53.7352L38.4219 49.1149L38.4652 48.8781L38.3071 48.6966C37.8336 48.1528 37.5703 47.461 37.5703 46.7436C37.5703 45.0912 38.9151 43.7461 40.5674 43.7461C42.2197 43.7461 43.5646 45.0912 43.5646 46.7436C43.5646 47.461 43.3013 48.1528 42.8278 48.6966L42.6697 48.8781L42.713 49.1149L43.5584 53.7352L43.5585 53.7357C43.578 53.8414 43.5493 53.9506 43.4808 54.033C43.4112 54.1162 43.309 54.1638 43.2015 54.1638H37.9334C37.8259 54.1638 37.7236 54.1162 37.654 54.0329C37.5856 53.9505 37.5569 53.8414 37.5764 53.7357ZM41.9173 48.8009L41.9172 48.8004C41.8939 48.6737 41.9398 48.544 42.0378 48.4598C42.548 48.0219 42.8383 47.4107 42.8383 46.7436C42.8383 45.4906 41.8197 44.4723 40.5674 44.4723C39.3152 44.4723 38.2965 45.4906 38.2965 46.7436C38.2965 47.4107 38.5869 48.0219 39.0971 48.4598C39.1951 48.544 39.241 48.6737 39.2177 48.8004L39.2176 48.8009L38.4767 52.8475L38.3686 53.4376H38.9685H42.1664H42.7663L42.6582 52.8475L41.9173 48.8009Z" fill="url(#paint3_linear_2168_1015)" stroke="url(#paint4_linear_2168_1015)"/>
<defs>
<linearGradient id="paint0_linear_2168_1015" x1="9.82891e-09" y1="41.084" x2="81.193" y2="41.2934" gradientUnits="userSpaceOnUse">
<stop offset="0.05374" stop-color="#E08E13"/>
<stop offset="0.241092" stop-color="#F1C961"/>
<stop offset="0.590845" stop-color="#00B3A6"/>
<stop offset="1" stop-color="#5B5FD1"/>
</linearGradient>
<linearGradient id="paint1_linear_2168_1015" x1="27.1403" y1="22.7855" x2="55.3109" y2="25.9026" gradientUnits="userSpaceOnUse">
<stop stop-color="#F5841F"/>
<stop offset="0.241324" stop-color="#F1C961"/>
<stop offset="0.595497" stop-color="#00B3A6"/>
<stop offset="1" stop-color="#5B5FD1"/>
</linearGradient>
<linearGradient id="paint2_linear_2168_1015" x1="27.1403" y1="22.7855" x2="55.3109" y2="25.9026" gradientUnits="userSpaceOnUse">
<stop stop-color="#F5841F"/>
<stop offset="0.241324" stop-color="#F1C961"/>
<stop offset="0.595497" stop-color="#00B3A6"/>
<stop offset="1" stop-color="#5B5FD1"/>
</linearGradient>
<linearGradient id="paint3_linear_2168_1015" x1="37.42" y1="44.3879" x2="44.046" y2="45.0115" gradientUnits="userSpaceOnUse">
<stop stop-color="#F5841F"/>
<stop offset="0.241324" stop-color="#F1C961"/>
<stop offset="0.595497" stop-color="#00B3A6"/>
<stop offset="1" stop-color="#5B5FD1"/>
</linearGradient>
<linearGradient id="paint4_linear_2168_1015" x1="37.42" y1="44.3879" x2="44.046" y2="45.0115" gradientUnits="userSpaceOnUse">
<stop stop-color="#F5841F"/>
<stop offset="0.241324" stop-color="#F1C961"/>
<stop offset="0.595497" stop-color="#00B3A6"/>
<stop offset="1" stop-color="#5B5FD1"/>
</linearGradient>
</defs>
</svg>
