<svg width="18" height="19" viewBox="0 0 18 19" fill="none" xmlns="http://www.w3.org/2000/svg">
<path d="M16.807 4.60938H1.19049C1.04081 4.60938 0.917969 4.73221 0.917969 4.8819V14.8195C0.917969 14.9692 1.04081 15.0921 1.19049 15.0921H16.803C16.9527 15.0921 17.0756 14.9692 17.0756 14.8195L17.0764 4.8819C17.078 4.73221 16.9575 4.60938 16.807 4.60938ZM16.6614 14.6722H1.33601V5.02588H16.6614V14.6722Z" fill="white"/>
<path d="M6.0519 12.7254H11.9138C13.6482 12.7254 13.784 10.9805 13.784 10.4469C13.784 9.82214 13.4944 9.21364 13.0096 8.8183C12.6492 8.52462 12.0326 8.22038 11.0914 8.35622C11.0125 7.90392 10.7481 7.32145 10.2812 6.90659C9.77678 6.45918 9.10648 6.25661 8.34016 6.32575C6.80348 6.46079 6.18037 7.89009 6.11768 8.86624C5.52872 9.01022 4.44922 9.47879 4.44922 10.9944C4.45003 12.0137 5.29373 12.7254 6.0519 12.7254ZM6.32685 9.24778C6.50419 9.21442 6.5286 9.09972 6.5286 9.03546C6.52697 8.48147 6.86376 6.874 8.37604 6.74051C8.46389 6.73237 8.5485 6.72831 8.63229 6.72831C9.17815 6.72831 9.63776 6.89263 10.0022 7.21804C10.496 7.65733 10.6896 8.28858 10.6977 8.60748L10.7059 8.8556L10.9499 8.80597C11.8578 8.61643 12.4264 8.88732 12.7453 9.1452C13.135 9.46164 13.3676 9.95137 13.3676 10.4508C13.3676 11.0113 13.2261 12.3129 11.9139 12.3129L6.05198 12.3113C5.49149 12.3113 4.8651 11.7467 4.8651 10.9934C4.86673 9.7187 5.781 9.3519 6.32685 9.24778Z" fill="white"/>
<path d="M8.26106 11.8206C8.29848 11.8393 8.33996 11.8499 8.37982 11.8499C8.43433 11.8499 8.48802 11.8336 8.53357 11.8002L10.5803 10.3067C10.647 10.257 10.6869 10.1798 10.6869 10.096C10.6869 10.013 10.647 9.93571 10.5803 9.88528L8.53357 8.39414C8.45466 8.33557 8.35054 8.32744 8.26268 8.37299C8.17482 8.41692 8.12113 8.5064 8.12113 8.60403V11.5879C8.1195 11.6855 8.1732 11.775 8.26106 11.8206ZM8.53601 8.91315L10.1622 10.0984L8.53601 11.2837V8.91315Z" fill="white"/>
<path d="M6.58529 1.23651C6.66664 1.29915 6.78135 1.29264 6.85375 1.22024C7.11407 0.962362 7.8031 0.416508 8.9819 0.416508C10.1672 0.416508 10.8814 0.982708 11.1473 1.24709C11.2205 1.3203 11.3369 1.32437 11.4182 1.26173L11.4207 1.25929C11.5183 1.18201 11.5288 1.03639 11.4394 0.949345C11.1164 0.634528 10.3062 0 8.98176 0C7.66554 0 6.87653 0.612557 6.56165 0.924937C6.47135 1.01361 6.48117 1.15923 6.58529 1.23651Z" fill="white"/>
<path d="M10.6116 2.04004L10.614 2.0376C10.6995 1.94811 10.6889 1.80412 10.5913 1.72928C10.3122 1.51696 9.72488 1.14844 9.00008 1.14844C8.27527 1.14844 7.68385 1.52102 7.40481 1.7374C7.3072 1.81224 7.29662 1.95623 7.38204 2.04572L7.38448 2.04816C7.45769 2.12544 7.57646 2.13114 7.66106 2.06687C7.89616 1.8879 8.40215 1.56494 9.00007 1.56494C9.59798 1.56494 10.0999 1.88138 10.335 2.05873C10.418 2.12543 10.5368 2.1165 10.6116 2.04004Z" fill="white"/>
<path d="M8.99417 2.35547C8.76965 2.35547 8.5614 2.44495 8.41741 2.53037C8.30515 2.59463 8.27749 2.74512 8.36128 2.84519L8.36372 2.84763C8.42798 2.92491 8.53618 2.94362 8.62404 2.89318C8.72816 2.83298 8.86565 2.77279 8.99498 2.77279C9.1243 2.77279 9.26179 2.83298 9.36592 2.89318C9.45134 2.9428 9.56197 2.9241 9.62624 2.84763L9.62542 2.84437C9.7084 2.74431 9.68155 2.59626 9.56929 2.52956C9.4253 2.44495 9.21706 2.35547 8.99417 2.35547Z" fill="white"/>
<path d="M17.8747 17.8781H16.207C16.3901 17.6552 16.3795 17.3282 16.1712 17.1199L15.1658 16.1144L17.4143 16.1136C17.7226 16.1136 17.9723 15.8639 17.9723 15.5556V4.18306C17.9723 3.87474 17.7226 3.625 17.4143 3.625H0.581554C0.273235 3.625 0.0234973 3.87474 0.0234973 4.18306V15.5581C0.0234973 15.8664 0.273235 16.1161 0.581554 16.1161H2.83257L1.8271 17.1216C1.72053 17.2282 1.66033 17.3713 1.66033 17.5218C1.66033 17.6553 1.70833 17.7781 1.79131 17.8798H0.125277C0.0569449 17.8798 0 17.9359 0 18.0051V18.1718C0 18.2402 0.0561306 18.2971 0.125277 18.2971H17.8747C17.9431 18.2971 18 18.241 18 18.1718V18.0051C18 17.9343 17.9438 17.8781 17.8747 17.8781ZM0.581506 15.697C0.502597 15.697 0.439959 15.6328 0.439959 15.5555V4.18298C0.439959 4.10407 0.504223 4.04143 0.581506 4.04143H17.4167C17.4956 4.04143 17.5583 4.10569 17.5583 4.18298V15.558C17.5583 15.6369 17.494 15.6995 17.4167 15.6995H0.581506V15.697ZM2.12225 17.6258C2.09296 17.5965 2.07832 17.5591 2.07832 17.5193C2.07832 17.4794 2.09296 17.442 2.12225 17.4127L3.41163 16.1233L3.40105 16.1127H3.84684L2.33457 17.625C2.27681 17.6836 2.18081 17.6836 2.12225 17.6258ZM2.67054 17.878L4.4342 16.1143H13.5615L15.3252 17.878H2.67054ZM15.8759 17.6258C15.8173 17.6844 15.7221 17.6844 15.6636 17.6258L14.1513 16.1135H14.5971L14.5865 16.1241L15.8759 17.4135C15.9361 17.4713 15.9361 17.5673 15.8759 17.6258Z" fill="white"/>
</svg>
