<svg width="20" height="18" viewBox="0 0 20 18" fill="none" xmlns="http://www.w3.org/2000/svg">
<path fill-rule="evenodd" clip-rule="evenodd" d="M11.6051 12.0446C12.6507 12.3639 13.3698 13.3498 13.3736 14.471V16.759C13.3736 16.892 13.2693 17 13.14 17H6.75008C6.62147 17 6.51646 16.892 6.51646 16.759V14.4694C6.52179 13.3489 7.24013 12.3637 8.28495 12.0446C7.78119 11.3897 7.68607 10.4969 8.03992 9.74561C8.39377 8.99443 9.13343 8.51712 9.94537 8.51712C10.7566 8.51712 11.497 8.99443 11.8501 9.74561C12.2039 10.4968 12.1088 11.3896 11.6051 12.0446ZM11.2619 12.698V12.6972C10.4667 13.2512 9.4234 13.2512 8.6281 12.6972C7.8093 12.8717 7.22106 13.6119 7.21878 14.4711V16.2786H8.01933V14.734C8.01933 14.6017 8.12434 14.4938 8.25294 14.4938C8.3823 14.4938 8.48655 14.6018 8.48655 14.734V16.277H11.4034L11.4042 14.734C11.4042 14.6017 11.5084 14.4938 11.6378 14.4938C11.7671 14.4938 11.8714 14.6018 11.8714 14.734V16.277H12.6735V14.4695C12.6704 13.6096 12.0822 12.8693 11.2626 12.6956L11.2619 12.698ZM6.56665 1.00004H13.3247C13.7501 1.00004 14.0788 1.37719 14.0788 1.81538V4.04227H18.3114C18.6683 4.04227 18.9453 4.3576 18.9453 4.72302V9.00553C18.9453 9.37172 18.6683 9.68628 18.3114 9.68628H13.1292C12.773 9.68628 12.4953 9.37172 12.4953 9.00553V8.21679H7.39442V9.00709C7.39442 9.37329 7.11666 9.68784 6.76206 9.68784L1.5792 9.68862C1.22383 9.68862 0.945312 9.37407 0.945312 9.00787V4.72456C0.945312 4.35837 1.22383 4.04381 1.5792 4.04381L5.81101 4.04303V1.81534C5.81101 1.37715 6.14126 1.00004 6.56665 1.00004ZM14.0796 4.52597V7.40228C14.0796 7.84281 13.7501 8.21839 13.3255 8.21839H12.9633V9.00869C12.9633 9.11198 13.0333 9.20901 13.1299 9.20901H18.3122C18.4096 9.20901 18.4781 9.1112 18.4781 9.00869V4.72458C18.4781 4.62051 18.4096 4.52426 18.3122 4.52426L14.0796 4.52597ZM6.92723 8.21695H6.56653C6.14115 8.21695 5.81089 7.8398 5.81089 7.40083V6.87266L5.46312 6.53776C5.44638 6.52055 5.3855 6.52837 5.38246 6.53072L3.31029 8.87419C3.27071 8.9274 3.2106 8.96183 3.14516 8.96731C3.08047 8.97357 3.01579 8.95166 2.96709 8.90627C2.91915 8.86089 2.89099 8.79672 2.89099 8.72943C2.89023 8.66214 2.91763 8.59719 2.96557 8.55181L3.24408 8.23648L2.40474 7.41958C2.37886 7.41097 2.35147 7.41253 2.32636 7.42427L1.41244 8.31863V9.00799C1.41244 9.11128 1.48092 9.20831 1.57833 9.20831H6.76119C6.85783 9.20831 6.92708 9.1105 6.92708 9.00799L6.92723 8.21695ZM5.81089 6.21381V4.52366H1.57908C1.48168 4.52366 1.41319 4.61991 1.41319 4.72398V7.65677L2.00751 7.07697C2.21525 6.88526 2.52878 6.88526 2.73652 7.07697L3.55913 7.88135L5.04454 6.20215C5.22185 5.9995 5.58254 5.99559 5.78115 6.1865L5.81089 6.21381ZM15.3952 6.02837L17.1767 5.41959V5.21772L15.3952 5.82649V6.02837ZM17.1767 5.92508L15.3952 6.53385V8.42119C15.3861 9.00649 14.5604 9.29444 14.0567 8.90946C13.521 8.50022 13.8619 7.73808 14.5962 7.73808L14.5954 7.73886C14.7088 7.73886 14.8215 7.75921 14.928 7.7999V5.65514C14.9272 5.54246 15.0026 5.44465 15.1091 5.41961L17.3151 4.6653V4.66609C17.3448 4.65278 17.3767 4.64574 17.4095 4.64496C17.5381 4.64496 17.6431 4.75294 17.6431 4.88596V7.6535C17.6332 8.23879 16.8068 8.52674 16.3038 8.14332C15.7696 7.7333 16.109 6.97117 16.844 6.97117H16.8433C16.9567 6.97117 17.0693 6.99151 17.1758 7.0322L17.1767 5.92508ZM3.35212 4.99316C3.98297 4.99316 4.30181 5.78268 3.85436 6.24122C3.4069 6.69975 2.64061 6.37424 2.64061 5.72479C2.64137 5.32103 2.95947 4.99394 3.35212 4.99316ZM12.9053 16.5182V14.4696C12.9038 13.4547 12.1816 12.594 11.2053 12.443C10.4565 13.0135 9.43299 13.0135 8.68428 12.443C7.70872 12.5948 6.98733 13.4556 6.98427 14.4696V16.5182H12.9053ZM11.1102 9.49542C10.6391 9.01106 9.92992 8.86631 9.31429 9.12844C8.6979 9.39057 8.29611 10.0087 8.29611 10.6942C8.29611 11.3796 8.6979 11.9978 9.31429 12.2607C9.92992 12.5228 10.6391 12.3781 11.1102 11.8929C11.4199 11.5753 11.5934 11.1441 11.5934 10.6942C11.5934 10.245 11.4199 9.81311 11.1102 9.49542ZM8.58372 6.31543V2.90068C8.58372 2.81148 8.6309 2.7301 8.707 2.68785C8.78386 2.64637 8.87594 2.65107 8.94823 2.70037L11.8102 4.40069H11.8094C11.8809 4.44373 11.9251 4.52276 11.9251 4.60806C11.9251 4.69335 11.8809 4.77159 11.8094 4.81542L8.93364 6.52356C8.86135 6.56659 8.77231 6.56659 8.70002 6.52356C8.62773 6.4813 8.58284 6.40149 8.58284 6.31619L8.58372 6.31543Z" stroke="white" stroke-width="0.2"/>
</svg>
