<svg width="19" height="14" viewBox="0 0 19 14" fill="none" xmlns="http://www.w3.org/2000/svg">
<path d="M12.2504 7.5186C12.0907 7.47633 11.9256 7.57181 11.8833 7.73225C11.5836 8.86703 10.5568 9.65903 9.386 9.65903H8.774C7.60401 9.65903 6.57639 8.86625 6.27506 7.73147C6.2328 7.57103 6.06766 7.47556 5.90725 7.51782C5.74681 7.56086 5.65134 7.72521 5.6936 7.88563C6.06456 9.28338 7.33082 10.2602 8.77314 10.2602H8.77783V11.733C7.87002 11.7956 7.07332 12.1384 6.65455 12.6635C6.58255 12.7535 6.56846 12.8772 6.61855 12.9813C6.66864 13.0854 6.77351 13.1511 6.88934 13.1511H11.2665H11.2704C11.4364 13.1511 11.571 13.0165 11.571 12.8506C11.571 12.7629 11.5334 12.6831 11.4731 12.6283C11.0482 12.1235 10.2664 11.794 9.37891 11.7322V10.2593H9.38517C10.8283 10.2593 12.0939 9.28265 12.4631 7.88482C12.5062 7.72517 12.4108 7.56085 12.2504 7.5186Z" fill="white"/>
<path d="M2.11693 3.53125C1.95102 3.53125 1.81641 3.66586 1.81641 3.83177V10.5434C1.81641 10.7093 1.95102 10.8439 2.11693 10.8439C2.28284 10.8439 2.41745 10.7093 2.41745 10.5434V3.83177C2.41745 3.66586 2.28284 3.53125 2.11693 3.53125Z" fill="white"/>
<path d="M3.85912 4.8125C3.6932 4.8125 3.55859 4.94711 3.55859 5.11302V9.26162C3.55859 9.42753 3.6932 9.56214 3.85912 9.56214C4.02503 9.56214 4.15964 9.42753 4.15964 9.26162V5.11302C4.15964 4.94711 4.02503 4.8125 3.85912 4.8125Z" fill="white"/>
<path d="M0.378646 4.8125C0.212734 4.8125 0.078125 4.94711 0.078125 5.11302V9.26162C0.078125 9.42753 0.212734 9.56214 0.378646 9.56214C0.544558 9.56214 0.679168 9.42753 0.679168 9.26162V5.11302C0.679168 4.94711 0.544558 4.8125 0.378646 4.8125Z" fill="white"/>
<path d="M16.0388 3.53125C15.8729 3.53125 15.7383 3.66586 15.7383 3.83177V10.5434C15.7383 10.7093 15.8729 10.8439 16.0388 10.8439C16.2047 10.8439 16.3393 10.7093 16.3393 10.5434V3.83177C16.3393 3.66586 16.2047 3.53125 16.0388 3.53125Z" fill="white"/>
<path d="M17.7771 4.8125C17.6112 4.8125 17.4766 4.94711 17.4766 5.11302V9.26162C17.4766 9.42753 17.6112 9.56214 17.7771 9.56214C17.943 9.56214 18.0776 9.42753 18.0776 9.26162V5.11302C18.0776 4.94711 17.943 4.8125 17.7771 4.8125Z" fill="white"/>
<path d="M14.2966 4.8125C14.1307 4.8125 13.9961 4.94711 13.9961 5.11302V9.26162C13.9961 9.42753 14.1307 9.56214 14.2966 9.56214C14.4625 9.56214 14.5971 9.42753 14.5971 9.26162V5.11302C14.5971 4.94711 14.4625 4.8125 14.2966 4.8125Z" fill="white"/>
<path d="M7.45695 4.24985H6.60156C6.60548 4.25063 6.60939 4.25298 6.61408 4.25376V4.93384H7.45695C7.62286 4.93384 7.75747 5.06845 7.75747 5.23436C7.75747 5.40027 7.62286 5.53488 7.45695 5.53488H6.61487V6.21106H7.45773C7.62364 6.21106 7.75825 6.34566 7.75825 6.51158C7.75825 6.67749 7.62364 6.8121 7.45773 6.8121H6.61487V7.04688C6.61487 8.25915 7.60096 9.2453 8.81408 9.2453H9.34156C10.5538 9.2453 11.5408 8.25921 11.5408 7.04688V6.8121H10.6979C10.532 6.8121 10.3974 6.67749 10.3974 6.51158C10.3974 6.34566 10.532 6.21106 10.6979 6.21106H11.5408V5.53488H10.6979C10.532 5.53488 10.3974 5.40027 10.3974 5.23436C10.3974 5.06845 10.532 4.93384 10.6979 4.93384H11.5408V4.25376C11.5455 4.25298 11.5486 4.25063 11.5533 4.24985H10.6979C10.532 4.24985 10.3974 4.11524 10.3974 3.94933C10.3974 3.78341 10.532 3.6488 10.6979 3.6488H11.5408V3.42107C11.5408 2.20881 10.5539 1.22266 9.34156 1.22266H8.81408C7.60182 1.22266 6.61487 2.20875 6.61487 3.42107V3.6488H7.45773C7.62364 3.6488 7.75825 3.78341 7.75825 3.94933C7.75747 4.11524 7.62286 4.24985 7.45695 4.24985Z" stroke="white" stroke-width="0.5"/>
</svg>
