<svg width="19" height="18" viewBox="0 0 19 18" fill="none" xmlns="http://www.w3.org/2000/svg">
<path d="M16.3123 6.01788C15.9668 6.01788 15.6212 6.01788 15.2756 6.01788C14.408 6.01788 13.5405 6.01788 12.6729 6.01788C11.5372 6.01788 10.4015 6.01788 9.26576 6.01788C8.1157 6.01788 6.96562 6.01788 5.81556 6.01788C4.90496 6.01788 3.99435 6.01788 3.08372 6.01788C2.66648 6.01788 2.24888 6.01281 1.83167 6.01788C1.51653 6.02169 1.2252 6.21816 1.13723 6.5284C1.11058 6.62241 1.10938 6.71413 1.10938 6.80935C1.10938 7.05221 1.10938 7.29507 1.10938 7.53791C1.10938 8.52209 1.10938 9.50626 1.10938 10.4904C1.10938 11.63 1.10938 12.7696 1.10938 13.9092C1.10938 14.6075 1.10938 15.3058 1.10938 16.0041C1.10938 16.0383 1.10938 16.0725 1.10938 16.1067C1.10938 16.2785 1.25494 16.4244 1.42712 16.4244C1.56288 16.4244 1.69864 16.4244 1.83442 16.4244C2.20396 16.4244 2.57349 16.4244 2.94302 16.4244C3.49261 16.4244 4.04222 16.4244 4.59181 16.4244C5.25943 16.4244 5.92705 16.4244 6.59467 16.4244C7.3259 16.4244 8.05713 16.4244 8.78834 16.4244C9.52654 16.4244 10.2648 16.4244 11.003 16.4244C11.6946 16.4244 12.3862 16.4244 13.0778 16.4244C13.6594 16.4244 14.241 16.4244 14.8227 16.4244C15.2411 16.4244 15.6596 16.4244 16.078 16.4244C16.2764 16.4244 16.4755 16.4289 16.6739 16.4244C16.6826 16.4243 16.6913 16.4244 16.7 16.4244C16.8717 16.4244 17.0177 16.2789 17.0177 16.1067C17.0177 15.5033 17.0177 14.9 17.0177 14.2966C17.0177 13.6321 17.0177 12.9676 17.0177 12.3031C17.0177 11.6083 17.0177 10.9135 17.0177 10.2187C17.0177 9.64882 17.0177 9.07892 17.0177 8.50904C17.0177 8.1627 17.0177 7.81634 17.0177 7.47C17.0177 7.27264 17.0177 7.0753 17.0177 6.87794C17.0177 6.68496 17.0126 6.4968 16.8963 6.3296C16.76 6.1337 16.5495 6.0266 16.3123 6.01788C16.146 6.01177 15.9871 6.1684 15.9946 6.33562C16.0025 6.513 16.1342 6.64681 16.3123 6.65336C16.3929 6.65633 16.3125 6.65298 16.3128 6.65135C16.3128 6.65156 16.3619 6.66567 16.3154 6.64601C16.3322 6.65311 16.3475 6.66308 16.363 6.67242C16.3178 6.64525 16.3493 6.66141 16.3618 6.67382C16.4036 6.71568 16.3699 6.68367 16.3632 6.67255C16.3723 6.6878 16.3826 6.70365 16.3896 6.72021C16.364 6.65965 16.3796 6.71604 16.3842 6.72275C16.366 6.69647 16.3832 6.687 16.3822 6.7236C16.3814 6.7543 16.3822 6.78512 16.3822 6.81581C16.3822 6.9961 16.3822 7.17638 16.3822 7.35667C16.3822 7.73199 16.3822 8.10729 16.3822 8.4826C16.3822 9.05418 16.3822 9.62573 16.3822 10.1973C16.3822 10.8184 16.3822 11.4395 16.3822 12.0606C16.3822 12.7868 16.3822 13.513 16.3822 14.2392C16.3822 14.8343 16.3822 15.4295 16.3822 16.0246C16.3822 16.052 16.3822 16.0794 16.3822 16.1067C16.4881 16.0008 16.5941 15.8949 16.7 15.789C16.5642 15.789 16.4285 15.789 16.2927 15.789C15.9231 15.789 15.5536 15.789 15.1841 15.789C14.6345 15.789 14.0849 15.789 13.5353 15.789C12.8677 15.789 12.2 15.789 11.5324 15.789C10.8012 15.789 10.07 15.789 9.33875 15.789C8.60055 15.789 7.86233 15.789 7.12413 15.789C6.43253 15.789 5.74091 15.789 5.04932 15.789C4.46768 15.789 3.88606 15.789 3.30442 15.789C2.88598 15.789 2.46753 15.789 2.04909 15.789C1.85111 15.789 1.65104 15.7806 1.45317 15.789C1.44453 15.7893 1.4358 15.789 1.42714 15.789C1.53305 15.8949 1.63897 16.0008 1.74488 16.1067C1.74488 15.6141 1.74488 15.1216 1.74488 14.629C1.74488 13.5475 1.74488 12.4659 1.74488 11.3844C1.74488 10.3108 1.74488 9.23722 1.74488 8.16365C1.74488 7.81215 1.74488 7.46064 1.74488 7.10915C1.74488 7.01307 1.74488 6.91698 1.74488 6.82089C1.74488 6.79662 1.74465 6.77232 1.74488 6.74805C1.74494 6.74224 1.74499 6.73642 1.74488 6.73061C1.74486 6.72926 1.74492 6.72788 1.74488 6.72653C1.74391 6.68732 1.76098 6.7024 1.74293 6.72451C1.7453 6.71547 1.74768 6.70642 1.75005 6.69738C1.73359 6.72968 1.73365 6.72958 1.75022 6.69704C1.74624 6.69265 1.79523 6.63932 1.74747 6.69441C1.75844 6.68175 1.82025 6.63953 1.76511 6.67283C1.7807 6.6634 1.79619 6.65336 1.81303 6.64626C1.737 6.67829 1.87352 6.64739 1.7879 6.65448C1.78803 6.65446 1.81692 6.6534 1.81703 6.6534C1.81769 6.65342 1.81834 6.65338 1.819 6.6534C1.82889 6.65364 1.83883 6.65344 1.84872 6.6534C1.90153 6.65313 1.95434 6.6534 2.00717 6.6534C2.23355 6.6534 2.45991 6.6534 2.68629 6.6534C3.51149 6.6534 4.33671 6.6534 5.1619 6.6534C6.26894 6.6534 7.37597 6.6534 8.48301 6.6534C9.63713 6.6534 10.7913 6.6534 11.9454 6.6534C12.8913 6.6534 13.8372 6.6534 14.7831 6.6534C15.2709 6.6534 15.7587 6.6534 16.2465 6.6534C16.2684 6.6534 16.2904 6.6534 16.3123 6.6534C16.4785 6.6534 16.6378 6.50726 16.6301 6.33566C16.6224 6.16346 16.4905 6.01788 16.3123 6.01788Z" fill="white"/>
<path d="M16.3914 17.3635C16.2179 17.3635 16.0445 17.3635 15.871 17.3635C15.4072 17.3635 14.9434 17.3635 14.4796 17.3635C13.8103 17.3635 13.141 17.3635 12.4717 17.3635C11.6818 17.3635 10.8919 17.3635 10.102 17.3635C9.27633 17.3635 8.45066 17.3635 7.62502 17.3635C6.84848 17.3635 6.07192 17.3635 5.29537 17.3635C4.65514 17.3635 4.01489 17.3635 3.37466 17.3635C2.94982 17.3635 2.525 17.3635 2.10016 17.3635C1.99592 17.3635 1.8917 17.3635 1.78746 17.3635C1.76738 17.3635 1.74729 17.3636 1.72721 17.3635C1.69105 17.3632 1.65494 17.3623 1.61886 17.3597C1.60425 17.3586 1.58969 17.3571 1.5751 17.3559C1.63454 17.3608 1.58616 17.3579 1.5733 17.3555C1.54036 17.3493 1.50748 17.3432 1.47488 17.3353C1.44264 17.3275 1.41066 17.3186 1.37905 17.3085C1.35886 17.3021 1.26793 17.2677 1.32317 17.291C1.26333 17.2657 1.20539 17.2348 1.15004 17.2009C1.11844 17.1815 1.08813 17.1605 1.05779 17.1392C1.10778 17.1743 1.02676 17.1132 1.01435 17.1022C0.966135 17.0593 0.920846 17.0131 0.878946 16.9641C0.869965 16.9536 0.861217 16.9428 0.85251 16.9321C0.822028 16.8945 0.878713 16.9707 0.852044 16.9302C0.831645 16.8993 0.810335 16.8691 0.791271 16.8373C0.774557 16.8094 0.758776 16.781 0.744054 16.752C0.735602 16.7354 0.727828 16.7185 0.719715 16.7017C0.717851 16.6978 0.700587 16.6551 0.713615 16.6881C0.724375 16.7154 0.695419 16.6348 0.690758 16.6202C0.679193 16.5841 0.669152 16.5475 0.660594 16.5105C0.651951 16.4732 0.644559 16.4354 0.639284 16.3974C0.647058 16.4533 0.639814 16.3862 0.638564 16.3658C0.637462 16.3483 0.64458 16.2929 0.63581 16.277C0.642949 16.2899 0.610857 16.3566 0.602765 16.368C0.58173 16.3977 0.523287 16.432 0.492021 16.4208C0.522206 16.4316 0.576308 16.4208 0.607722 16.4208C0.894897 16.4208 1.18207 16.4208 1.46925 16.4208C1.9846 16.4208 2.49996 16.4208 3.01532 16.4208C3.69658 16.4208 4.37784 16.4208 5.05908 16.4208C5.84397 16.4208 6.62883 16.4208 7.41372 16.4208C8.23993 16.4208 9.06617 16.4208 9.89239 16.4208C10.6977 16.4208 11.503 16.4208 12.3082 16.4208C13.0303 16.4208 13.7524 16.4208 14.4745 16.4208C15.049 16.4208 15.6235 16.4208 16.198 16.4208C16.5678 16.4208 16.9377 16.4208 17.3075 16.4208C17.3953 16.4208 17.4832 16.4208 17.571 16.4208C17.5849 16.4208 17.6055 16.4247 17.6189 16.4208C17.6197 16.4206 17.6208 16.4211 17.6216 16.4208C17.5874 16.4328 17.5543 16.4087 17.5307 16.3877C17.5205 16.3788 17.5093 16.369 17.5019 16.3574C17.4945 16.346 17.4899 16.2471 17.4778 16.2919C17.4696 16.322 17.4741 16.3638 17.473 16.3951C17.4726 16.407 17.466 16.4582 17.4744 16.3975C17.4724 16.4118 17.4699 16.426 17.4674 16.4402C17.4549 16.5104 17.4371 16.5796 17.414 16.6471C17.408 16.6649 17.4013 16.6824 17.3947 16.7001C17.3964 16.6955 17.4148 16.6556 17.3997 16.6889C17.3863 16.7187 17.3721 16.748 17.3567 16.7768C17.3261 16.8342 17.2909 16.8883 17.2536 16.9415C17.2903 16.8892 17.2262 16.9742 17.2166 16.985C17.1982 17.0056 17.1792 17.0258 17.1597 17.0453C17.1336 17.0714 17.1065 17.0964 17.0785 17.1204C17.0679 17.1294 17.0572 17.1381 17.0465 17.1468C17.0088 17.1773 17.085 17.1204 17.0446 17.1473C16.9903 17.1833 16.9366 17.2186 16.8788 17.2488C16.8499 17.2639 16.8205 17.2784 16.7905 17.291C16.8448 17.2681 16.7655 17.2983 16.748 17.3041C16.6848 17.3251 16.6201 17.3414 16.5546 17.353C16.5403 17.3555 16.5261 17.358 16.5118 17.36C16.5725 17.3516 16.5213 17.3582 16.5094 17.3586C16.4701 17.36 16.4309 17.3631 16.3914 17.3635C16.2253 17.3652 16.0659 17.5084 16.0737 17.6812C16.0813 17.8519 16.2133 18.0008 16.3914 17.999C17.031 17.9923 17.6492 17.6303 17.9308 17.0477C18.0003 16.904 18.0563 16.7527 18.0827 16.5949C18.113 16.4141 18.146 16.2047 18.0506 16.0367C17.9584 15.8743 17.7917 15.791 17.6092 15.7853C17.4075 15.779 17.2045 15.7853 17.0027 15.7853C16.5416 15.7853 16.0805 15.7853 15.6194 15.7853C14.969 15.7853 14.3185 15.7853 13.6681 15.7853C12.8889 15.7853 12.1098 15.7853 11.3306 15.7853C10.4915 15.7853 9.65238 15.7853 8.81327 15.7853C7.98388 15.7853 7.15446 15.7853 6.32507 15.7853C5.56457 15.7853 4.80406 15.7853 4.04355 15.7853C3.42402 15.7853 2.80449 15.7853 2.18493 15.7853C1.76729 15.7853 1.34965 15.7853 0.932009 15.7853C0.73162 15.7853 0.462556 15.7473 0.276655 15.8375C-0.0906761 16.0159 -0.0224462 16.4956 0.0868572 16.816C0.18773 17.1118 0.36431 17.3881 0.607065 17.5875C0.931861 17.8542 1.32129 17.9979 1.74265 17.999C1.98658 17.9997 2.2305 17.999 2.47442 17.999C2.99966 17.999 3.52494 17.999 4.05018 17.999C4.7711 17.999 5.49199 17.999 6.21291 17.999C7.03739 17.999 7.86189 17.999 8.68636 17.999C9.52065 17.999 10.3549 17.999 11.1892 17.999C11.9502 17.999 12.7111 17.999 13.4721 17.999C14.0638 17.999 14.6556 17.999 15.2473 17.999C15.5846 17.999 15.922 17.999 16.2593 17.999C16.3034 17.999 16.3474 17.999 16.3914 17.999C16.5576 17.999 16.7168 17.8529 16.7091 17.6813C16.7014 17.5091 16.5696 17.3635 16.3914 17.3635Z" fill="white"/>
<path d="M7.63591 13.0081C7.63591 12.3491 7.63591 11.6901 7.63591 11.0311C7.63591 10.6895 7.63591 10.3478 7.63591 10.0061C7.63591 9.97426 7.64088 9.9378 7.63591 9.90626C7.63514 9.90143 7.63624 9.89624 7.63591 9.89137C7.63523 9.88181 7.73879 9.6878 7.63046 9.92219C7.64211 9.897 7.65368 9.8923 7.62705 9.92799C7.61633 9.94238 7.60638 9.95074 7.59377 9.9626C7.57329 9.97603 7.57564 9.97483 7.60078 9.95898C7.59036 9.96335 7.57996 9.96771 7.56954 9.97209C7.62947 9.96574 7.50711 9.98252 7.49608 9.95339C7.49495 9.9504 7.51385 9.96299 7.52148 9.96777C7.52834 9.97209 7.53512 9.97656 7.542 9.98084C7.576 10.0019 7.60953 10.0238 7.6433 10.0453C8.30579 10.4672 8.96828 10.889 9.63078 11.3108C9.73068 11.3745 9.83057 11.4381 9.93047 11.5017C9.95121 11.5149 9.98154 11.5462 9.9443 11.5085C9.90571 11.4694 9.9299 11.4853 9.93812 11.5049C9.92647 11.4772 9.92374 11.4709 9.91891 11.4376C9.92208 11.4595 9.90749 11.4895 9.92301 11.4248C9.92736 11.4067 9.95955 11.3773 9.92604 11.4158C9.93352 11.4073 9.98616 11.3715 9.96032 11.3786C9.88667 11.3988 9.80126 11.4799 9.73756 11.5204C9.58758 11.6159 9.43759 11.7114 9.28762 11.8069C8.69937 12.1815 8.10773 12.5512 7.52268 12.9307C7.52177 12.9313 7.52086 12.9319 7.51995 12.9325C7.4961 12.948 7.47911 12.9388 7.52285 12.9315C7.55136 12.9267 7.56266 12.928 7.59316 12.9331C7.5867 12.932 7.54579 12.9208 7.58515 12.9337C7.63146 12.9489 7.55912 12.9041 7.59375 12.9366C7.6108 12.9526 7.6211 12.966 7.63228 12.9866C7.65313 13.0248 7.63152 12.9285 7.63591 13.0081C7.62675 12.8424 7.49631 12.6823 7.31816 12.6903C7.15385 12.6977 6.99061 12.8303 7.00042 13.0081C7.02417 13.4384 7.46865 13.698 7.84898 13.4759C7.93594 13.4251 8.01951 13.3673 8.10443 13.3132C8.47777 13.0755 8.85112 12.8378 9.22447 12.6001C9.54842 12.3938 9.87239 12.1875 10.1963 11.9812C10.353 11.8815 10.5031 11.7666 10.5406 11.57C10.5931 11.2952 10.4554 11.0829 10.2325 10.941C9.54749 10.5048 8.86245 10.0686 8.1774 9.63243C8.0745 9.56691 7.97206 9.50061 7.86868 9.43585C7.59434 9.26404 7.22583 9.33494 7.06638 9.62908C6.99587 9.75916 7.0004 9.89694 7.0004 10.038C7.0004 10.2 7.0004 10.3619 7.0004 10.5239C7.0004 11.3344 7.0004 12.145 7.0004 12.9555C7.0004 12.973 7.0004 12.9905 7.0004 13.008C7.0004 13.1742 7.14654 13.3334 7.31814 13.3258C7.49032 13.3181 7.63591 13.1862 7.63591 13.0081Z" fill="white"/>
<path d="M5.9978 3.11014C6.02053 2.98048 6.04991 2.85229 6.08762 2.72614C6.10556 2.66613 6.12522 2.60665 6.14659 2.54778C6.15805 2.51622 6.17004 2.48487 6.18248 2.45369C6.18779 2.44034 6.19315 2.42704 6.19868 2.41378C6.1864 2.44331 6.18951 2.43482 6.20061 2.41067C6.25632 2.28961 6.31627 2.17111 6.38507 2.05689C6.4168 2.00421 6.44999 1.95244 6.48463 1.90164C6.50058 1.87824 6.51685 1.85502 6.53341 1.83204C6.54169 1.82056 6.55017 1.8092 6.55843 1.79772C6.61109 1.72449 6.53667 1.82418 6.56889 1.78334C6.72668 1.58329 6.90742 1.40308 7.10628 1.2439C7.13452 1.22129 7.10204 1.24697 7.09781 1.25017C7.11285 1.23877 7.12795 1.22746 7.14318 1.21632C7.16604 1.19958 7.18911 1.18314 7.21236 1.16698C7.26674 1.12923 7.3223 1.09316 7.37888 1.05882C7.49259 0.989787 7.61054 0.927637 7.73185 0.873048C7.74871 0.865465 7.81084 0.839982 7.76132 0.859852C7.79246 0.847354 7.82362 0.834983 7.85505 0.823269C7.9182 0.799714 7.98208 0.77815 8.04659 0.758598C8.17239 0.720448 8.3005 0.689923 8.42999 0.6673C8.44453 0.664758 8.45908 0.662343 8.47365 0.660013C8.48238 0.658615 8.5436 0.649189 8.50462 0.654866C8.47611 0.659017 8.55201 0.649337 8.56565 0.647896C8.63528 0.640567 8.70514 0.635462 8.77511 0.632602C8.9151 0.626841 9.05546 0.629891 9.19505 0.641902C9.23128 0.645016 9.26739 0.648956 9.30351 0.653086C9.3413 0.657407 9.30213 0.652705 9.29588 0.651815C9.31626 0.654696 9.33662 0.657874 9.35693 0.661178C9.42758 0.672702 9.49784 0.686555 9.56755 0.702696C9.70033 0.733475 9.83113 0.772642 9.95899 0.81988C9.98719 0.83028 10.0151 0.841338 10.0431 0.852268C10.091 0.870973 10.003 0.834453 10.0501 0.854874C10.0638 0.860826 10.0775 0.866842 10.0912 0.872985C10.1546 0.901561 10.2171 0.93217 10.2786 0.96477C10.3966 1.02728 10.5107 1.09708 10.6201 1.17355C10.6525 1.19613 10.6843 1.21937 10.7159 1.24303C10.7448 1.26478 10.7147 1.24218 10.7101 1.23845C10.7255 1.2507 10.7408 1.263 10.7561 1.27548C10.817 1.32537 10.8761 1.37743 10.9332 1.43158C11.0405 1.53334 11.1391 1.64268 11.2331 1.75671C11.2346 1.75847 11.2648 1.79666 11.2448 1.77101C11.2226 1.74256 11.2694 1.80399 11.2735 1.80956C11.2939 1.8374 11.3138 1.86557 11.3333 1.89404C11.378 1.95924 11.4204 2.02605 11.4603 2.0943C11.4978 2.15853 11.5331 2.22403 11.5662 2.29067C11.5816 2.32187 11.5966 2.35335 11.611 2.38501C11.6193 2.40315 11.6274 2.42136 11.6353 2.43967C11.6572 2.49019 11.6079 2.3718 11.6435 2.46062C11.7049 2.61343 11.8564 2.74161 12.0344 2.68255C12.2855 2.59922 12.5168 2.55338 12.7701 2.54469C12.8727 2.54117 12.9754 2.54297 13.0778 2.55028C13.1265 2.55376 13.1751 2.55876 13.2236 2.56443C13.1599 2.557 13.224 2.56477 13.2399 2.56729C13.2732 2.57259 13.3064 2.57843 13.3395 2.5849C13.5254 2.62125 13.7085 2.67575 13.8834 2.74889C13.8261 2.72494 13.8837 2.74944 13.8977 2.75612C13.9188 2.76616 13.9401 2.77571 13.9612 2.78592C14.0031 2.80628 14.0446 2.82765 14.0855 2.85004C14.167 2.89463 14.2463 2.94318 14.323 2.99546C14.3613 3.02154 14.3988 3.04867 14.4359 3.07638C14.3869 3.03978 14.4363 3.0767 14.4482 3.0865C14.466 3.10125 14.484 3.11576 14.5016 3.13071C14.5756 3.1935 14.6463 3.26001 14.7136 3.32992C14.7746 3.3933 14.8315 3.45983 14.8873 3.52774C14.9453 3.59828 14.8525 3.47693 14.9053 3.55145C14.9161 3.56655 14.9272 3.58134 14.9379 3.59644C14.9701 3.64181 15.001 3.68812 15.0305 3.73529C15.0774 3.81024 15.1208 3.88736 15.1605 3.96633C15.1795 4.00393 15.1967 4.04223 15.2148 4.08021C15.2545 4.16367 15.1933 4.02154 15.2269 4.10781C15.2371 4.1341 15.2476 4.1603 15.2573 4.18678C15.3234 4.36631 15.3691 4.551 15.4001 4.73957C15.4156 4.83392 15.3952 4.67492 15.4041 4.77052C15.4068 4.79969 15.4102 4.82879 15.4126 4.858C15.417 4.91202 15.4198 4.96614 15.4212 5.02031C15.4248 5.15899 15.4197 5.29886 15.402 5.43653C15.3755 5.64414 15.2824 5.9637 15.1933 6.1559C15.1212 6.3115 15.1494 6.49825 15.3073 6.59063C15.4446 6.67091 15.6696 6.63306 15.7421 6.47665C16.1736 5.54513 16.1588 4.46352 15.6638 3.5589C15.2441 2.79192 14.4971 2.2143 13.6485 2.00319C13.0635 1.85765 12.4377 1.8798 11.8654 2.06975C11.9957 2.14372 12.126 2.21769 12.2563 2.29168C11.7945 1.14203 10.7767 0.258472 9.54106 0.0509435C8.33467 -0.15167 7.07893 0.255781 6.256 1.17179C5.8101 1.66812 5.50035 2.28291 5.38496 2.94125C5.35639 3.10438 5.42866 3.29151 5.6069 3.33212C5.76153 3.36728 5.96713 3.28522 5.9978 3.11014Z" fill="white"/>
<path d="M2.84097 6.23159C2.74535 5.96909 2.69811 5.73648 2.69425 5.47182C2.69279 5.37067 2.69716 5.26944 2.70758 5.16882C2.70849 5.16001 2.72241 5.06509 2.71082 5.13828C2.71383 5.1193 2.71675 5.10034 2.72003 5.08138C2.7298 5.02499 2.74155 4.96896 2.75515 4.91336C2.77862 4.81723 2.80794 4.72254 2.84264 4.62989C2.85084 4.60799 2.85939 4.58625 2.8681 4.56454C2.84488 4.62243 2.86804 4.56475 2.87473 4.55052C2.89843 4.50004 2.92235 4.44983 2.94866 4.40063C2.99444 4.31509 3.0451 4.2322 3.10039 4.15247C3.11211 4.13559 3.19008 4.03338 3.14954 4.08377C3.18415 4.04077 3.21957 3.99856 3.25666 3.95767C3.31838 3.88961 3.38382 3.8249 3.45253 3.76389C3.48694 3.73337 3.52229 3.70403 3.55813 3.67518C3.50318 3.71941 3.57495 3.66296 3.58175 3.65802C3.60412 3.64177 3.62674 3.62589 3.64964 3.61038C3.73382 3.55334 3.82146 3.50135 3.91191 3.45486C3.95328 3.43359 3.99543 3.41419 4.03758 3.39457C4.093 3.36879 4.05063 3.38898 4.0389 3.3937C4.07364 3.37976 4.10855 3.36627 4.14384 3.35373C4.23276 3.32212 4.32349 3.29552 4.41542 3.27412C4.4619 3.2633 4.50871 3.25383 4.55572 3.24563C4.56436 3.24413 4.65892 3.23038 4.58543 3.23983C4.61426 3.23612 4.6432 3.23303 4.67214 3.23034C4.91542 3.20778 5.15557 3.22009 5.37212 3.26811C5.89754 3.38466 6.3191 3.6551 6.66351 4.08157C6.77142 4.21517 7.00057 4.19386 7.11286 4.08157C7.24492 3.94952 7.22104 3.76616 7.11286 3.63222C6.4043 2.75483 5.19071 2.38017 4.1091 2.69744C3.20173 2.96361 2.47452 3.68062 2.18834 4.58064C2.00174 5.16753 2.01763 5.82259 2.22813 6.40046C2.28682 6.56161 2.44398 6.67047 2.61899 6.62239C2.77445 6.57973 2.89998 6.39361 2.84097 6.23159Z" fill="white"/>
</svg>
