<svg width="20" height="19" viewBox="0 0 20 19" fill="none" xmlns="http://www.w3.org/2000/svg">
<path d="M10.0016 4.88878C9.00273 4.8629 8.03796 5.26291 7.33351 5.99281C6.62979 6.72354 6.24954 7.72065 6.28198 8.74961C6.2455 13.6417 13.4821 14.0834 13.7496 8.74961C13.748 7.72576 13.3532 6.74451 12.6503 6.02124C11.9482 5.29721 10.9956 4.89045 10.0016 4.88878ZM10.0121 8.0815C10.7774 8.10154 11.4285 8.66358 11.5809 9.43688C11.7333 10.2094 11.3474 10.9885 10.6502 11.3151C10.6404 11.6508 10.3915 11.9264 10.0672 11.9614C9.74293 11.9957 9.44458 11.7777 9.36837 11.452H9.01408C8.65979 11.4462 8.37441 11.1489 8.37441 10.7839C8.37441 10.4181 8.65979 10.1208 9.01408 10.1158H10.0016C10.1888 10.1125 10.338 9.95382 10.3348 9.7609C10.3315 9.56797 10.1775 9.41432 9.99104 9.41766C9.2257 9.39761 8.57468 8.83558 8.42225 8.06228C8.26983 7.28897 8.65574 6.51065 9.35299 6.18411C9.36272 5.84839 9.61243 5.5728 9.93591 5.53857C10.2602 5.5035 10.5586 5.72146 10.6348 6.04799H10.9891C11.3434 6.053 11.6287 6.35031 11.6287 6.71608C11.6287 7.08101 11.3434 7.37833 10.9891 7.38417H10.0016C9.81511 7.38751 9.66674 7.54618 9.66998 7.73824C9.67241 7.93032 9.82564 8.084 10.0121 8.0815ZM9.9967 2.54395C4.88018 -2.19274 -2.09391 4.9976 2.49418 10.272L9.9967 18L17.4992 10.272C22.105 4.98905 15.1082 -2.17372 9.9967 2.54395ZM10.0016 13.9466C8.65897 13.97 7.36589 13.4288 6.41884 12.4484C5.47189 11.4671 4.95383 10.1318 4.98463 8.74878C5.01057 2.12625 14.656 1.59435 15.0466 8.74961C15.045 10.1275 14.5132 11.4487 13.567 12.4225C12.6217 13.3971 11.3392 13.9449 10.0013 13.9466L10.0016 13.9466Z" stroke="white" stroke-width="0.3"/>
</svg>
